<svg xmlns="http://www.w3.org/2000/svg" xmlns:xlink="http://www.w3.org/1999/xlink" width="256" zoomAndPan="magnify" viewBox="0 0 192 191.999996" height="256" preserveAspectRatio="xMidYMid meet" version="1.0"><defs><clipPath id="dcbbcef3e0"><path d="M 47 108 L 64 108 L 64 167.96875 L 47 167.96875 Z M 47 108 " clip-rule="nonzero"/></clipPath><clipPath id="75f8c7a500"><path d="M 68 96 L 96 96 L 96 167.96875 L 68 167.96875 Z M 68 96 " clip-rule="nonzero"/></clipPath><clipPath id="65fc10ee48"><path d="M 27.121094 95 L 66 95 L 66 123 L 27.121094 123 Z M 27.121094 95 " clip-rule="nonzero"/></clipPath></defs><path fill="#e61f93" d="M 136.75 29.195312 C 135.570312 26.699219 132.589844 25.625 130.089844 26.804688 C 126.054688 28.707031 122.46875 31.367188 119.359375 34.289062 C 125.382812 31.882812 131.421875 30.421875 137.058594 30.054688 C 136.980469 29.765625 136.882812 29.476562 136.75 29.195312 Z M 136.75 29.195312 " fill-opacity="1" fill-rule="nonzero"/><path fill="#e61f93" d="M 113.945312 58.617188 C 113.984375 58.53125 116.007812 54.183594 119.640625 49.148438 C 118.542969 49.710938 117.449219 50.304688 116.371094 50.933594 C 110.695312 54.230469 105.746094 58.171875 101.859375 62.289062 L 109.871094 61.519531 C 111.644531 61.347656 113.199219 60.238281 113.945312 58.617188 Z M 113.945312 58.617188 " fill-opacity="1" fill-rule="nonzero"/><g clip-path="url(#dcbbcef3e0)"><path fill="#e61f93" d="M 47.851562 159.300781 C 47.851562 163.574219 51.316406 167.035156 55.589844 167.035156 C 59.859375 167.035156 63.324219 163.574219 63.324219 159.300781 L 63.324219 108.050781 L 47.851562 117.035156 Z M 47.851562 159.300781 " fill-opacity="1" fill-rule="nonzero"/></g><path fill="#e61f93" d="M 56.222656 94.644531 C 53.796875 92.792969 50.960938 90.765625 47.851562 88.699219 L 47.851562 99.503906 Z M 56.222656 94.644531 " fill-opacity="1" fill-rule="nonzero"/><g clip-path="url(#75f8c7a500)"><path fill="#e61f93" d="M 80.753906 97.929688 L 77.113281 100.042969 C 77.171875 100.492188 77.199219 100.933594 77.199219 101.375 C 77.199219 104.925781 74.308594 107.816406 70.753906 107.816406 C 70.050781 107.816406 69.371094 107.695312 68.734375 107.480469 L 79.980469 160.972656 C 80.859375 165.152344 84.960938 167.828125 89.140625 166.949219 C 93.320312 166.070312 95.996094 161.972656 95.117188 157.789062 L 82.28125 96.734375 C 81.832031 97.191406 81.324219 97.597656 80.753906 97.929688 Z M 80.753906 97.929688 " fill-opacity="1" fill-rule="nonzero"/></g><path fill="#e61f93" d="M 73.847656 37.972656 C 74.722656 36.925781 75.957031 36.28125 77.316406 36.160156 C 77.46875 36.148438 77.621094 36.140625 77.773438 36.140625 C 79.863281 36.140625 81.65625 37.375 82.449219 39.191406 L 84.488281 39.007812 C 84.992188 36.941406 86.761719 35.320312 89 35.121094 C 89.152344 35.109375 89.304688 35.101562 89.457031 35.101562 C 90.261719 35.101562 91.019531 35.285156 91.695312 35.613281 C 90.285156 30.738281 86.28125 26.792969 80.964844 25.714844 C 73.34375 24.171875 65.917969 29.097656 64.375 36.71875 C 64.09375 38.101562 64.03125 39.480469 64.15625 40.816406 L 72.800781 40.046875 C 72.984375 39.292969 73.335938 38.585938 73.847656 37.972656 Z M 73.847656 37.972656 " fill-opacity="1" fill-rule="nonzero"/><path fill="#e61f93" d="M 91.117188 45.046875 C 90.726562 45.179688 90.324219 45.273438 89.90625 45.308594 C 89.753906 45.324219 89.601562 45.328125 89.449219 45.328125 C 86.785156 45.328125 84.59375 43.324219 84.359375 40.667969 C 84.355469 40.617188 84.355469 40.5625 84.351562 40.511719 L 82.84375 40.644531 C 82.847656 40.699219 82.859375 40.75 82.863281 40.800781 C 83.113281 43.609375 81.03125 46.097656 78.222656 46.347656 C 78.070312 46.363281 77.917969 46.371094 77.765625 46.371094 C 75.101562 46.371094 72.910156 44.367188 72.675781 41.707031 C 72.671875 41.65625 72.671875 41.605469 72.667969 41.550781 L 64.371094 42.289062 C 65.457031 47.671875 69.65625 52.148438 75.378906 53.308594 C 82.039062 54.65625 88.550781 51.0625 91.117188 45.046875 Z M 91.117188 45.046875 " fill-opacity="1" fill-rule="nonzero"/><path fill="#e61f93" d="M 89.777344 43.875 C 91.800781 43.695312 93.292969 41.910156 93.113281 39.890625 C 92.933594 37.867188 91.148438 36.375 89.128906 36.554688 C 87.105469 36.734375 85.613281 38.519531 85.792969 40.539062 C 85.972656 42.5625 87.757812 44.054688 89.777344 43.875 Z M 89.777344 43.875 " fill-opacity="1" fill-rule="nonzero"/><path fill="#e61f93" d="M 77.445312 37.59375 C 75.421875 37.773438 73.929688 39.558594 74.109375 41.582031 C 74.289062 43.601562 76.074219 45.09375 78.09375 44.914062 C 80.117188 44.734375 81.609375 42.949219 81.429688 40.929688 C 81.25 38.90625 79.464844 37.414062 77.445312 37.59375 Z M 77.445312 37.59375 " fill-opacity="1" fill-rule="nonzero"/><g clip-path="url(#65fc10ee48)"><path fill="#e61f93" d="M 64.355469 102.148438 C 63.710938 100.941406 61.328125 98.671875 57.816406 95.886719 L 30.597656 111.695312 C 27.984375 113.214844 27.09375 116.566406 28.613281 119.179688 L 28.84375 119.574219 C 30.363281 122.191406 33.710938 123.078125 36.328125 121.558594 L 65.277344 104.746094 C 64.796875 103.972656 64.472656 103.09375 64.355469 102.148438 Z M 64.355469 102.148438 " fill-opacity="1" fill-rule="nonzero"/></g><path fill="#e61f93" d="M 159.238281 66.902344 C 164.007812 59.015625 164.847656 51.597656 161.609375 46.019531 L 158.191406 40.136719 C 154.953125 34.558594 148.078125 31.613281 138.882812 31.847656 C 130.007812 32.070312 119.90625 35.222656 110.441406 40.722656 C 100.972656 46.21875 93.230469 53.429688 88.636719 61.027344 C 83.871094 68.914062 83.027344 76.328125 86.269531 81.910156 C 86.320312 81.996094 86.378906 82.078125 86.429688 82.164062 L 79.308594 86.296875 C 77.710938 85.488281 75.746094 85.476562 74.082031 86.441406 L 69.652344 89.015625 C 73.816406 92.773438 75.820312 95.636719 76.664062 98.132812 L 79.808594 96.304688 C 81.476562 95.339844 82.4375 93.625 82.527344 91.835938 L 89.640625 87.703125 C 89.65625 87.734375 89.667969 87.761719 89.683594 87.792969 C 92.808594 93.164062 99.285156 96.09375 107.992188 96.09375 C 108.320312 96.09375 108.660156 96.089844 108.996094 96.082031 C 117.867188 95.855469 127.96875 92.707031 137.4375 87.207031 C 146.90625 81.707031 154.648438 74.496094 159.238281 66.902344 Z M 132.449219 78.617188 C 116.007812 88.167969 98.636719 89.769531 91.15625 83.003906 C 88.988281 73.15625 98.984375 58.859375 115.429688 49.308594 C 125.15625 43.660156 135.214844 40.789062 143.355469 40.789062 C 148.960938 40.789062 153.652344 42.160156 156.707031 44.914062 C 157.597656 49.019531 156.390625 54.027344 153.144531 59.398438 C 148.820312 66.554688 141.472656 73.378906 132.449219 78.617188 Z M 132.449219 78.617188 " fill-opacity="1" fill-rule="nonzero"/><path fill="#e61f93" d="M 130.886719 73.421875 C 116.992188 82.367188 101.734375 83.632812 95.953125 76.546875 C 96.117188 76.878906 96.292969 77.203125 96.496094 77.515625 C 101.695312 85.59375 117.628906 84.59375 132.085938 75.285156 C 146.546875 65.976562 154.050781 51.882812 148.851562 43.808594 C 148.691406 43.558594 148.511719 43.332031 148.332031 43.101562 C 148.285156 43.039062 148.242188 42.972656 148.191406 42.910156 C 148.222656 42.972656 148.246094 43.035156 148.273438 43.09375 C 152.136719 51.304688 144.683594 64.539062 130.886719 73.421875 Z M 130.886719 73.421875 " fill-opacity="1" fill-rule="nonzero"/><path fill="#e61f93" d="M 40.921875 82.636719 C 52.949219 89.792969 64.425781 98.636719 65.765625 101.753906 C 65.957031 104.339844 68.117188 106.378906 70.753906 106.378906 C 73.519531 106.378906 75.757812 104.136719 75.757812 101.375 C 75.757812 97.828125 73.855469 93.175781 60.042969 83.234375 C 56.066406 80.375 52.128906 77.820312 49.445312 76.132812 C 51.683594 69.527344 53.71875 65.523438 55.457031 63.050781 L 56.742188 63.75 C 55.167969 65.933594 53.28125 69.523438 51.175781 75.523438 C 53.773438 77.175781 57.308594 79.496094 60.882812 82.066406 C 63.777344 84.152344 66.175781 86.015625 68.164062 87.710938 L 73.136719 84.820312 C 74.257812 84.167969 75.53125 83.824219 76.820312 83.824219 C 77.617188 83.824219 78.410156 83.957031 79.167969 84.210938 L 83.046875 81.957031 L 83.417969 80.191406 C 81.363281 74.417969 82.597656 67.390625 87.03125 60.058594 C 88.449219 57.710938 90.160156 55.40625 92.113281 53.171875 L 83.757812 53.972656 C 82.015625 54.652344 80.136719 55.03125 78.1875 55.03125 C 77.15625 55.03125 76.113281 54.925781 75.09375 54.71875 C 72.171875 54.128906 69.546875 52.742188 67.449219 50.726562 L 60.289062 49.222656 C 59.984375 49.15625 59.679688 49.128906 59.382812 49.121094 C 59.363281 49.121094 59.347656 49.121094 59.328125 49.117188 C 59.324219 49.117188 59.316406 49.117188 59.308594 49.117188 C 58.679688 49.074219 58.03125 49.148438 57.394531 49.363281 C 53.929688 50.519531 50.316406 52.601562 46.644531 58.25 C 44.015625 62.300781 41.351562 68.175781 38.695312 76.871094 C 38.019531 79.078125 38.941406 81.457031 40.921875 82.636719 Z M 40.921875 82.636719 " fill-opacity="1" fill-rule="nonzero"/></svg>