<svg xmlns="http://www.w3.org/2000/svg" xmlns:xlink="http://www.w3.org/1999/xlink" width="256" zoomAndPan="magnify" viewBox="0 0 192 191.999996" height="256" preserveAspectRatio="xMidYMid meet" version="1.0"><defs><clipPath id="1a52781c7a"><path d="M 11.394531 19.199219 L 163.644531 19.199219 L 163.644531 171.449219 L 11.394531 171.449219 Z M 11.394531 19.199219 " clip-rule="nonzero"/></clipPath></defs><path fill="#e61f93" d="M 119.410156 67.878906 C 119.164062 66.988281 118.566406 66.265625 117.71875 65.824219 C 117.902344 63.832031 117.632812 61.386719 117.171875 59.371094 C 116.765625 57.71875 116.148438 55.871094 115.195312 53.933594 C 114.195312 52.039062 112.957031 50.007812 111.21875 48.140625 C 109.570312 46.207031 107.441406 44.453125 105.039062 42.894531 C 84.101562 29.621094 55.191406 45.324219 57.4375 65.832031 C 56.597656 66.265625 56.003906 66.996094 55.765625 67.878906 C 50.804688 67.964844 46.820312 71.648438 46.820312 76.195312 C 46.820312 80.742188 50.804688 84.433594 55.765625 84.519531 C 56.152344 85.957031 57.511719 87.042969 59.199219 87.042969 C 61.207031 87.042969 62.828125 85.558594 62.828125 83.726562 L 62.828125 68.671875 C 62.828125 67.625 62.269531 66.734375 61.453125 66.125 C 62.359375 60.941406 65.050781 55.464844 68.828125 52.070312 C 74.375 46.664062 84 43.539062 94.578125 45.894531 C 98.640625 47.109375 102.648438 49.148438 105.988281 52.410156 C 109.703125 55.753906 112.71875 60.757812 113.703125 66.132812 C 111.5625 67.71875 112.332031 69.09375 112.332031 83.726562 C 112.332031 84.867188 113.003906 85.835938 113.972656 86.433594 L 113.972656 87.703125 C 113.972656 88.511719 113.742188 89.304688 113.304688 89.988281 C 108.570312 97.359375 108.257812 98.113281 101.109375 100.398438 C 98.863281 101.121094 96.324219 101.429688 93.753906 102.058594 C 91.394531 99.714844 87.214844 101.257812 87.214844 104.390625 C 87.214844 108.335938 93.378906 109.238281 94.578125 105.289062 C 96.308594 104.867188 98.09375 104.621094 99.777344 104.105469 C 108.996094 101.304688 112.011719 99.636719 116.894531 90.320312 C 117.355469 89.441406 117.601562 88.464844 117.601562 87.464844 L 117.601562 86.636719 C 118.503906 86.210938 119.15625 85.449219 119.410156 84.519531 C 124.351562 84.425781 128.335938 80.742188 128.335938 76.195312 C 128.335938 71.65625 124.351562 67.972656 119.410156 67.878906 " fill-opacity="1" fill-rule="nonzero"/><path fill="#e61f93" d="M 87.59375 121.699219 C 90.554688 117.539062 93.125 113.96875 95.65625 110.359375 C 98.617188 106.136719 101.601562 104.773438 106.277344 106.351562 C 112.21875 108.359375 118.109375 110.597656 123.851562 113.097656 C 128.796875 115.253906 131.574219 119.097656 131.265625 124.792969 C 131.105469 127.601562 131.265625 130.421875 131.226562 133.230469 C 131.121094 140.976562 127.597656 144.578125 119.925781 144.617188 C 110.019531 144.671875 100.117188 144.632812 90.214844 144.632812 C 78.699219 144.632812 67.191406 144.664062 55.675781 144.617188 C 47.449219 144.585938 43.980469 141.070312 43.933594 132.878906 C 43.914062 130.207031 44.066406 127.515625 43.898438 124.847656 C 43.535156 118.921875 46.589844 115.105469 51.628906 112.929688 C 57.382812 110.445312 63.304688 108.277344 69.253906 106.3125 C 74.332031 104.621094 75.90625 105.375 79.046875 109.777344 C 81.753906 113.574219 84.476562 117.359375 87.59375 121.699219 " fill-opacity="1" fill-rule="nonzero"/><path fill="#e61f93" d="M 108.570312 72.265625 C 108.027344 79.25 105.824219 88.1875 98.5 95.058594 C 92.285156 100.882812 82.808594 101.035156 76.699219 95.066406 C 68.222656 86.789062 65.558594 76.273438 66.867188 64.925781 C 67.558594 58.980469 71.175781 54.308594 77.261719 52.316406 C 86.300781 49.355469 95.054688 49.070312 103.023438 55.386719 C 107.671875 59.078125 108.734375 64.140625 108.570312 72.265625 " fill-opacity="1" fill-rule="nonzero"/><g clip-path="url(#1a52781c7a)"><path fill="#e61f93" d="M 87.578125 165.597656 C 48.796875 165.597656 17.363281 134.164062 17.363281 95.382812 C 17.363281 56.601562 48.796875 25.167969 87.578125 25.167969 C 126.359375 25.167969 157.792969 56.601562 157.792969 95.382812 C 157.792969 134.164062 126.359375 165.597656 87.578125 165.597656 Z M 87.578125 19.199219 C 45.503906 19.199219 11.394531 53.308594 11.394531 95.382812 C 11.394531 137.460938 45.503906 171.566406 87.578125 171.566406 C 129.652344 171.566406 163.761719 137.460938 163.761719 95.382812 C 163.761719 53.308594 129.652344 19.199219 87.578125 19.199219 " fill-opacity="1" fill-rule="nonzero"/></g></svg>