<svg xmlns="http://www.w3.org/2000/svg" xmlns:xlink="http://www.w3.org/1999/xlink" width="256" zoomAndPan="magnify" viewBox="0 0 192 191.999996" height="256" preserveAspectRatio="xMidYMid meet" version="1.0"><defs><clipPath id="b59dd9da0d"><path d="M 11.765625 19.199219 L 159 19.199219 L 159 166 L 11.765625 166 Z M 11.765625 19.199219 " clip-rule="nonzero"/></clipPath></defs><g clip-path="url(#b59dd9da0d)"><path fill="#e61f93" d="M 136.347656 129.808594 C 140.648438 129.808594 144.132812 133.292969 144.132812 137.59375 C 144.132812 141.894531 140.648438 145.378906 136.347656 145.378906 C 135.195312 145.378906 134.105469 145.128906 133.121094 144.679688 C 118.320312 159.238281 98.042969 166.578125 77.320312 164.753906 C 61.394531 163.351562 45.957031 156.574219 33.945312 144.734375 L 34.484375 149.28125 C 34.640625 150.601562 33.695312 151.796875 32.375 151.953125 C 31.054688 152.109375 29.859375 151.164062 29.703125 149.84375 L 28.289062 137.867188 C 28.101562 136.277344 29.511719 134.929688 31.109375 135.222656 L 42.777344 137.378906 C 44.082031 137.617188 44.945312 138.867188 44.707031 140.171875 C 44.464844 141.476562 43.214844 142.339844 41.910156 142.101562 L 37.25 141.242188 C 48.445312 152.308594 62.859375 158.644531 77.734375 159.953125 C 96.96875 161.648438 115.78125 154.894531 129.570312 141.433594 C 128.929688 140.300781 128.5625 138.988281 128.5625 137.59375 C 128.5625 133.292969 132.046875 129.808594 136.347656 129.808594 Z M 74.808594 45.027344 C 63.046875 45.027344 53.515625 54.5625 53.515625 66.320312 C 53.515625 70.863281 54.9375 75.074219 57.359375 78.53125 C 55.136719 80.6875 52.910156 82.847656 50.6875 85.007812 L 50.445312 84.757812 C 49.703125 83.996094 48.472656 83.976562 47.707031 84.71875 L 36.015625 96.0625 C 35.253906 96.804688 35.234375 98.035156 35.972656 98.800781 L 40.195312 103.152344 C 40.9375 103.914062 42.167969 103.933594 42.933594 103.191406 L 54.625 91.847656 C 55.390625 91.105469 55.410156 89.875 54.667969 89.109375 L 54.425781 88.863281 L 60.972656 82.507812 C 64.695312 85.691406 69.527344 87.613281 74.804688 87.613281 C 86.566406 87.613281 96.097656 78.082031 96.097656 66.320312 C 96.097656 54.5625 86.566406 45.027344 74.808594 45.027344 Z M 74.804688 51.265625 C 83.121094 51.265625 89.863281 58.007812 89.863281 66.320312 C 89.863281 74.636719 83.121094 81.378906 74.804688 81.378906 C 66.492188 81.378906 59.75 74.636719 59.75 66.320312 C 59.75 58.007812 66.492188 51.265625 74.804688 51.265625 Z M 49.710938 111.976562 C 48.878906 111.976562 48.203125 112.652344 48.203125 113.480469 L 48.203125 131.421875 C 48.203125 132.25 48.878906 132.925781 49.710938 132.925781 L 57.617188 132.925781 C 58.449219 132.925781 59.125 132.25 59.125 131.421875 L 59.125 113.480469 C 59.125 112.652344 58.449219 111.976562 57.617188 111.976562 Z M 110.542969 79.226562 C 109.714844 79.226562 109.035156 79.902344 109.035156 80.730469 L 109.035156 131.421875 C 109.035156 132.25 109.714844 132.925781 110.542969 132.925781 L 118.453125 132.925781 C 119.28125 132.925781 119.957031 132.25 119.957031 131.421875 L 119.957031 80.730469 C 119.957031 79.902344 119.28125 79.226562 118.453125 79.226562 Z M 98.175781 89.539062 L 90.265625 89.539062 C 89.4375 89.539062 88.757812 90.214844 88.757812 91.042969 L 88.757812 131.421875 C 88.757812 132.25 89.4375 132.925781 90.265625 132.925781 L 98.175781 132.925781 C 99.003906 132.925781 99.679688 132.25 99.679688 131.421875 L 99.679688 91.042969 C 99.679688 90.214844 99.003906 89.539062 98.175781 89.539062 Z M 77.894531 101 C 75.261719 101 72.625 101 69.988281 101 C 69.15625 101 68.480469 101.675781 68.480469 102.503906 C 68.480469 112.753906 68.480469 121.175781 68.480469 131.421875 C 68.480469 132.25 69.15625 132.925781 69.988281 132.925781 C 72.625 132.925781 75.261719 132.925781 77.894531 132.925781 C 78.726562 132.925781 79.402344 132.25 79.402344 131.421875 C 79.402344 121.175781 79.402344 112.753906 79.402344 102.503906 C 79.402344 101.675781 78.726562 101 77.894531 101 Z M 15.097656 112.152344 C 11.992188 100.199219 12.097656 87.667969 15.285156 75.875 C 21.71875 52.035156 40.25 33.261719 63.835938 26.449219 L 60.492188 25.265625 C 59.242188 24.824219 58.582031 23.449219 59.023438 22.195312 C 59.46875 20.945312 60.839844 20.285156 62.09375 20.730469 L 73.273438 24.695312 C 74.8125 25.238281 75.359375 27.113281 74.398438 28.402344 L 67.1875 38.066406 C 66.394531 39.132812 64.882812 39.351562 63.820312 38.554688 C 62.753906 37.761719 62.535156 36.253906 63.328125 35.1875 L 66.730469 30.632812 C 44.050781 36.597656 26.085938 54.328125 19.933594 77.117188 C 16.984375 88.039062 16.863281 99.632812 19.691406 110.699219 C 23.960938 110.734375 27.414062 114.207031 27.414062 118.484375 C 27.414062 122.785156 23.929688 126.273438 19.628906 126.273438 C 15.332031 126.273438 11.84375 122.785156 11.84375 118.484375 C 11.84375 115.875 13.128906 113.566406 15.097656 112.152344 Z M 154.835938 108.957031 C 155.847656 108.09375 157.363281 108.214844 158.226562 109.222656 C 159.089844 110.230469 158.96875 111.746094 157.960938 112.609375 L 148.9375 120.308594 C 147.699219 121.367188 145.800781 120.902344 145.167969 119.429688 L 140.402344 108.355469 C 139.875 107.132812 140.441406 105.714844 141.664062 105.191406 C 142.882812 104.667969 144.300781 105.230469 144.824219 106.453125 L 147.058594 111.652344 C 149.589844 102.324219 150.058594 92.5 148.378906 82.921875 C 144.007812 57.9375 125.589844 37.703125 101.257812 30.917969 C 99.902344 33.21875 97.402344 34.765625 94.539062 34.765625 C 90.238281 34.765625 86.753906 31.28125 86.753906 26.980469 C 86.753906 22.679688 90.238281 19.195312 94.539062 19.195312 C 98.582031 19.195312 101.902344 22.273438 102.285156 26.214844 C 128.511719 33.417969 148.417969 55.199219 153.125 82.09375 C 154.824219 91.800781 154.464844 101.753906 152.121094 111.277344 Z M 154.835938 108.957031 " fill-opacity="1" fill-rule="evenodd"/></g></svg>