<svg xmlns="http://www.w3.org/2000/svg" xmlns:xlink="http://www.w3.org/1999/xlink" width="256" zoomAndPan="magnify" viewBox="0 0 192 191.999996" height="256" preserveAspectRatio="xMidYMid meet" version="1.0"><defs><clipPath id="26c91c5f68"><path d="M 37 23.59375 L 154 23.59375 L 154 159 L 37 159 Z M 37 23.59375 " clip-rule="nonzero"/></clipPath></defs><path fill="#f3cabe" d="M 38.046875 192.261719 L 38.070312 179.558594 C 37.886719 177.992188 38.902344 162.703125 38.902344 162.703125 L 60.503906 164.253906 L 60.503906 192.214844 Z M 38.046875 192.261719 " fill-opacity="1" fill-rule="nonzero"/><path fill="#f3cabe" d="M 132.671875 192.261719 L 131.796875 166.609375 C 131.796875 165.335938 131.859375 164.925781 131.859375 164.925781 L 152.25 164.554688 L 152.839844 192.265625 Z M 132.671875 192.261719 " fill-opacity="1" fill-rule="nonzero"/><path fill="#c06363" d="M 47.660156 171.300781 C 47.660156 171.300781 41.832031 179.183594 38.070312 188.886719 C 39.886719 184.902344 46.355469 175.667969 47.660156 171.300781 Z M 47.660156 171.300781 " fill-opacity="1" fill-rule="nonzero"/><path fill="#c06363" d="M 132.84375 176.058594 C 132.84375 176.058594 136.625 182.570312 142.828125 189.082031 C 140.40625 186.375 135.292969 178.738281 132.84375 176.058594 Z M 132.84375 176.058594 " fill-opacity="1" fill-rule="nonzero"/><path fill="#9a3232" d="M 132.84375 172.417969 C 132.84375 172.417969 136.863281 178.027344 142.828125 184.410156 C 140.40625 181.910156 135.8125 174.71875 132.84375 172.417969 Z M 132.84375 172.417969 " fill-opacity="1" fill-rule="nonzero"/><path fill="#9a5454" d="M 145.605469 177.199219 L 145.535156 177.171875 C 148.414062 168.980469 151.820312 165.527344 151.859375 165.496094 L 151.980469 165.375 L 151.925781 165.539062 C 151.203125 167.496094 149.839844 169.75 148.515625 171.929688 C 147.351562 173.828125 146.257812 175.636719 145.605469 177.199219 Z M 145.605469 177.199219 " fill-opacity="1" fill-rule="nonzero"/><path fill="#9a3232" d="M 134.144531 187.171875 L 134.066406 187.164062 C 134.328125 179.320312 136.789062 172.46875 136.816406 172.398438 L 136.933594 172.085938 L 136.886719 172.417969 C 136.6875 173.96875 136.164062 176.488281 135.609375 179.152344 C 134.972656 182.222656 134.316406 185.394531 134.144531 187.171875 Z M 134.144531 187.171875 " fill-opacity="1" fill-rule="nonzero"/><g clip-path="url(#26c91c5f68)"><path fill="#021b23" d="M 63.90625 52.691406 C 68.5625 32.023438 77.875 23.691406 94.613281 23.671875 C 100.832031 23.664062 105.007812 24.203125 109.542969 26.335938 C 116.285156 29.511719 122.6875 36.789062 124.722656 43.980469 C 127.613281 54.191406 128.339844 56.269531 130.707031 66.433594 C 133.203125 77.140625 140.25 76.347656 142.664062 90.191406 C 143.757812 96.457031 143.878906 108.070312 147.804688 113.070312 C 156.003906 123.496094 153.625 133.757812 152.621094 137.425781 C 149.578125 148.492188 127.527344 149.253906 112.128906 153.503906 C 90.1875 159.5625 67.25 161.097656 57.136719 155.015625 C 46.941406 148.882812 38.601562 147.601562 37.527344 132.847656 C 36.003906 111.9375 51.382812 106.480469 50.53125 99.386719 C 49.515625 90.910156 50.222656 80.882812 57.332031 69.488281 C 61.25 63.183594 62.996094 56.703125 63.90625 52.691406 Z M 63.90625 52.691406 " fill-opacity="1" fill-rule="nonzero"/></g><path fill="#e0a497" d="M 109.039062 86.0625 C 105.015625 94.296875 105.621094 104.355469 114.390625 110.066406 C 103.582031 121.390625 81.75 119.210938 76.859375 108.566406 C 83.714844 102.753906 85.632812 90.394531 80.988281 85.34375 C 90.15625 95.304688 99.71875 96.8125 109.039062 86.0625 Z M 109.039062 86.0625 " fill-opacity="1" fill-rule="nonzero"/><path fill="#f3cabe" d="M 116.675781 60.824219 C 115.945312 58.144531 114.441406 55.832031 114.390625 55.75 C 108.597656 46.007812 106.652344 40.246094 104.613281 40.179688 C 99.214844 40.019531 99.671875 40.585938 89.527344 40.1875 C 85.027344 40.007812 77.953125 53.839844 75.574219 61.214844 C 75.097656 60.875 74.574219 60.691406 74.019531 60.691406 C 71.972656 60.691406 70.316406 63.234375 70.316406 66.367188 C 70.316406 69.503906 71.972656 72.046875 74.019531 72.046875 C 74.554688 72.046875 75.066406 71.875 75.527344 71.554688 C 77.632812 82.800781 82.878906 96.546875 99.820312 94.066406 C 108.15625 92.851562 110.808594 84 113.769531 78.25 C 114.386719 77.066406 115.152344 74.308594 115.722656 72.070312 C 115.914062 72.117188 116.113281 72.144531 116.308594 72.144531 C 118.355469 72.144531 120.011719 69.597656 120.011719 66.464844 C 120 63.535156 118.542969 61.113281 116.675781 60.824219 Z M 116.675781 60.824219 " fill-opacity="1" fill-rule="nonzero"/><path fill="#9c71b4" d="M 110.363281 63.613281 C 110.363281 66.527344 108.027344 68.273438 105.140625 68.273438 C 100.8125 68.273438 99.921875 66.527344 99.921875 63.613281 C 99.921875 60.695312 102.511719 58.050781 105.140625 59.242188 C 110.363281 61.605469 110.363281 60.695312 110.363281 63.613281 Z M 110.363281 63.613281 " fill-opacity="1" fill-rule="nonzero"/><path fill="#231815" d="M 88.382812 63.613281 C 88.382812 63.882812 88.339844 64.144531 88.25 64.390625 C 88.15625 64.640625 88.027344 64.863281 87.863281 65.054688 C 87.695312 65.246094 87.5 65.390625 87.28125 65.496094 C 87.0625 65.597656 86.835938 65.652344 86.601562 65.652344 C 86.363281 65.652344 86.136719 65.597656 85.917969 65.496094 C 85.699219 65.390625 85.503906 65.246094 85.335938 65.054688 C 85.171875 64.863281 85.042969 64.640625 84.949219 64.390625 C 84.859375 64.144531 84.816406 63.882812 84.816406 63.613281 C 84.816406 63.34375 84.859375 63.082031 84.949219 62.832031 C 85.042969 62.582031 85.171875 62.363281 85.335938 62.171875 C 85.503906 61.980469 85.699219 61.832031 85.917969 61.730469 C 86.136719 61.625 86.363281 61.574219 86.601562 61.574219 C 86.835938 61.574219 87.0625 61.625 87.28125 61.730469 C 87.5 61.832031 87.695312 61.980469 87.863281 62.171875 C 88.027344 62.363281 88.15625 62.582031 88.25 62.832031 C 88.339844 63.082031 88.382812 63.34375 88.382812 63.613281 Z M 88.382812 63.613281 " fill-opacity="1" fill-rule="nonzero"/><path fill="#231815" d="M 106.984375 63.613281 C 106.984375 64.742188 106.160156 65.652344 105.140625 65.652344 C 104.125 65.652344 103.300781 64.742188 103.300781 63.613281 C 103.300781 62.484375 104.125 61.574219 105.140625 61.574219 C 106.160156 61.574219 106.984375 62.484375 106.984375 63.613281 Z M 106.984375 63.613281 " fill-opacity="1" fill-rule="nonzero"/><path fill="#231815" d="M 95.996094 73.757812 C 95.808594 73.757812 95.617188 73.695312 95.464844 73.566406 C 95.082031 73.246094 94.601562 72.839844 94.238281 72.207031 C 93.816406 71.484375 93.636719 70.574219 93.757812 69.769531 C 93.847656 69.15625 94.089844 68.6875 94.308594 68.273438 C 94.359375 68.167969 94.410156 68.078125 94.453125 67.984375 C 95.015625 66.824219 95.242188 65.1875 95.050781 63.722656 C 94.992188 63.265625 95.304688 62.851562 95.757812 62.785156 C 96.214844 62.726562 96.628906 63.042969 96.691406 63.496094 C 96.9375 65.304688 96.65625 67.253906 95.945312 68.707031 C 95.886719 68.824219 95.835938 68.933594 95.777344 69.035156 C 95.597656 69.375 95.445312 69.667969 95.402344 70.007812 C 95.335938 70.4375 95.445312 70.96875 95.675781 71.367188 C 95.894531 71.746094 96.207031 72.007812 96.539062 72.285156 C 96.890625 72.578125 96.9375 73.105469 96.640625 73.457031 C 96.460938 73.660156 96.230469 73.757812 95.996094 73.757812 Z M 95.996094 73.757812 " fill-opacity="1" fill-rule="nonzero"/><path fill="#231815" d="M 108.078125 58.644531 C 108.007812 58.644531 107.945312 58.632812 107.875 58.613281 C 106.816406 58.261719 105.820312 58.054688 104.855469 57.855469 C 103.152344 57.503906 101.6875 57.203125 100.574219 56.234375 C 100.308594 56 100.273438 55.589844 100.511719 55.320312 C 100.75 55.050781 101.15625 55.019531 101.425781 55.253906 C 102.285156 56 103.59375 56.269531 105.117188 56.582031 C 106.070312 56.78125 107.15625 57.003906 108.28125 57.375 C 108.621094 57.492188 108.808594 57.855469 108.691406 58.195312 C 108.601562 58.472656 108.347656 58.644531 108.078125 58.644531 Z M 108.078125 58.644531 " fill-opacity="1" fill-rule="nonzero"/><path fill="#231815" d="M 82.371094 58.644531 C 82.097656 58.644531 81.847656 58.472656 81.757812 58.195312 C 81.640625 57.855469 81.828125 57.492188 82.167969 57.375 C 83.292969 57.003906 84.378906 56.78125 85.332031 56.582031 C 86.855469 56.269531 88.167969 55.992188 89.023438 55.253906 C 89.292969 55.019531 89.703125 55.050781 89.9375 55.320312 C 90.175781 55.589844 90.144531 56 89.875 56.234375 C 88.761719 57.195312 87.296875 57.503906 85.59375 57.855469 C 84.628906 58.054688 83.632812 58.261719 82.578125 58.613281 C 82.511719 58.640625 82.441406 58.644531 82.371094 58.644531 Z M 82.371094 58.644531 " fill-opacity="1" fill-rule="nonzero"/><path fill="#bc4d33" d="M 60.152344 164.636719 L 60.152344 192.203125 C 78.105469 192.152344 111.78125 192.273438 132.996094 192.261719 L 132.199219 165.277344 L 152.261719 164.914062 C 152.839844 128.492188 143.199219 110.351562 112.992188 109.046875 C 108.859375 119.3125 84.636719 119.792969 77.707031 107.789062 C 49.269531 113.492188 39.753906 117.5 38.773438 163.003906 Z M 60.152344 164.636719 " fill-opacity="1" fill-rule="nonzero"/><path fill="#d81500" d="M 88.613281 91.0625 C 87.957031 91.0625 87.289062 90.785156 86.816406 90.261719 C 85.914062 89.265625 85.992188 87.730469 86.984375 86.824219 L 101.746094 73.375 C 102.738281 72.46875 104.273438 72.546875 105.175781 73.539062 C 106.078125 74.535156 106 76.070312 105.007812 76.976562 L 90.246094 90.425781 C 89.777344 90.855469 89.195312 91.0625 88.613281 91.0625 Z M 88.613281 91.0625 " fill-opacity="1" fill-rule="nonzero"/><path fill="#d81500" d="M 103.378906 91.0625 C 102.796875 91.0625 102.210938 90.855469 101.746094 90.425781 L 86.984375 76.976562 C 85.992188 76.070312 85.914062 74.535156 86.816406 73.539062 C 87.71875 72.546875 89.253906 72.46875 90.246094 73.375 L 105.007812 86.824219 C 106 87.730469 106.078125 89.265625 105.175781 90.261719 C 104.6875 90.800781 104.035156 91.0625 103.378906 91.0625 Z M 103.378906 91.0625 " fill-opacity="1" fill-rule="nonzero"/></svg>