<svg xmlns="http://www.w3.org/2000/svg" xmlns:xlink="http://www.w3.org/1999/xlink" width="256" zoomAndPan="magnify" viewBox="0 0 192 191.999996" height="256" preserveAspectRatio="xMidYMid meet" version="1.0"><defs><clipPath id="cbe4a75d6e"><path d="M 130 49.792969 L 151 49.792969 L 151 71 L 130 71 Z M 130 49.792969 " clip-rule="nonzero"/></clipPath><clipPath id="0407651956"><path d="M 147 110 L 172.476562 110 L 172.476562 152.542969 L 147 152.542969 Z M 147 110 " clip-rule="nonzero"/></clipPath><clipPath id="d20ae5378b"><path d="M 85 70 L 164 70 L 164 152.542969 L 85 152.542969 Z M 85 70 " clip-rule="nonzero"/></clipPath><clipPath id="8b7daae6cb"><path d="M 14 70 L 84 70 L 84 152.542969 L 14 152.542969 Z M 14 70 " clip-rule="nonzero"/></clipPath><clipPath id="27161b6c02"><path d="M 27 49.792969 L 48 49.792969 L 48 71 L 27 71 Z M 27 49.792969 " clip-rule="nonzero"/></clipPath><clipPath id="3942a7bfcc"><path d="M 5.226562 110 L 31 110 L 31 152.542969 L 5.226562 152.542969 Z M 5.226562 110 " clip-rule="nonzero"/></clipPath></defs><g clip-path="url(#cbe4a75d6e)"><path fill="#e61f93" d="M 150.867188 59.925781 C 150.867188 60.589844 150.800781 61.25 150.671875 61.902344 C 150.542969 62.554688 150.351562 63.1875 150.097656 63.800781 C 149.84375 64.414062 149.53125 65 149.160156 65.550781 C 148.789062 66.105469 148.371094 66.617188 147.902344 67.085938 C 147.429688 67.558594 146.917969 67.976562 146.367188 68.347656 C 145.8125 68.71875 145.230469 69.027344 144.613281 69.285156 C 144 69.539062 143.367188 69.730469 142.714844 69.859375 C 142.0625 69.988281 141.402344 70.054688 140.738281 70.054688 C 140.074219 70.054688 139.414062 69.988281 138.761719 69.859375 C 138.109375 69.730469 137.476562 69.539062 136.863281 69.285156 C 136.246094 69.027344 135.664062 68.71875 135.109375 68.347656 C 134.558594 67.976562 134.046875 67.558594 133.574219 67.085938 C 133.105469 66.617188 132.683594 66.105469 132.316406 65.550781 C 131.945312 65 131.632812 64.414062 131.378906 63.800781 C 131.125 63.1875 130.933594 62.554688 130.804688 61.902344 C 130.671875 61.25 130.609375 60.589844 130.609375 59.925781 C 130.609375 59.261719 130.671875 58.601562 130.804688 57.949219 C 130.933594 57.296875 131.125 56.664062 131.378906 56.046875 C 131.632812 55.433594 131.945312 54.851562 132.316406 54.296875 C 132.683594 53.746094 133.105469 53.234375 133.574219 52.761719 C 134.046875 52.292969 134.558594 51.871094 135.109375 51.503906 C 135.664062 51.132812 136.246094 50.820312 136.863281 50.566406 C 137.476562 50.3125 138.109375 50.121094 138.761719 49.988281 C 139.414062 49.859375 140.074219 49.796875 140.738281 49.796875 C 141.402344 49.796875 142.0625 49.859375 142.714844 49.988281 C 143.367188 50.121094 144 50.3125 144.613281 50.566406 C 145.230469 50.820312 145.8125 51.132812 146.367188 51.503906 C 146.917969 51.871094 147.429688 52.292969 147.902344 52.761719 C 148.371094 53.234375 148.789062 53.746094 149.160156 54.296875 C 149.53125 54.851562 149.84375 55.433594 150.097656 56.046875 C 150.351562 56.664062 150.542969 57.296875 150.671875 57.949219 C 150.800781 58.601562 150.867188 59.261719 150.867188 59.925781 Z M 150.867188 59.925781 " fill-opacity="1" fill-rule="nonzero"/></g><g clip-path="url(#0407651956)"><path fill="#e61f93" d="M 147.460938 129.402344 C 147.402344 130.714844 147.804688 132.007812 148.601562 133.058594 L 161.925781 150.597656 C 163.035156 152.054688 164.710938 152.820312 166.410156 152.820312 C 167.597656 152.820312 168.792969 152.445312 169.8125 151.671875 C 172.285156 149.792969 172.769531 146.261719 170.886719 143.785156 L 158.792969 127.867188 L 159.550781 110.851562 L 147.8125 121.410156 Z M 147.460938 129.402344 " fill-opacity="1" fill-rule="nonzero"/></g><g clip-path="url(#d20ae5378b)"><path fill="#e61f93" d="M 148.285156 70.695312 C 147.164062 70.976562 146.230469 71.628906 145.496094 72.523438 C 145.257812 72.710938 145.035156 72.925781 144.839844 73.179688 L 138.65625 81.257812 L 138.65625 75.097656 C 138.65625 74.253906 138.074219 73.523438 137.25 73.339844 C 135.300781 72.902344 130.488281 71.882812 127.859375 71.882812 C 125.964844 71.882812 124.703125 72.023438 123.765625 72.339844 C 121.691406 73.035156 121.464844 74.589844 121.464844 75.226562 C 121.464844 75.832031 121.617188 76.492188 121.929688 77.242188 C 122.519531 78.65625 123.199219 80.476562 123.199219 82.027344 C 123.199219 82.527344 123.125 82.960938 122.980469 83.335938 L 116.089844 81.285156 C 115.117188 80.996094 114.125 81.136719 113.304688 81.59375 C 113.414062 80.144531 114.011719 78.527344 114.546875 77.246094 C 114.863281 76.492188 115.015625 75.832031 115.015625 75.226562 C 115.015625 74.589844 114.789062 73.035156 112.714844 72.339844 C 111.78125 72.023438 110.519531 71.882812 108.625 71.882812 C 106.15625 71.882812 101.800781 72.769531 99.421875 73.296875 C 98.953125 73.398438 98.546875 73.683594 98.292969 74.089844 C 98.035156 74.492188 97.949219 74.980469 98.054688 75.445312 C 98.914062 79.300781 99.425781 82.605469 99.425781 84.285156 C 99.425781 85.4375 99.425781 88.132812 98.449219 88.785156 C 98.339844 88.855469 98.15625 88.953125 97.816406 88.953125 C 97.449219 88.953125 96.976562 88.835938 96.457031 88.621094 C 94.894531 87.96875 92.863281 87.226562 91 87.226562 C 89.925781 87.226562 89 87.476562 88.25 87.976562 C 86.734375 88.992188 85.964844 90.984375 85.964844 93.902344 C 85.964844 96.820312 86.734375 98.816406 88.253906 99.828125 C 89 100.328125 89.925781 100.582031 91.003906 100.582031 C 92.863281 100.582031 94.894531 99.835938 96.453125 99.1875 C 96.976562 98.96875 97.445312 98.851562 97.816406 98.851562 C 98.15625 98.851562 98.339844 98.949219 98.449219 99.019531 C 99.425781 99.671875 99.425781 102.367188 99.425781 103.519531 C 99.425781 105.878906 98.503906 110.328125 98.105469 112.128906 C 97.988281 112.664062 98.117188 113.21875 98.460938 113.644531 C 98.800781 114.070312 99.316406 114.320312 99.863281 114.320312 L 128.480469 114.320312 C 128.460938 113.707031 128.5625 113.09375 128.777344 112.519531 L 99.863281 112.519531 C 100.324219 110.425781 101.226562 106.011719 101.226562 103.519531 C 101.226562 101.191406 101.089844 98.617188 99.445312 97.523438 C 98.976562 97.207031 98.429688 97.050781 97.816406 97.050781 C 97.199219 97.050781 96.515625 97.210938 95.761719 97.523438 C 94.34375 98.113281 92.515625 98.78125 91.003906 98.78125 C 90.335938 98.78125 89.730469 98.652344 89.25 98.328125 C 88.265625 97.671875 87.765625 96.183594 87.765625 93.902344 C 87.765625 91.625 88.265625 90.132812 89.25 89.476562 C 89.730469 89.15625 90.335938 89.027344 91 89.027344 C 92.515625 89.027344 94.34375 89.691406 95.761719 90.28125 C 96.515625 90.59375 97.203125 90.753906 97.816406 90.753906 C 98.433594 90.753906 98.976562 90.597656 99.445312 90.28125 C 101.089844 89.1875 101.226562 86.613281 101.226562 84.285156 C 101.226562 81.695312 100.253906 77.035156 99.8125 75.054688 C 101.738281 74.628906 106.246094 73.6875 108.625 73.6875 C 111.882812 73.6875 113.214844 74.132812 113.214844 75.226562 C 113.214844 75.585938 113.105469 76.03125 112.886719 76.550781 C 112.234375 78.117188 111.484375 80.160156 111.484375 82.027344 C 111.484375 84.363281 112.65625 87.148438 118.242188 87.148438 C 120.59375 87.148438 122.296875 86.675781 123.445312 85.703125 C 124.476562 84.832031 125 83.59375 125 82.027344 C 125 80.15625 124.246094 78.117188 123.59375 76.550781 C 123.378906 76.03125 123.265625 75.585938 123.265625 75.226562 C 123.265625 74.132812 124.597656 73.6875 127.859375 73.6875 C 130.3125 73.6875 135.050781 74.691406 136.855469 75.097656 L 136.855469 104.6875 L 138.65625 103.109375 L 138.65625 93.105469 C 138.660156 93.101562 138.664062 93.101562 138.664062 93.097656 L 144.773438 85.121094 C 145.039062 86.433594 145.308594 87.8125 145.558594 89.238281 C 145.613281 89.53125 145.664062 89.832031 145.714844 90.132812 L 147.195312 80.660156 C 147.554688 78.34375 149.515625 76.664062 151.859375 76.664062 C 152.101562 76.664062 152.351562 76.683594 152.59375 76.722656 C 155.167969 77.125 156.9375 79.546875 156.535156 82.121094 L 153.5625 101.152344 C 153.390625 102.246094 152.839844 103.25 152.007812 103.980469 L 136.320312 117.734375 C 135.457031 118.488281 134.351562 118.90625 133.203125 118.90625 C 132.882812 118.90625 132.566406 118.871094 132.257812 118.808594 C 131.703125 119.433594 131.292969 120.175781 131.0625 120.988281 L 124.023438 145.667969 C 123.171875 148.65625 124.90625 151.769531 127.894531 152.621094 C 128.410156 152.769531 128.929688 152.839844 129.4375 152.839844 C 131.890625 152.839844 134.144531 151.226562 134.847656 148.753906 L 141.441406 125.628906 L 159.507812 109.375 C 159.851562 109.066406 160.140625 108.722656 160.390625 108.359375 C 161.34375 107.199219 162.097656 105.605469 162.523438 103.414062 C 163.351562 96.304688 163.25 91.257812 162.027344 85.675781 C 161.53125 83.402344 160.851562 81.042969 159.964844 78.417969 C 157.699219 71.824219 152.128906 69.738281 148.285156 70.695312 Z M 148.285156 70.695312 " fill-opacity="1" fill-rule="nonzero"/></g><g clip-path="url(#8b7daae6cb)"><path fill="#e61f93" d="M 81.96875 112.910156 C 82.511719 110.484375 83.421875 106.042969 83.421875 103.519531 C 83.421875 101.042969 83.210938 98.609375 81.675781 97.585938 C 81.222656 97.28125 80.683594 97.128906 80.082031 97.128906 C 79.484375 97.128906 78.804688 97.285156 78.0625 97.59375 C 76.761719 98.136719 74.851562 98.855469 73.269531 98.855469 C 72.53125 98.855469 71.949219 98.703125 71.480469 98.394531 C 70.222656 97.554688 69.960938 95.488281 69.960938 93.902344 C 69.960938 92.316406 70.222656 90.25 71.480469 89.410156 C 71.949219 89.101562 72.53125 88.949219 73.269531 88.949219 C 74.851562 88.949219 76.765625 89.667969 78.066406 90.210938 C 78.804688 90.519531 79.484375 90.675781 80.082031 90.675781 C 80.683594 90.675781 81.222656 90.523438 81.675781 90.21875 C 83.210938 89.195312 83.421875 86.761719 83.421875 84.285156 C 83.421875 81.621094 82.382812 76.71875 81.933594 74.734375 C 81.78125 74.058594 81.253906 73.527344 80.574219 73.375 C 78.589844 72.925781 73.691406 71.886719 71.023438 71.886719 C 69.128906 71.886719 67.867188 72.023438 66.929688 72.339844 C 64.855469 73.035156 64.628906 74.589844 64.628906 75.226562 C 64.628906 75.832031 64.78125 76.492188 65.097656 77.246094 C 65.6875 78.65625 66.363281 80.476562 66.363281 82.027344 C 66.363281 82.523438 66.292969 82.914062 66.1875 83.234375 C 65.449219 81.628906 63.628906 80.765625 61.890625 81.285156 L 56.511719 82.886719 C 56.449219 82.558594 56.449219 82.257812 56.449219 82.027344 C 56.449219 80.476562 57.125 78.65625 57.714844 77.246094 C 58.027344 76.492188 58.179688 75.832031 58.179688 75.226562 C 58.179688 74.589844 57.957031 73.035156 55.878906 72.339844 C 54.945312 72.023438 53.683594 71.886719 51.789062 71.886719 C 49.261719 71.886719 44.820312 72.796875 42.398438 73.339844 C 41.574219 73.523438 40.988281 74.253906 40.988281 75.097656 L 40.988281 83.433594 L 33.140625 73.179688 C 32.945312 72.929688 32.722656 72.710938 32.484375 72.527344 C 31.75 71.628906 30.816406 70.976562 29.695312 70.695312 C 25.851562 69.738281 20.28125 71.824219 18.015625 78.417969 C 16.753906 82.15625 15.90625 85.359375 15.417969 88.527344 C 14.722656 93.058594 14.773438 97.53125 15.457031 103.414062 C 15.882812 105.605469 16.636719 107.199219 17.589844 108.359375 C 17.839844 108.722656 18.128906 109.066406 18.472656 109.375 L 36.539062 125.628906 L 43.132812 148.753906 C 43.835938 151.226562 46.089844 152.839844 48.542969 152.839844 C 49.050781 152.839844 49.570312 152.769531 50.085938 152.621094 C 53.074219 151.769531 54.808594 148.65625 53.957031 145.667969 L 46.917969 120.988281 C 46.6875 120.175781 46.277344 119.433594 45.722656 118.808594 C 45.414062 118.871094 45.097656 118.90625 44.777344 118.90625 C 43.628906 118.90625 42.523438 118.488281 41.660156 117.734375 L 25.972656 103.980469 C 25.144531 103.25 24.589844 102.246094 24.417969 101.15625 L 21.445312 82.121094 C 21.042969 79.546875 22.8125 77.125 25.386719 76.722656 C 25.628906 76.683594 25.878906 76.664062 26.125 76.664062 C 28.464844 76.664062 30.425781 78.34375 30.785156 80.660156 L 32.265625 90.132812 C 32.292969 89.980469 32.316406 89.828125 32.34375 89.675781 C 32.617188 88.097656 32.917969 86.566406 33.207031 85.121094 L 39.316406 93.097656 C 39.753906 93.667969 40.339844 94.082031 40.988281 94.308594 L 40.988281 104.570312 L 42.789062 106.148438 L 42.789062 75.097656 C 44.59375 74.691406 49.332031 73.6875 51.789062 73.6875 C 55.050781 73.6875 56.378906 74.132812 56.378906 75.226562 C 56.378906 75.585938 56.269531 76.03125 56.050781 76.550781 C 55.398438 78.117188 54.648438 80.160156 54.648438 82.027344 C 54.648438 84.363281 55.820312 87.148438 61.40625 87.148438 C 63.757812 87.148438 65.460938 86.675781 66.609375 85.703125 C 67.640625 84.832031 68.164062 83.59375 68.164062 82.027344 C 68.164062 80.15625 67.414062 78.117188 66.757812 76.550781 C 66.542969 76.03125 66.429688 75.585938 66.429688 75.226562 C 66.429688 74.132812 67.761719 73.6875 71.023438 73.6875 C 73.550781 73.6875 78.503906 74.753906 80.175781 75.132812 C 80.554688 76.804688 81.621094 81.753906 81.621094 84.285156 C 81.621094 85.328125 81.621094 88.089844 80.675781 88.71875 C 80.511719 88.832031 80.304688 88.875 80.082031 88.875 C 79.652344 88.875 79.15625 88.714844 78.757812 88.546875 C 77.058594 87.839844 75.078125 87.148438 73.269531 87.148438 C 72.261719 87.148438 71.304688 87.363281 70.480469 87.914062 C 68.941406 88.941406 68.160156 90.957031 68.160156 93.902344 C 68.160156 96.847656 68.941406 98.863281 70.480469 99.890625 C 71.304688 100.441406 72.261719 100.65625 73.269531 100.65625 C 75.078125 100.65625 77.058594 99.964844 78.757812 99.257812 C 79.15625 99.089844 79.652344 98.929688 80.082031 98.929688 C 80.304688 98.929688 80.511719 98.972656 80.675781 99.085938 C 81.621094 99.714844 81.621094 102.480469 81.621094 103.519531 C 81.621094 105.976562 80.617188 110.714844 80.210938 112.519531 L 49.203125 112.519531 C 49.417969 113.09375 49.519531 113.707031 49.5 114.320312 L 80.210938 114.320312 C 81.054688 114.320312 81.785156 113.734375 81.96875 112.910156 Z M 81.96875 112.910156 " fill-opacity="1" fill-rule="nonzero"/></g><g clip-path="url(#27161b6c02)"><path fill="#e61f93" d="M 47.371094 59.925781 C 47.371094 60.589844 47.308594 61.25 47.175781 61.902344 C 47.046875 62.554688 46.855469 63.1875 46.601562 63.800781 C 46.347656 64.414062 46.035156 65 45.664062 65.550781 C 45.296875 66.105469 44.875 66.617188 44.40625 67.085938 C 43.933594 67.558594 43.421875 67.976562 42.871094 68.347656 C 42.316406 68.71875 41.734375 69.027344 41.117188 69.285156 C 40.503906 69.539062 39.871094 69.730469 39.21875 69.859375 C 38.566406 69.988281 37.90625 70.054688 37.242188 70.054688 C 36.578125 70.054688 35.917969 69.988281 35.265625 69.859375 C 34.613281 69.730469 33.980469 69.539062 33.367188 69.285156 C 32.75 69.027344 32.167969 68.71875 31.613281 68.347656 C 31.0625 67.976562 30.550781 67.558594 30.078125 67.085938 C 29.609375 66.617188 29.191406 66.105469 28.820312 65.550781 C 28.449219 65 28.136719 64.414062 27.882812 63.800781 C 27.628906 63.1875 27.4375 62.554688 27.308594 61.902344 C 27.175781 61.25 27.113281 60.589844 27.113281 59.925781 C 27.113281 59.261719 27.175781 58.601562 27.308594 57.949219 C 27.4375 57.296875 27.628906 56.664062 27.882812 56.046875 C 28.136719 55.433594 28.449219 54.851562 28.820312 54.296875 C 29.191406 53.746094 29.609375 53.234375 30.078125 52.761719 C 30.550781 52.292969 31.0625 51.871094 31.613281 51.503906 C 32.167969 51.132812 32.75 50.820312 33.367188 50.566406 C 33.980469 50.3125 34.613281 50.121094 35.265625 49.988281 C 35.917969 49.859375 36.578125 49.796875 37.242188 49.796875 C 37.90625 49.796875 38.566406 49.859375 39.21875 49.988281 C 39.871094 50.121094 40.503906 50.3125 41.117188 50.566406 C 41.734375 50.820312 42.316406 51.132812 42.871094 51.503906 C 43.421875 51.871094 43.933594 52.292969 44.40625 52.761719 C 44.875 53.234375 45.296875 53.746094 45.664062 54.296875 C 46.035156 54.851562 46.347656 55.433594 46.601562 56.046875 C 46.855469 56.664062 47.046875 57.296875 47.175781 57.949219 C 47.308594 58.601562 47.371094 59.261719 47.371094 59.925781 Z M 47.371094 59.925781 " fill-opacity="1" fill-rule="nonzero"/></g><g clip-path="url(#3942a7bfcc)"><path fill="#e61f93" d="M 19.1875 127.867188 L 7.09375 143.785156 C 5.210938 146.261719 5.695312 149.792969 8.167969 151.671875 C 9.1875 152.445312 10.382812 152.820312 11.570312 152.820312 C 13.265625 152.820312 14.945312 152.054688 16.054688 150.597656 L 29.378906 133.058594 C 30.175781 132.007812 30.578125 130.714844 30.519531 129.402344 L 30.167969 121.410156 L 18.429688 110.851562 Z M 19.1875 127.867188 " fill-opacity="1" fill-rule="nonzero"/></g><path fill="#e61f93" d="M 47.152344 111.46875 L 32.445312 98.578125 L 29.675781 80.835938 C 29.367188 78.871094 27.53125 77.523438 25.558594 77.832031 C 23.59375 78.140625 22.25 79.984375 22.558594 81.949219 L 25.53125 100.980469 C 25.664062 101.816406 26.082031 102.574219 26.714844 103.132812 L 42.402344 116.886719 C 43.085938 117.484375 43.933594 117.78125 44.777344 117.78125 C 45.777344 117.78125 46.773438 117.363281 47.484375 116.554688 C 48.796875 115.058594 48.648438 112.78125 47.152344 111.46875 Z M 47.152344 111.46875 " fill-opacity="1" fill-rule="nonzero"/><path fill="#e61f93" d="M 133.203125 117.78125 C 134.046875 117.78125 134.894531 117.484375 135.578125 116.886719 L 151.265625 103.132812 C 151.898438 102.574219 152.316406 101.816406 152.449219 100.980469 L 155.421875 81.949219 C 155.730469 79.984375 154.386719 78.140625 152.421875 77.832031 C 150.453125 77.523438 148.613281 78.871094 148.304688 80.835938 L 145.535156 98.578125 L 130.828125 111.46875 C 129.332031 112.78125 129.183594 115.058594 130.496094 116.550781 C 131.207031 117.363281 132.203125 117.78125 133.203125 117.78125 Z M 133.203125 117.78125 " fill-opacity="1" fill-rule="nonzero"/></svg>