<svg xmlns="http://www.w3.org/2000/svg" xmlns:xlink="http://www.w3.org/1999/xlink" width="250" zoomAndPan="magnify" viewBox="0 0 187.5 56.249996" height="75" preserveAspectRatio="xMidYMid meet" version="1.0"><defs><g/><clipPath id="4fda192a83"><path d="M 1.542969 7.40625 L 43.289062 7.40625 L 43.289062 54.859375 L 1.542969 54.859375 Z M 1.542969 7.40625 " clip-rule="nonzero"/></clipPath><clipPath id="7cbc1ab152"><path d="M 5.859375 7.40625 L 38.96875 7.40625 C 40.113281 7.40625 41.214844 7.863281 42.023438 8.671875 C 42.832031 9.480469 43.289062 10.578125 43.289062 11.726562 L 43.289062 50.386719 C 43.289062 51.53125 42.832031 52.628906 42.023438 53.4375 C 41.214844 54.25 40.113281 54.703125 38.96875 54.703125 L 5.859375 54.703125 C 4.714844 54.703125 3.617188 54.25 2.808594 53.4375 C 1.996094 52.628906 1.542969 51.53125 1.542969 50.386719 L 1.542969 11.726562 C 1.542969 10.578125 1.996094 9.480469 2.808594 8.671875 C 3.617188 7.863281 4.714844 7.40625 5.859375 7.40625 Z M 5.859375 7.40625 " clip-rule="nonzero"/></clipPath><clipPath id="267669bc87"><path d="M 11 12.257812 L 34 12.257812 L 34 34 L 11 34 Z M 11 12.257812 " clip-rule="nonzero"/></clipPath><clipPath id="4a062d9d5a"><path d="M 12 23 L 34.761719 23 L 34.761719 35 L 12 35 Z M 12 23 " clip-rule="nonzero"/></clipPath><clipPath id="5d06b6d2c9"><path d="M 10.335938 22 L 21 22 L 21 30 L 10.335938 30 Z M 10.335938 22 " clip-rule="nonzero"/></clipPath><clipPath id="1ab0942efc"><path d="M 22 23 L 34.761719 23 L 34.761719 29 L 22 29 Z M 22 23 " clip-rule="nonzero"/></clipPath><clipPath id="954db06021"><path d="M 32 25 L 34.761719 25 L 34.761719 29 L 32 29 Z M 32 25 " clip-rule="nonzero"/></clipPath><clipPath id="961977e833"><path d="M 10.335938 22 L 22 22 L 22 29 L 10.335938 29 Z M 10.335938 22 " clip-rule="nonzero"/></clipPath><clipPath id="abb36a2b8d"><path d="M 10.335938 26 L 23 26 L 23 31 L 10.335938 31 Z M 10.335938 26 " clip-rule="nonzero"/></clipPath><clipPath id="2ac818bbee"><path d="M 10.335938 26 L 12 26 L 12 28 L 10.335938 28 Z M 10.335938 26 " clip-rule="nonzero"/></clipPath><clipPath id="f0268e7378"><path d="M 10.335938 26 L 13 26 L 13 29 L 10.335938 29 Z M 10.335938 26 " clip-rule="nonzero"/></clipPath></defs><g clip-path="url(#4fda192a83)"><g clip-path="url(#7cbc1ab152)"><path fill="#6b36aa" d="M 1.542969 7.40625 L 43.289062 7.40625 L 43.289062 54.699219 L 1.542969 54.699219 Z M 1.542969 7.40625 " fill-opacity="1" fill-rule="nonzero"/></g></g><g clip-path="url(#267669bc87)"><path fill="#ffffff" d="M 22.457031 16.246094 C 18.699219 16.246094 15.636719 19.304688 15.636719 23.066406 C 15.636719 26.824219 18.699219 29.882812 22.457031 29.882812 C 26.214844 29.882812 29.273438 26.824219 29.273438 23.066406 C 29.273438 19.304688 26.214844 16.246094 22.457031 16.246094 Z M 22.457031 33.871094 C 16.496094 33.871094 11.648438 29.023438 11.648438 23.066406 C 11.648438 17.105469 16.496094 12.257812 22.457031 12.257812 C 28.417969 12.257812 33.265625 17.105469 33.265625 23.066406 C 33.265625 29.023438 28.417969 33.871094 22.457031 33.871094 " fill-opacity="1" fill-rule="nonzero"/></g><path fill="#ffffff" d="M 24.453125 49.851562 L 20.460938 49.851562 L 20.460938 31.589844 L 24.453125 31.589844 L 24.453125 49.851562 " fill-opacity="1" fill-rule="nonzero"/><path fill="#ffffff" d="M 29.980469 42.785156 L 14.933594 42.785156 L 14.933594 38.792969 L 29.980469 38.792969 L 29.980469 42.785156 " fill-opacity="1" fill-rule="nonzero"/><path fill="#e61f93" d="M 11.402344 24.488281 C 11.363281 24.484375 11.332031 24.484375 11.300781 24.480469 C 11.296875 24.472656 11.296875 24.464844 11.292969 24.457031 C 11.328125 24.46875 11.363281 24.476562 11.402344 24.488281 " fill-opacity="1" fill-rule="nonzero"/><path fill="#ffffff" d="M 12.46875 24.644531 L 11.214844 24.585938 L 11.195312 24.507812 C 11.191406 24.5 11.191406 24.488281 11.1875 24.476562 L 11.152344 24.292969 L 11.328125 24.351562 C 11.359375 24.363281 11.394531 24.375 11.425781 24.382812 L 12.46875 24.644531 " fill-opacity="1" fill-rule="nonzero"/><g clip-path="url(#4a062d9d5a)"><path fill="#e61f93" d="M 14.722656 32.609375 C 15.167969 33.394531 15.710938 34.261719 16.566406 34.578125 C 17.402344 34.886719 18.34375 34.597656 19.230469 34.242188 C 20.1875 33.855469 21.207031 33.386719 22.355469 32.808594 C 22.816406 32.578125 23.28125 32.335938 23.742188 32.09375 C 23.765625 32.078125 23.789062 32.066406 23.8125 32.054688 C 24.296875 31.796875 24.777344 31.539062 25.25 31.285156 C 25.75 31.015625 26.25 30.75 26.75 30.484375 C 27.078125 30.3125 27.507812 30.085938 27.949219 29.859375 C 28.046875 29.8125 28.140625 29.765625 28.234375 29.71875 C 28.261719 29.703125 28.289062 29.691406 28.316406 29.675781 C 28.351562 29.660156 28.382812 29.644531 28.417969 29.628906 C 28.445312 29.617188 28.46875 29.601562 28.496094 29.589844 C 28.800781 29.449219 29.101562 29.324219 29.414062 29.234375 C 29.574219 29.191406 29.734375 29.15625 29.898438 29.128906 C 30.148438 29.082031 30.402344 29.046875 30.648438 29.011719 C 30.9375 28.972656 31.234375 28.933594 31.519531 28.875 C 31.714844 28.835938 31.910156 28.78125 32.105469 28.722656 L 32.117188 28.714844 C 32.632812 28.550781 33.117188 28.316406 33.5625 28.023438 L 33.585938 28.007812 C 33.730469 27.910156 33.910156 27.792969 33.953125 27.652344 C 33.976562 27.582031 33.96875 27.515625 33.9375 27.457031 C 33.898438 27.394531 33.832031 27.351562 33.761719 27.339844 C 33.679688 27.324219 33.671875 27.324219 33.652344 27.3125 C 33.597656 27.292969 33.574219 27.238281 33.585938 27.183594 C 33.601562 27.128906 33.65625 27.09375 33.710938 27.105469 C 33.855469 27.128906 34.046875 27.0625 34.175781 26.941406 C 34.25 26.871094 34.335938 26.753906 34.316406 26.585938 C 34.300781 26.476562 34.265625 26.402344 34.199219 26.351562 C 34.089844 26.269531 33.890625 26.253906 33.570312 26.304688 C 33.511719 26.3125 33.457031 26.273438 33.445312 26.214844 C 33.4375 26.15625 33.476562 26.101562 33.535156 26.089844 C 33.746094 26.050781 33.984375 25.992188 34.109375 25.796875 C 34.152344 25.734375 34.164062 25.660156 34.144531 25.582031 C 34.121094 25.476562 34.039062 25.375 33.933594 25.316406 C 33.820312 25.253906 33.769531 25.253906 33.617188 25.257812 L 33.5 25.257812 C 33.445312 25.257812 33.398438 25.214844 33.394531 25.160156 C 33.386719 25.105469 33.421875 25.054688 33.476562 25.042969 L 33.484375 25.042969 L 33.496094 25.039062 L 33.503906 25.039062 C 33.730469 24.988281 33.886719 24.886719 33.894531 24.78125 C 33.910156 24.574219 33.796875 24.46875 33.695312 24.421875 C 33.605469 24.378906 33.488281 24.359375 33.367188 24.367188 C 32.910156 24.40625 32.511719 24.597656 32.089844 24.804688 C 31.667969 25.007812 31.234375 25.222656 30.742188 25.261719 C 30.632812 25.269531 30.535156 25.21875 30.476562 25.128906 C 30.414062 25.035156 30.410156 24.917969 30.464844 24.824219 C 30.632812 24.507812 30.996094 24.359375 31.144531 24.3125 C 31.25 24.277344 31.347656 24.25 31.445312 24.226562 C 31.722656 24.148438 31.964844 24.085938 32.199219 23.851562 C 32.222656 23.824219 32.269531 23.773438 32.292969 23.746094 C 32.335938 23.6875 32.347656 23.628906 32.328125 23.578125 C 32.304688 23.515625 32.234375 23.472656 32.140625 23.453125 C 31.882812 23.410156 31.554688 23.453125 31.351562 23.5 C 30.34375 23.757812 29.710938 24.046875 29.050781 24.941406 C 28.886719 25.171875 28.742188 25.390625 28.605469 25.601562 C 28.421875 25.886719 28.230469 26.175781 27.992188 26.476562 C 27.863281 26.636719 27.714844 26.78125 27.535156 26.917969 C 27.175781 27.199219 26.757812 27.394531 26.472656 27.515625 C 25.28125 28.035156 23.683594 28.488281 22.402344 28.847656 L 22.234375 28.894531 C 20.6875 29.332031 19.09375 29.78125 17.882812 30.320312 C 17.867188 30.324219 17.855469 30.328125 17.839844 30.328125 L 17.828125 30.328125 C 17.8125 30.328125 17.796875 30.324219 17.785156 30.3125 C 17.476562 30.132812 17.1875 29.964844 16.90625 29.800781 C 16.8125 29.75 16.71875 29.695312 16.628906 29.644531 C 16.144531 29.367188 15.707031 29.128906 15.226562 28.96875 C 14.847656 28.839844 14.4375 28.765625 14.042969 28.695312 C 13.753906 28.640625 13.453125 28.589844 13.160156 28.511719 C 13.082031 28.492188 13.007812 28.46875 12.929688 28.449219 C 12.90625 28.441406 12.886719 28.433594 12.863281 28.425781 C 12.804688 28.410156 12.746094 28.390625 12.6875 28.367188 C 12.671875 28.363281 12.660156 28.359375 12.648438 28.355469 C 13.199219 29.726562 13.878906 31.117188 14.722656 32.609375 " fill-opacity="1" fill-rule="nonzero"/></g><g clip-path="url(#5d06b6d2c9)"><path fill="#e61f93" d="M 11.277344 26.703125 C 11.273438 26.75 11.46875 26.882812 12.144531 27.171875 C 12.816406 27.464844 13.59375 27.617188 14.277344 27.753906 C 14.710938 27.839844 15.121094 27.921875 15.453125 28.03125 C 16.148438 28.253906 17.425781 29.015625 17.902344 29.304688 C 18.535156 29.015625 19.890625 28.59375 20.914062 28.296875 C 19.996094 27.933594 19.078125 27.554688 18.316406 27.183594 C 18.011719 27.03125 17.621094 26.824219 17.292969 26.542969 C 17.117188 26.398438 16.96875 26.242188 16.847656 26.074219 C 16.621094 25.765625 16.445312 25.464844 16.277344 25.175781 C 16.148438 24.953125 16.011719 24.726562 15.855469 24.488281 C 15.238281 23.566406 14.621094 23.242188 13.621094 22.941406 C 13.421875 22.882812 13.097656 22.824219 12.835938 22.859375 C 12.742188 22.871094 12.671875 22.914062 12.644531 22.972656 C 12.621094 23.023438 12.632812 23.082031 12.671875 23.140625 C 12.695312 23.171875 12.738281 23.226562 12.761719 23.25 C 12.984375 23.496094 13.222656 23.574219 13.5 23.660156 C 13.59375 23.691406 13.691406 23.722656 13.792969 23.761719 C 13.9375 23.816406 14.296875 23.984375 14.453125 24.304688 C 14.5 24.402344 14.488281 24.519531 14.425781 24.609375 C 14.363281 24.695312 14.257812 24.742188 14.152344 24.726562 C 13.664062 24.664062 13.238281 24.433594 12.828125 24.210938 C 12.414062 23.984375 12.023438 23.773438 11.570312 23.710938 C 11.433594 23.695312 11.300781 23.714844 11.203125 23.769531 C 11.078125 23.835938 11.019531 23.949219 11.027344 24.101562 C 11.03125 24.191406 11.148438 24.289062 11.328125 24.351562 C 11.359375 24.363281 11.390625 24.375 11.425781 24.378906 C 11.480469 24.394531 11.515625 24.445312 11.507812 24.5 C 11.5 24.554688 11.453125 24.597656 11.398438 24.59375 C 11.359375 24.59375 11.324219 24.59375 11.292969 24.589844 C 11.132812 24.578125 11.078125 24.574219 10.960938 24.632812 C 10.855469 24.6875 10.769531 24.785156 10.738281 24.886719 C 10.714844 24.964844 10.722656 25.039062 10.761719 25.105469 C 10.882812 25.308594 11.117188 25.375 11.328125 25.425781 C 11.382812 25.4375 11.421875 25.496094 11.40625 25.554688 C 11.394531 25.613281 11.335938 25.648438 11.28125 25.636719 C 10.964844 25.570312 10.761719 25.578125 10.648438 25.65625 C 10.582031 25.703125 10.542969 25.777344 10.523438 25.882812 C 10.496094 26.046875 10.578125 26.171875 10.648438 26.246094 C 10.769531 26.375 10.957031 26.449219 11.101562 26.429688 L 11.117188 26.429688 C 11.167969 26.429688 11.210938 26.464844 11.222656 26.515625 C 11.234375 26.570312 11.203125 26.625 11.148438 26.640625 C 11.132812 26.648438 11.125 26.652344 11.042969 26.660156 C 10.972656 26.671875 10.902344 26.714844 10.863281 26.773438 C 10.828125 26.828125 10.816406 26.890625 10.835938 26.960938 L 11.277344 26.703125 C 11.277344 26.703125 11.277344 26.714844 11.277344 26.703125 " fill-opacity="1" fill-rule="nonzero"/></g><path fill="#e61f93" d="M 30.023438 30.039062 C 30.023438 30.039062 29.8125 30.066406 29.449219 30.175781 C 29.078125 30.289062 28.523438 30.570312 28.519531 30.574219 L 23.355469 33.300781 C 24.023438 33.65625 24.644531 33.964844 25.246094 34.238281 C 26.117188 34.640625 27.042969 34.972656 27.894531 34.703125 C 28.761719 34.425781 29.34375 33.585938 29.824219 32.820312 C 30.492188 31.757812 31.0625 30.746094 31.566406 29.75 C 30.882812 29.886719 30.097656 30.027344 30.046875 30.035156 C 30.039062 30.039062 30.03125 30.039062 30.023438 30.039062 " fill-opacity="1" fill-rule="nonzero"/><path fill="#e61f93" d="M 28.496094 29.589844 C 28.796875 29.449219 29.101562 29.324219 29.417969 29.238281 C 29.574219 29.191406 29.734375 29.15625 29.898438 29.128906 C 29.734375 29.15625 29.574219 29.191406 29.414062 29.234375 C 29.101562 29.324219 28.800781 29.449219 28.496094 29.589844 " fill-opacity="1" fill-rule="nonzero"/><g clip-path="url(#1ab0942efc)"><path fill="#e61f93" d="M 22.402344 28.847656 C 23.683594 28.488281 25.28125 28.035156 26.472656 27.515625 C 26.757812 27.394531 27.175781 27.199219 27.535156 26.917969 C 27.714844 26.78125 27.863281 26.636719 27.992188 26.476562 C 28.230469 26.175781 28.421875 25.886719 28.605469 25.601562 C 28.742188 25.390625 28.886719 25.171875 29.050781 24.941406 C 29.710938 24.046875 30.34375 23.757812 31.351562 23.5 C 31.554688 23.453125 31.882812 23.410156 32.140625 23.453125 C 32.234375 23.472656 32.304688 23.515625 32.328125 23.578125 C 32.347656 23.628906 32.335938 23.6875 32.292969 23.746094 C 32.269531 23.773438 32.222656 23.824219 32.199219 23.851562 C 31.964844 24.085938 31.722656 24.148438 31.445312 24.226562 C 31.347656 24.25 31.25 24.277344 31.144531 24.3125 C 30.996094 24.359375 30.632812 24.507812 30.464844 24.824219 C 30.410156 24.917969 30.414062 25.035156 30.476562 25.128906 C 30.535156 25.21875 30.632812 25.269531 30.742188 25.261719 C 31.234375 25.222656 31.667969 25.007812 32.089844 24.804688 C 32.511719 24.597656 32.910156 24.40625 33.367188 24.367188 C 33.488281 24.359375 33.605469 24.378906 33.695312 24.421875 C 33.796875 24.46875 33.910156 24.574219 33.894531 24.78125 C 33.886719 24.886719 33.730469 24.988281 33.503906 25.039062 L 33.496094 25.039062 L 33.503906 25.039062 L 33.675781 24.996094 L 33.648438 25.109375 C 33.859375 25.039062 33.992188 24.925781 34 24.792969 C 34.019531 24.5625 33.910156 24.40625 33.742188 24.324219 C 33.632812 24.269531 33.496094 24.25 33.359375 24.257812 C 32.40625 24.335938 31.679688 25.074219 30.730469 25.152344 C 30.585938 25.164062 30.488281 25.003906 30.558594 24.875 C 30.679688 24.65625 30.933594 24.496094 31.179688 24.414062 C 31.585938 24.277344 31.9375 24.265625 32.273438 23.929688 C 32.304688 23.898438 32.355469 23.84375 32.378906 23.8125 C 32.523438 23.617188 32.425781 23.394531 32.160156 23.347656 C 31.898438 23.300781 31.5625 23.335938 31.324219 23.394531 C 30.265625 23.664062 29.621094 23.984375 28.964844 24.878906 C 28.570312 25.414062 28.324219 25.890625 27.90625 26.410156 C 27.777344 26.570312 27.628906 26.707031 27.46875 26.832031 C 27.15625 27.074219 26.792969 27.257812 26.429688 27.417969 C 25.316406 27.902344 23.90625 28.308594 22.476562 28.714844 C 22.480469 28.726562 22.480469 28.738281 22.480469 28.75 C 22.476562 28.796875 22.445312 28.835938 22.402344 28.847656 " fill-opacity="1" fill-rule="nonzero"/></g><path fill="#e61f93" d="M 17.785156 30.3125 C 17.476562 30.132812 17.1875 29.964844 16.90625 29.800781 C 17.1875 29.964844 17.476562 30.132812 17.785156 30.3125 " fill-opacity="1" fill-rule="nonzero"/><path fill="#e61f93" d="M 22.355469 32.808594 C 22.816406 32.578125 23.28125 32.335938 23.742188 32.09375 C 23.28125 32.335938 22.816406 32.578125 22.355469 32.808594 C 21.207031 33.386719 20.1875 33.855469 19.230469 34.242188 C 18.34375 34.597656 17.402344 34.886719 16.566406 34.578125 C 15.710938 34.261719 15.167969 33.394531 14.722656 32.609375 C 13.878906 31.117188 13.199219 29.726562 12.648438 28.355469 C 12.660156 28.359375 12.671875 28.363281 12.6875 28.367188 C 12.628906 28.347656 12.570312 28.328125 12.511719 28.304688 C 13.113281 29.804688 13.832031 31.257812 14.628906 32.660156 C 15.09375 33.488281 15.648438 34.355469 16.527344 34.679688 C 17.414062 35.007812 18.394531 34.695312 19.273438 34.339844 C 20.296875 33.929688 21.296875 33.460938 22.285156 32.964844 L 22.171875 32.902344 L 22.355469 32.808594 " fill-opacity="1" fill-rule="nonzero"/><path fill="#e61f93" d="M 28.417969 29.628906 C 28.382812 29.644531 28.351562 29.660156 28.316406 29.675781 C 28.351562 29.660156 28.382812 29.644531 28.417969 29.628906 " fill-opacity="1" fill-rule="nonzero"/><g clip-path="url(#954db06021)"><path fill="#e61f93" d="M 33.527344 25.257812 L 33.5 25.257812 L 33.492188 25.140625 L 33.421875 25.125 L 33.492188 25.136719 L 33.484375 25.042969 L 33.476562 25.042969 C 33.421875 25.054688 33.386719 25.105469 33.394531 25.160156 C 33.398438 25.214844 33.445312 25.257812 33.5 25.257812 L 33.617188 25.257812 C 33.769531 25.253906 33.820312 25.253906 33.933594 25.316406 C 34.039062 25.375 34.121094 25.476562 34.144531 25.582031 C 34.164062 25.660156 34.152344 25.734375 34.109375 25.796875 C 33.984375 25.992188 33.746094 26.050781 33.535156 26.089844 C 33.476562 26.101562 33.4375 26.15625 33.445312 26.214844 C 33.457031 26.273438 33.511719 26.3125 33.570312 26.304688 C 33.890625 26.253906 34.089844 26.269531 34.199219 26.351562 C 34.265625 26.402344 34.300781 26.476562 34.316406 26.585938 C 34.335938 26.753906 34.25 26.871094 34.175781 26.941406 C 34.046875 27.0625 33.855469 27.128906 33.710938 27.105469 C 33.65625 27.09375 33.601562 27.128906 33.585938 27.183594 C 33.574219 27.238281 33.597656 27.292969 33.652344 27.3125 C 33.671875 27.324219 33.679688 27.324219 33.761719 27.339844 C 33.832031 27.351562 33.898438 27.394531 33.9375 27.457031 C 33.96875 27.515625 33.976562 27.582031 33.953125 27.652344 C 33.910156 27.792969 33.730469 27.910156 33.585938 28.007812 L 33.5625 28.023438 C 33.117188 28.316406 32.632812 28.550781 32.117188 28.714844 L 32.339844 28.644531 L 32.277344 28.777344 C 32.75 28.609375 33.207031 28.390625 33.625 28.113281 C 33.789062 28 34 27.867188 34.058594 27.683594 C 34.132812 27.453125 33.964844 27.265625 33.78125 27.230469 C 33.683594 27.214844 33.71875 27.222656 33.695312 27.210938 C 34.003906 27.265625 34.472656 26.992188 34.421875 26.574219 C 34.375 26.15625 34.007812 26.125 33.554688 26.195312 C 33.777344 26.15625 34.046875 26.089844 34.203125 25.859375 C 34.351562 25.628906 34.210938 25.34375 33.984375 25.21875 C 33.855469 25.148438 33.78125 25.144531 33.636719 25.148438 L 33.609375 25.253906 L 33.527344 25.257812 " fill-opacity="1" fill-rule="nonzero"/></g><path fill="#e61f93" d="M 26.75 30.484375 C 26.25 30.75 25.75 31.015625 25.25 31.285156 C 24.777344 31.539062 24.296875 31.796875 23.8125 32.054688 C 24.300781 31.796875 24.789062 31.535156 25.265625 31.277344 C 25.757812 31.011719 26.253906 30.746094 26.75 30.484375 C 27.1875 30.25 27.582031 30.046875 27.949219 29.859375 C 28.042969 29.8125 28.136719 29.765625 28.234375 29.71875 C 28.140625 29.765625 28.046875 29.8125 27.949219 29.859375 C 27.507812 30.085938 27.078125 30.3125 26.75 30.484375 " fill-opacity="1" fill-rule="nonzero"/><path fill="#e61f93" d="M 12.863281 28.425781 C 12.886719 28.433594 12.90625 28.441406 12.929688 28.449219 C 12.90625 28.441406 12.886719 28.433594 12.863281 28.425781 " fill-opacity="1" fill-rule="nonzero"/><path fill="#e61f93" d="M 17.882812 30.320312 C 17.867188 30.328125 17.851562 30.328125 17.835938 30.328125 L 17.839844 30.328125 C 17.855469 30.328125 17.867188 30.324219 17.882812 30.320312 " fill-opacity="1" fill-rule="nonzero"/><path fill="#e61f93" d="M 17.785156 30.3125 C 17.796875 30.324219 17.8125 30.328125 17.828125 30.328125 C 17.8125 30.328125 17.796875 30.320312 17.785156 30.3125 " fill-opacity="1" fill-rule="nonzero"/><path fill="#e61f93" d="M 12.6875 28.367188 C 12.746094 28.390625 12.804688 28.410156 12.863281 28.425781 C 12.804688 28.410156 12.746094 28.390625 12.6875 28.367188 " fill-opacity="1" fill-rule="nonzero"/><path fill="#e61f93" d="M 12.929688 28.449219 C 13.007812 28.46875 13.082031 28.492188 13.160156 28.511719 C 13.082031 28.492188 13.007812 28.46875 12.929688 28.449219 " fill-opacity="1" fill-rule="nonzero"/><path fill="#e61f93" d="M 17.839844 30.21875 C 17.453125 29.992188 17.070312 29.769531 16.683594 29.546875 C 16.222656 29.289062 15.761719 29.03125 15.261719 28.863281 C 14.589844 28.640625 13.875 28.585938 13.1875 28.40625 C 12.9375 28.34375 12.695312 28.261719 12.457031 28.167969 C 12.472656 28.214844 12.492188 28.257812 12.511719 28.304688 C 12.570312 28.328125 12.628906 28.347656 12.6875 28.367188 C 12.746094 28.390625 12.804688 28.410156 12.863281 28.425781 C 12.886719 28.433594 12.90625 28.441406 12.929688 28.449219 C 13.007812 28.46875 13.082031 28.492188 13.160156 28.511719 C 13.453125 28.589844 13.753906 28.640625 14.042969 28.695312 C 14.4375 28.765625 14.847656 28.839844 15.226562 28.96875 C 15.707031 29.128906 16.144531 29.367188 16.628906 29.644531 C 16.71875 29.695312 16.8125 29.75 16.90625 29.800781 C 17.1875 29.964844 17.476562 30.132812 17.785156 30.3125 C 17.796875 30.320312 17.8125 30.328125 17.828125 30.328125 L 17.835938 30.328125 C 17.851562 30.328125 17.867188 30.328125 17.882812 30.320312 C 19.09375 29.78125 20.6875 29.332031 22.234375 28.894531 L 22.402344 28.847656 C 22.445312 28.835938 22.476562 28.796875 22.480469 28.75 C 22.480469 28.738281 22.480469 28.726562 22.476562 28.714844 C 22.441406 28.722656 22.40625 28.734375 22.371094 28.742188 C 20.742188 29.203125 19.097656 29.660156 17.839844 30.21875 " fill-opacity="1" fill-rule="nonzero"/><g clip-path="url(#961977e833)"><path fill="#e61f93" d="M 18.363281 27.085938 C 18.011719 26.910156 17.660156 26.714844 17.363281 26.460938 C 17.203125 26.328125 17.058594 26.179688 16.933594 26.007812 C 16.542969 25.472656 16.3125 24.980469 15.945312 24.429688 C 15.328125 23.507812 14.703125 23.15625 13.652344 22.839844 C 13.417969 22.765625 13.085938 22.714844 12.820312 22.75 C 12.558594 22.785156 12.445312 23.003906 12.585938 23.203125 C 12.605469 23.234375 12.652344 23.296875 12.683594 23.324219 C 13.003906 23.679688 13.351562 23.707031 13.753906 23.863281 C 13.996094 23.957031 14.246094 24.125 14.355469 24.351562 C 14.417969 24.484375 14.3125 24.640625 14.167969 24.621094 C 13.226562 24.5 12.535156 23.726562 11.582031 23.605469 C 11.425781 23.585938 11.273438 23.605469 11.152344 23.671875 C 11.003906 23.753906 10.910156 23.898438 10.917969 24.105469 C 10.921875 24.246094 11.0625 24.375 11.292969 24.453125 C 11.328125 24.46875 11.363281 24.476562 11.402344 24.488281 C 11.363281 24.484375 11.332031 24.484375 11.300781 24.480469 C 11.132812 24.46875 11.058594 24.464844 10.914062 24.535156 C 10.683594 24.648438 10.53125 24.929688 10.671875 25.160156 C 10.8125 25.402344 11.078125 25.480469 11.300781 25.53125 C 10.851562 25.4375 10.484375 25.449219 10.417969 25.863281 C 10.347656 26.28125 10.804688 26.578125 11.117188 26.539062 C 11.089844 26.546875 11.125 26.542969 11.03125 26.554688 C 10.984375 26.5625 10.9375 26.578125 10.894531 26.601562 C 10.984375 26.609375 11.078125 26.621094 11.167969 26.632812 C 11.210938 26.609375 11.234375 26.5625 11.222656 26.515625 C 11.210938 26.464844 11.167969 26.429688 11.117188 26.429688 L 11.101562 26.429688 C 10.957031 26.449219 10.769531 26.375 10.648438 26.246094 C 10.578125 26.171875 10.496094 26.046875 10.523438 25.882812 C 10.542969 25.777344 10.582031 25.703125 10.648438 25.65625 C 10.761719 25.578125 10.964844 25.570312 11.28125 25.636719 C 11.335938 25.648438 11.394531 25.613281 11.40625 25.554688 C 11.421875 25.496094 11.382812 25.4375 11.328125 25.425781 C 11.117188 25.375 10.882812 25.308594 10.761719 25.105469 C 10.722656 25.039062 10.714844 24.964844 10.738281 24.886719 C 10.769531 24.785156 10.855469 24.6875 10.960938 24.632812 C 11.078125 24.574219 11.132812 24.578125 11.292969 24.589844 C 11.324219 24.59375 11.359375 24.59375 11.398438 24.59375 C 11.453125 24.597656 11.5 24.554688 11.507812 24.5 C 11.515625 24.445312 11.480469 24.394531 11.425781 24.378906 C 11.390625 24.375 11.359375 24.363281 11.328125 24.351562 C 11.148438 24.289062 11.03125 24.191406 11.027344 24.101562 C 11.019531 23.949219 11.078125 23.835938 11.203125 23.769531 C 11.300781 23.714844 11.433594 23.695312 11.570312 23.710938 C 12.023438 23.773438 12.414062 23.984375 12.828125 24.210938 C 13.238281 24.433594 13.664062 24.664062 14.152344 24.726562 C 14.257812 24.742188 14.363281 24.695312 14.425781 24.609375 C 14.488281 24.519531 14.5 24.402344 14.453125 24.304688 C 14.296875 23.984375 13.9375 23.816406 13.792969 23.761719 C 13.691406 23.722656 13.59375 23.691406 13.5 23.660156 C 13.222656 23.574219 12.984375 23.496094 12.761719 23.25 C 12.738281 23.226562 12.695312 23.171875 12.671875 23.140625 C 12.632812 23.082031 12.621094 23.023438 12.644531 22.972656 C 12.671875 22.914062 12.742188 22.871094 12.835938 22.859375 C 13.097656 22.824219 13.421875 22.882812 13.621094 22.941406 C 14.621094 23.242188 15.238281 23.566406 15.855469 24.488281 C 16.011719 24.726562 16.148438 24.953125 16.277344 25.175781 C 16.445312 25.464844 16.621094 25.765625 16.847656 26.074219 C 16.96875 26.242188 17.117188 26.398438 17.292969 26.542969 C 17.621094 26.824219 18.011719 27.03125 18.316406 27.183594 C 19.078125 27.554688 19.996094 27.933594 20.914062 28.296875 C 20.972656 28.28125 21.027344 28.261719 21.082031 28.246094 C 20.089844 27.859375 19.152344 27.46875 18.363281 27.085938 " fill-opacity="1" fill-rule="nonzero"/></g><path fill="#e61f93" d="M 28.496094 29.589844 C 28.46875 29.601562 28.445312 29.617188 28.417969 29.628906 C 28.445312 29.617188 28.46875 29.601562 28.496094 29.589844 " fill-opacity="1" fill-rule="nonzero"/><path fill="#e61f93" d="M 23.8125 32.054688 C 23.789062 32.066406 23.765625 32.078125 23.742188 32.09375 C 23.765625 32.078125 23.789062 32.066406 23.8125 32.054688 " fill-opacity="1" fill-rule="nonzero"/><path fill="#e61f93" d="M 31.519531 28.875 C 31.234375 28.933594 30.9375 28.972656 30.648438 29.011719 C 30.402344 29.046875 30.148438 29.082031 29.898438 29.128906 C 30.148438 29.082031 30.402344 29.046875 30.648438 29.011719 C 30.933594 28.972656 31.234375 28.933594 31.519531 28.875 C 31.71875 28.832031 31.917969 28.78125 32.105469 28.722656 L 32.117188 28.714844 L 32.105469 28.722656 C 31.910156 28.78125 31.714844 28.835938 31.519531 28.875 " fill-opacity="1" fill-rule="nonzero"/><path fill="#e61f93" d="M 28.316406 29.675781 C 28.289062 29.691406 28.261719 29.703125 28.234375 29.71875 C 28.261719 29.703125 28.289062 29.691406 28.316406 29.675781 " fill-opacity="1" fill-rule="nonzero"/><path fill="#e61f93" d="M 29.886719 29.238281 C 29.738281 29.269531 29.589844 29.300781 29.445312 29.339844 C 29.21875 29.40625 29 29.488281 28.78125 29.582031 C 29 29.488281 29.21875 29.40625 29.445312 29.339844 C 29.589844 29.300781 29.738281 29.269531 29.886719 29.238281 " fill-opacity="1" fill-rule="nonzero"/><path fill="#e61f93" d="M 32.117188 28.714844 L 32.105469 28.722656 C 31.917969 28.78125 31.71875 28.832031 31.519531 28.875 C 31.234375 28.933594 30.933594 28.972656 30.648438 29.011719 C 30.402344 29.046875 30.148438 29.082031 29.898438 29.128906 C 29.734375 29.15625 29.574219 29.191406 29.417969 29.238281 C 29.101562 29.324219 28.796875 29.449219 28.496094 29.589844 C 28.46875 29.601562 28.445312 29.617188 28.417969 29.628906 C 28.382812 29.644531 28.351562 29.660156 28.316406 29.675781 C 28.289062 29.691406 28.261719 29.703125 28.234375 29.71875 C 28.136719 29.765625 28.042969 29.8125 27.949219 29.859375 C 27.582031 30.046875 27.1875 30.25 26.75 30.484375 C 26.253906 30.746094 25.757812 31.011719 25.265625 31.277344 C 24.789062 31.535156 24.300781 31.796875 23.8125 32.054688 C 23.789062 32.066406 23.765625 32.078125 23.742188 32.09375 C 23.28125 32.335938 22.816406 32.578125 22.355469 32.808594 L 22.171875 32.902344 L 22.285156 32.964844 C 22.324219 32.945312 22.363281 32.925781 22.402344 32.90625 C 23.882812 32.160156 25.332031 31.355469 26.800781 30.582031 C 27.199219 30.371094 27.597656 30.160156 28 29.957031 C 28.082031 29.914062 28.164062 29.871094 28.25 29.832031 C 28.425781 29.742188 28.601562 29.660156 28.78125 29.582031 C 29 29.488281 29.21875 29.40625 29.445312 29.339844 C 29.589844 29.300781 29.738281 29.269531 29.886719 29.238281 C 30.378906 29.144531 30.886719 29.101562 31.378906 29.011719 C 31.457031 28.996094 31.535156 28.980469 31.605469 28.964844 C 31.785156 28.925781 31.960938 28.878906 32.136719 28.824219 C 32.183594 28.808594 32.230469 28.792969 32.277344 28.777344 L 32.339844 28.644531 L 32.117188 28.714844 " fill-opacity="1" fill-rule="nonzero"/><path fill="#e61f93" d="M 29.824219 32.820312 C 29.34375 33.585938 28.761719 34.425781 27.894531 34.703125 C 27.042969 34.972656 26.117188 34.640625 25.246094 34.238281 C 24.644531 33.964844 24.023438 33.65625 23.355469 33.300781 L 23.242188 33.363281 C 23.886719 33.707031 24.539062 34.035156 25.199219 34.339844 C 26.0625 34.730469 27.027344 35.089844 27.925781 34.804688 C 28.820312 34.523438 29.414062 33.683594 29.917969 32.878906 C 30.558594 31.855469 31.160156 30.804688 31.703125 29.722656 C 31.65625 29.730469 31.613281 29.742188 31.566406 29.75 C 31.0625 30.746094 30.492188 31.757812 29.824219 32.820312 " fill-opacity="1" fill-rule="nonzero"/><path fill="#e61f93" d="M 32.125 28.851562 C 32.128906 28.84375 32.132812 28.835938 32.136719 28.824219 C 31.96875 28.878906 31.792969 28.925781 31.621094 28.964844 C 31.816406 28.921875 31.992188 28.886719 32.125 28.851562 " fill-opacity="1" fill-rule="nonzero"/><path fill="#e61f93" d="M 31.378906 29.011719 C 30.886719 29.101562 30.378906 29.144531 29.886719 29.238281 C 30.371094 29.148438 30.863281 29.105469 31.347656 29.019531 C 31.359375 29.015625 31.367188 29.015625 31.378906 29.011719 " fill-opacity="1" fill-rule="nonzero"/><path fill="#e61f93" d="M 28.25 29.832031 C 28.425781 29.742188 28.601562 29.660156 28.78125 29.582031 C 28.601562 29.660156 28.425781 29.742188 28.25 29.832031 " fill-opacity="1" fill-rule="nonzero"/><path fill="#e61f93" d="M 32.136719 28.824219 C 31.960938 28.878906 31.785156 28.925781 31.605469 28.964844 L 31.621094 28.964844 C 31.792969 28.925781 31.96875 28.878906 32.136719 28.824219 " fill-opacity="1" fill-rule="nonzero"/><path fill="#e61f93" d="M 33.484375 25.042969 L 33.496094 25.039062 Z M 33.484375 25.042969 " fill-opacity="1" fill-rule="nonzero"/><path fill="#e61f93" d="M 33.527344 25.144531 L 33.53125 25.144531 L 33.527344 25.148438 L 33.5 25.148438 L 33.527344 25.148438 C 33.570312 25.148438 33.605469 25.148438 33.636719 25.148438 L 33.648438 25.109375 C 33.609375 25.121094 33.570312 25.132812 33.53125 25.144531 L 33.527344 25.144531 " fill-opacity="1" fill-rule="nonzero"/><path fill="#e61f93" d="M 33.503906 25.039062 L 33.496094 25.039062 L 33.484375 25.042969 L 33.492188 25.136719 L 33.421875 25.125 L 33.492188 25.140625 L 33.5 25.257812 L 33.527344 25.257812 L 33.609375 25.253906 L 33.636719 25.148438 C 33.605469 25.148438 33.570312 25.148438 33.527344 25.148438 L 33.5 25.148438 L 33.503906 25.148438 L 33.5 25.148438 C 33.511719 25.148438 33.519531 25.144531 33.527344 25.144531 L 33.53125 25.144531 C 33.570312 25.132812 33.609375 25.121094 33.648438 25.109375 L 33.675781 24.996094 L 33.503906 25.039062 " fill-opacity="1" fill-rule="nonzero"/><path fill="#e61f93" d="M 33.53125 25.144531 L 33.527344 25.144531 C 33.519531 25.144531 33.511719 25.148438 33.503906 25.148438 L 33.527344 25.148438 L 33.53125 25.144531 " fill-opacity="1" fill-rule="nonzero"/><path fill="#e61f93" d="M 33.5 25.148438 L 33.503906 25.148438 C 33.511719 25.148438 33.519531 25.144531 33.527344 25.144531 C 33.519531 25.144531 33.511719 25.148438 33.5 25.148438 " fill-opacity="1" fill-rule="nonzero"/><path fill="#e61f93" d="M 28.351562 29.902344 C 28.367188 29.894531 28.386719 29.882812 28.40625 29.875 C 28.386719 29.882812 28.367188 29.894531 28.351562 29.902344 " fill-opacity="1" fill-rule="nonzero"/><path fill="#e61f93" d="M 31.828125 29.027344 C 31.851562 29.019531 31.878906 29.011719 31.902344 29.007812 C 31.878906 29.011719 31.851562 29.019531 31.828125 29.027344 " fill-opacity="1" fill-rule="nonzero"/><path fill="#e61f93" d="M 31.5625 29.089844 C 31.578125 29.085938 31.589844 29.082031 31.601562 29.078125 C 31.589844 29.082031 31.574219 29.085938 31.5625 29.089844 C 31.269531 29.148438 30.96875 29.1875 30.675781 29.226562 C 30.4375 29.257812 30.191406 29.292969 29.945312 29.339844 C 30.191406 29.292969 30.433594 29.261719 30.675781 29.226562 C 30.96875 29.191406 31.269531 29.148438 31.5625 29.089844 " fill-opacity="1" fill-rule="nonzero"/><path fill="#e61f93" d="M 28.550781 29.804688 C 28.558594 29.800781 28.570312 29.796875 28.582031 29.792969 C 28.570312 29.796875 28.558594 29.800781 28.550781 29.804688 " fill-opacity="1" fill-rule="nonzero"/><path fill="#e61f93" d="M 23.703125 32.359375 C 23.789062 32.3125 23.878906 32.265625 23.96875 32.21875 C 23.878906 32.265625 23.789062 32.3125 23.703125 32.359375 " fill-opacity="1" fill-rule="nonzero"/><path fill="#e61f93" d="M 24.550781 31.90625 C 24.582031 31.890625 24.617188 31.871094 24.652344 31.855469 C 24.617188 31.871094 24.582031 31.890625 24.550781 31.90625 " fill-opacity="1" fill-rule="nonzero"/><path fill="#e61f93" d="M 27.160156 30.511719 L 27.179688 30.503906 C 27.175781 30.507812 27.167969 30.507812 27.160156 30.511719 " fill-opacity="1" fill-rule="nonzero"/><path fill="#e61f93" d="M 22.988281 32.730469 C 23.078125 32.683594 23.167969 32.636719 23.257812 32.59375 C 23.167969 32.636719 23.078125 32.683594 22.988281 32.730469 " fill-opacity="1" fill-rule="nonzero"/><path fill="#e61f93" d="M 31.605469 28.964844 C 31.535156 28.980469 31.457031 28.996094 31.378906 29.011719 C 31.433594 29.003906 31.488281 28.992188 31.539062 28.980469 C 31.5625 28.976562 31.585938 28.972656 31.605469 28.964844 " fill-opacity="1" fill-rule="nonzero"/><path fill="#e61f93" d="M 28.40625 29.875 C 28.453125 29.851562 28.503906 29.828125 28.550781 29.804688 C 28.503906 29.828125 28.453125 29.851562 28.40625 29.875 " fill-opacity="1" fill-rule="nonzero"/><path fill="#e61f93" d="M 29.945312 29.339844 C 29.789062 29.367188 29.628906 29.402344 29.476562 29.445312 C 29.171875 29.53125 28.878906 29.652344 28.582031 29.792969 C 28.875 29.652344 29.171875 29.53125 29.476562 29.445312 C 29.628906 29.402344 29.789062 29.367188 29.945312 29.339844 " fill-opacity="1" fill-rule="nonzero"/><path fill="#e61f93" d="M 26.851562 30.675781 C 26.957031 30.621094 27.058594 30.566406 27.160156 30.511719 C 27.050781 30.570312 26.945312 30.625 26.851562 30.675781 C 26.351562 30.941406 25.851562 31.207031 25.351562 31.476562 C 25.121094 31.601562 24.886719 31.726562 24.652344 31.855469 C 24.890625 31.726562 25.132812 31.597656 25.367188 31.46875 C 25.863281 31.203125 26.355469 30.9375 26.851562 30.675781 " fill-opacity="1" fill-rule="nonzero"/><path fill="#e61f93" d="M 23.96875 32.21875 C 24.164062 32.117188 24.355469 32.011719 24.550781 31.90625 C 24.355469 32.011719 24.160156 32.117188 23.96875 32.21875 " fill-opacity="1" fill-rule="nonzero"/><path fill="#e61f93" d="M 28.351562 29.902344 C 28.25 29.953125 28.148438 30.003906 28.046875 30.054688 C 27.746094 30.207031 27.445312 30.363281 27.179688 30.503906 C 27.488281 30.339844 27.777344 30.191406 28.046875 30.054688 C 28.148438 30.003906 28.25 29.953125 28.351562 29.902344 " fill-opacity="1" fill-rule="nonzero"/><path fill="#e61f93" d="M 23.257812 32.59375 C 23.40625 32.515625 23.554688 32.4375 23.703125 32.359375 C 23.554688 32.4375 23.40625 32.515625 23.257812 32.59375 " fill-opacity="1" fill-rule="nonzero"/><path fill="#e61f93" d="M 31.601562 29.078125 C 31.675781 29.0625 31.753906 29.046875 31.828125 29.027344 C 31.753906 29.042969 31.679688 29.0625 31.601562 29.078125 " fill-opacity="1" fill-rule="nonzero"/><path fill="#e61f93" d="M 31.542969 28.980469 C 31.566406 28.976562 31.59375 28.96875 31.621094 28.964844 L 31.605469 28.964844 C 31.585938 28.972656 31.5625 28.976562 31.539062 28.980469 C 31.488281 28.992188 31.433594 29.003906 31.378906 29.011719 C 31.367188 29.015625 31.359375 29.015625 31.347656 29.019531 C 31.410156 29.007812 31.476562 28.996094 31.542969 28.980469 " fill-opacity="1" fill-rule="nonzero"/><path fill="#e61f93" d="M 21.097656 28.992188 C 21.058594 29.003906 21.019531 29.015625 20.980469 29.027344 C 21.019531 29.015625 21.058594 29.003906 21.097656 28.992188 " fill-opacity="1" fill-rule="nonzero"/><path fill="#e61f93" d="M 18.660156 29.773438 C 18.625 29.785156 18.589844 29.796875 18.554688 29.8125 C 18.589844 29.796875 18.625 29.785156 18.660156 29.773438 " fill-opacity="1" fill-rule="nonzero"/><path fill="#e61f93" d="M 18.40625 29.867188 C 18.375 29.882812 18.34375 29.894531 18.3125 29.90625 C 18.34375 29.894531 18.375 29.882812 18.40625 29.867188 " fill-opacity="1" fill-rule="nonzero"/><path fill="#e61f93" d="M 19.441406 29.5 C 19.402344 29.511719 19.363281 29.527344 19.324219 29.539062 C 19.363281 29.527344 19.402344 29.511719 19.441406 29.5 " fill-opacity="1" fill-rule="nonzero"/><path fill="#e61f93" d="M 18.914062 29.679688 C 18.878906 29.691406 18.839844 29.707031 18.804688 29.71875 C 18.839844 29.707031 18.878906 29.691406 18.914062 29.679688 " fill-opacity="1" fill-rule="nonzero"/><path fill="#e61f93" d="M 21.378906 28.914062 C 21.339844 28.921875 21.304688 28.933594 21.269531 28.945312 C 21.304688 28.933594 21.339844 28.921875 21.378906 28.914062 " fill-opacity="1" fill-rule="nonzero"/><path fill="#e61f93" d="M 20.816406 29.074219 C 20.777344 29.085938 20.738281 29.097656 20.695312 29.109375 C 20.738281 29.097656 20.777344 29.085938 20.816406 29.074219 " fill-opacity="1" fill-rule="nonzero"/><path fill="#e61f93" d="M 19.175781 29.589844 C 19.140625 29.601562 19.101562 29.613281 19.0625 29.628906 C 19.101562 29.613281 19.140625 29.601562 19.175781 29.589844 " fill-opacity="1" fill-rule="nonzero"/><path fill="#e61f93" d="M 20.535156 29.15625 C 20.496094 29.171875 20.457031 29.183594 20.414062 29.195312 C 20.457031 29.183594 20.496094 29.171875 20.535156 29.15625 " fill-opacity="1" fill-rule="nonzero"/><path fill="#e61f93" d="M 21.664062 28.832031 C 21.628906 28.839844 21.59375 28.851562 21.558594 28.863281 C 21.59375 28.851562 21.628906 28.839844 21.664062 28.832031 " fill-opacity="1" fill-rule="nonzero"/><path fill="#e61f93" d="M 18.152344 29.96875 C 18.125 29.980469 18.101562 29.992188 18.074219 30 C 18.101562 29.992188 18.125 29.980469 18.152344 29.96875 " fill-opacity="1" fill-rule="nonzero"/><path fill="#e61f93" d="M 20.257812 29.242188 C 20.21875 29.253906 20.175781 29.265625 20.136719 29.277344 C 20.175781 29.265625 20.21875 29.253906 20.257812 29.242188 " fill-opacity="1" fill-rule="nonzero"/><path fill="#e61f93" d="M 21.933594 28.753906 C 21.910156 28.761719 21.882812 28.769531 21.859375 28.777344 C 21.882812 28.769531 21.910156 28.761719 21.933594 28.753906 " fill-opacity="1" fill-rule="nonzero"/><path fill="#e61f93" d="M 19.710938 29.414062 C 19.671875 29.425781 19.628906 29.4375 19.589844 29.453125 C 19.628906 29.4375 19.671875 29.425781 19.710938 29.414062 " fill-opacity="1" fill-rule="nonzero"/><path fill="#e61f93" d="M 19.980469 29.328125 C 19.941406 29.339844 19.902344 29.351562 19.859375 29.363281 C 19.902344 29.351562 19.941406 29.339844 19.980469 29.328125 " fill-opacity="1" fill-rule="nonzero"/><path fill="#e61f93" d="M 13.214844 28.300781 C 12.972656 28.238281 12.734375 28.160156 12.496094 28.066406 C 12.734375 28.160156 12.972656 28.238281 13.214844 28.300781 " fill-opacity="1" fill-rule="nonzero"/><path fill="#e61f93" d="M 20.414062 29.195312 C 20.363281 29.210938 20.308594 29.226562 20.257812 29.242188 C 20.308594 29.226562 20.363281 29.210938 20.414062 29.195312 " fill-opacity="1" fill-rule="nonzero"/><path fill="#e61f93" d="M 21.859375 28.777344 C 21.792969 28.792969 21.730469 28.8125 21.664062 28.832031 C 21.730469 28.8125 21.792969 28.792969 21.859375 28.777344 " fill-opacity="1" fill-rule="nonzero"/><path fill="#e61f93" d="M 21.558594 28.863281 C 21.496094 28.878906 21.4375 28.894531 21.378906 28.914062 C 21.4375 28.894531 21.496094 28.878906 21.558594 28.863281 " fill-opacity="1" fill-rule="nonzero"/><path fill="#e61f93" d="M 20.695312 29.109375 C 20.640625 29.125 20.589844 29.140625 20.535156 29.15625 C 20.589844 29.140625 20.640625 29.125 20.695312 29.109375 " fill-opacity="1" fill-rule="nonzero"/><path fill="#e61f93" d="M 20.980469 29.027344 C 20.925781 29.042969 20.871094 29.058594 20.816406 29.074219 C 20.871094 29.058594 20.925781 29.042969 20.980469 29.027344 " fill-opacity="1" fill-rule="nonzero"/><path fill="#e61f93" d="M 21.269531 28.945312 C 21.210938 28.960938 21.15625 28.976562 21.097656 28.992188 C 21.15625 28.976562 21.210938 28.960938 21.269531 28.945312 " fill-opacity="1" fill-rule="nonzero"/><path fill="#e61f93" d="M 18.554688 29.8125 C 18.503906 29.832031 18.453125 29.851562 18.40625 29.867188 C 18.453125 29.851562 18.503906 29.832031 18.554688 29.8125 " fill-opacity="1" fill-rule="nonzero"/><path fill="#e61f93" d="M 18.3125 29.90625 C 18.257812 29.925781 18.203125 29.949219 18.152344 29.96875 C 18.203125 29.949219 18.257812 29.925781 18.3125 29.90625 " fill-opacity="1" fill-rule="nonzero"/><path fill="#e61f93" d="M 18.074219 30 C 17.996094 30.03125 17.921875 30.066406 17.847656 30.097656 C 17.921875 30.066406 17.996094 30.03125 18.074219 30 " fill-opacity="1" fill-rule="nonzero"/><path fill="#e61f93" d="M 19.859375 29.363281 C 19.8125 29.378906 19.761719 29.398438 19.710938 29.414062 C 19.761719 29.398438 19.8125 29.378906 19.859375 29.363281 " fill-opacity="1" fill-rule="nonzero"/><path fill="#e61f93" d="M 18.804688 29.71875 C 18.757812 29.738281 18.707031 29.753906 18.660156 29.773438 C 18.707031 29.753906 18.757812 29.738281 18.804688 29.71875 " fill-opacity="1" fill-rule="nonzero"/><path fill="#e61f93" d="M 19.589844 29.453125 C 19.539062 29.46875 19.492188 29.484375 19.441406 29.5 C 19.492188 29.484375 19.539062 29.46875 19.589844 29.453125 " fill-opacity="1" fill-rule="nonzero"/><path fill="#e61f93" d="M 19.324219 29.539062 C 19.273438 29.554688 19.226562 29.570312 19.175781 29.589844 C 19.226562 29.570312 19.273438 29.554688 19.324219 29.539062 " fill-opacity="1" fill-rule="nonzero"/><path fill="#e61f93" d="M 20.136719 29.277344 C 20.085938 29.296875 20.035156 29.3125 19.980469 29.328125 C 20.035156 29.3125 20.085938 29.296875 20.136719 29.277344 " fill-opacity="1" fill-rule="nonzero"/><path fill="#e61f93" d="M 19.0625 29.628906 C 19.011719 29.644531 18.964844 29.664062 18.914062 29.679688 C 18.964844 29.664062 19.011719 29.644531 19.0625 29.628906 " fill-opacity="1" fill-rule="nonzero"/><path fill="#ffffff" d="M 23.355469 33.300781 L 28.519531 30.574219 C 28.523438 30.570312 29.078125 30.289062 29.449219 30.175781 C 29.8125 30.066406 30.023438 30.039062 30.023438 30.039062 C 30.03125 30.039062 30.039062 30.039062 30.046875 30.035156 C 30.097656 30.027344 30.882812 29.886719 31.566406 29.75 C 31.695312 29.5 31.816406 29.246094 31.9375 28.996094 C 31.925781 29 31.914062 29.003906 31.902344 29.007812 C 31.878906 29.011719 31.851562 29.019531 31.828125 29.027344 C 31.753906 29.046875 31.675781 29.0625 31.601562 29.078125 C 31.589844 29.082031 31.578125 29.085938 31.5625 29.089844 C 31.269531 29.148438 30.96875 29.191406 30.675781 29.226562 C 30.433594 29.261719 30.191406 29.292969 29.945312 29.339844 C 29.789062 29.367188 29.628906 29.402344 29.476562 29.445312 C 29.171875 29.53125 28.875 29.652344 28.582031 29.792969 C 28.570312 29.796875 28.558594 29.800781 28.550781 29.804688 C 28.503906 29.828125 28.453125 29.851562 28.40625 29.875 C 28.386719 29.882812 28.367188 29.894531 28.351562 29.902344 C 28.25 29.953125 28.148438 30.003906 28.046875 30.054688 C 27.777344 30.191406 27.488281 30.339844 27.179688 30.503906 L 27.160156 30.511719 C 27.058594 30.566406 26.957031 30.621094 26.851562 30.675781 C 26.355469 30.9375 25.863281 31.203125 25.367188 31.46875 C 25.132812 31.597656 24.890625 31.726562 24.652344 31.855469 C 24.617188 31.871094 24.582031 31.890625 24.550781 31.90625 C 24.355469 32.011719 24.164062 32.117188 23.96875 32.21875 C 23.878906 32.265625 23.789062 32.3125 23.703125 32.359375 C 23.554688 32.4375 23.40625 32.515625 23.257812 32.59375 C 23.167969 32.636719 23.078125 32.683594 22.988281 32.730469 C 22.871094 32.789062 22.753906 32.851562 22.636719 32.910156 C 22.882812 33.046875 23.121094 33.175781 23.355469 33.300781 " fill-opacity="1" fill-rule="nonzero"/><g clip-path="url(#abb36a2b8d)"><path fill="#ffffff" d="M 14.082031 28.480469 C 14.484375 28.554688 14.898438 28.628906 15.296875 28.761719 C 15.792969 28.929688 16.242188 29.171875 16.734375 29.453125 C 17.089844 29.65625 17.453125 29.867188 17.847656 30.097656 C 17.921875 30.066406 17.996094 30.03125 18.074219 30 C 18.101562 29.992188 18.125 29.980469 18.152344 29.96875 C 18.203125 29.949219 18.257812 29.925781 18.3125 29.90625 C 18.34375 29.894531 18.375 29.882812 18.40625 29.867188 C 18.453125 29.851562 18.503906 29.832031 18.554688 29.8125 C 18.589844 29.796875 18.625 29.785156 18.660156 29.773438 C 18.707031 29.753906 18.757812 29.738281 18.804688 29.71875 C 18.839844 29.707031 18.878906 29.691406 18.914062 29.679688 C 18.964844 29.664062 19.011719 29.644531 19.0625 29.628906 C 19.101562 29.613281 19.140625 29.601562 19.175781 29.589844 C 19.226562 29.570312 19.273438 29.554688 19.324219 29.539062 C 19.363281 29.527344 19.402344 29.511719 19.441406 29.5 C 19.492188 29.484375 19.539062 29.46875 19.589844 29.453125 C 19.628906 29.4375 19.671875 29.425781 19.710938 29.414062 C 19.761719 29.398438 19.8125 29.378906 19.859375 29.363281 C 19.902344 29.351562 19.941406 29.339844 19.980469 29.328125 C 20.035156 29.3125 20.085938 29.296875 20.136719 29.277344 C 20.175781 29.265625 20.21875 29.253906 20.257812 29.242188 C 20.308594 29.226562 20.363281 29.210938 20.414062 29.195312 C 20.457031 29.183594 20.496094 29.171875 20.535156 29.15625 C 20.589844 29.140625 20.640625 29.125 20.695312 29.109375 C 20.738281 29.097656 20.777344 29.085938 20.816406 29.074219 C 20.871094 29.058594 20.925781 29.042969 20.980469 29.027344 C 21.019531 29.015625 21.058594 29.003906 21.097656 28.992188 C 21.15625 28.976562 21.210938 28.960938 21.269531 28.945312 C 21.304688 28.933594 21.339844 28.921875 21.378906 28.914062 C 21.4375 28.894531 21.496094 28.878906 21.558594 28.863281 C 21.59375 28.851562 21.628906 28.839844 21.664062 28.832031 C 21.730469 28.8125 21.792969 28.792969 21.859375 28.777344 C 21.882812 28.769531 21.910156 28.761719 21.933594 28.753906 C 21.964844 28.746094 21.996094 28.738281 22.027344 28.726562 C 21.660156 28.589844 21.289062 28.445312 20.914062 28.296875 C 19.890625 28.59375 18.535156 29.015625 17.902344 29.304688 C 17.425781 29.015625 16.148438 28.253906 15.453125 28.03125 C 15.121094 27.921875 14.710938 27.839844 14.277344 27.753906 C 13.59375 27.617188 12.816406 27.464844 12.144531 27.171875 C 11.691406 26.976562 11.464844 26.8125 11.363281 26.726562 C 11.308594 26.679688 11.253906 26.632812 11.191406 26.597656 C 11.171875 26.582031 11.15625 26.570312 11.15625 26.570312 L 10.796875 26.746094 L 10.835938 26.964844 C 10.875 27.105469 11.050781 27.234375 11.191406 27.339844 L 11.210938 27.351562 C 11.601562 27.640625 12.035156 27.878906 12.496094 28.066406 C 12.734375 28.160156 12.972656 28.238281 13.214844 28.300781 C 13.5 28.375 13.796875 28.429688 14.082031 28.480469 " fill-opacity="1" fill-rule="nonzero"/></g><path fill="#ffffff" d="M 32.125 28.851562 C 32.109375 28.886719 32.089844 28.921875 32.074219 28.957031 C 32.015625 28.972656 31.960938 28.992188 31.902344 29.007812 C 31.878906 29.011719 31.851562 29.019531 31.828125 29.023438 C 31.753906 29.042969 31.679688 29.0625 31.601562 29.078125 C 31.589844 29.082031 31.574219 29.085938 31.5625 29.089844 C 31.269531 29.148438 30.96875 29.1875 30.679688 29.226562 C 30.433594 29.261719 30.191406 29.292969 29.945312 29.339844 C 29.789062 29.367188 29.628906 29.402344 29.472656 29.445312 C 29.171875 29.53125 28.878906 29.652344 28.582031 29.792969 C 28.570312 29.796875 28.558594 29.800781 28.550781 29.804688 C 28.503906 29.828125 28.453125 29.851562 28.40625 29.875 C 28.386719 29.882812 28.367188 29.894531 28.351562 29.902344 C 28.25 29.953125 28.148438 30 28.046875 30.054688 C 27.746094 30.210938 27.445312 30.363281 27.179688 30.503906 C 27.175781 30.507812 27.167969 30.507812 27.160156 30.511719 C 27.050781 30.570312 26.945312 30.625 26.851562 30.675781 C 26.351562 30.941406 25.851562 31.210938 25.351562 31.476562 C 25.121094 31.601562 24.886719 31.726562 24.652344 31.855469 C 24.617188 31.871094 24.585938 31.890625 24.550781 31.910156 C 24.355469 32.011719 24.164062 32.113281 23.964844 32.21875 C 23.878906 32.265625 23.789062 32.3125 23.703125 32.359375 C 23.550781 32.4375 23.40625 32.515625 23.257812 32.59375 C 23.167969 32.640625 23.078125 32.683594 22.988281 32.730469 C 22.832031 32.8125 22.675781 32.890625 22.519531 32.96875 C 22.492188 32.957031 22.464844 32.941406 22.4375 32.925781 L 22.402344 32.90625 C 23.882812 32.160156 25.335938 31.355469 26.800781 30.582031 C 27.199219 30.371094 27.597656 30.164062 28 29.957031 C 28.082031 29.914062 28.164062 29.875 28.246094 29.832031 C 28.425781 29.742188 28.601562 29.660156 28.78125 29.582031 C 29 29.488281 29.21875 29.40625 29.445312 29.339844 C 29.589844 29.300781 29.738281 29.269531 29.886719 29.238281 C 30.371094 29.148438 30.863281 29.105469 31.347656 29.019531 C 31.410156 29.007812 31.476562 28.996094 31.539062 28.980469 C 31.566406 28.976562 31.59375 28.96875 31.621094 28.964844 C 31.816406 28.921875 31.992188 28.886719 32.125 28.851562 " fill-opacity="1" fill-rule="nonzero"/><path fill="#ffffff" d="M 22.636719 32.910156 C 22.753906 32.851562 22.871094 32.789062 22.988281 32.730469 C 22.832031 32.8125 22.675781 32.890625 22.519531 32.96875 C 22.757812 33.101562 23 33.234375 23.242188 33.363281 L 23.355469 33.300781 C 23.121094 33.175781 22.882812 33.046875 22.636719 32.910156 " fill-opacity="1" fill-rule="nonzero"/><path fill="#ffffff" d="M 31.9375 28.996094 C 31.816406 29.246094 31.695312 29.5 31.566406 29.75 C 31.613281 29.742188 31.65625 29.730469 31.703125 29.722656 C 31.828125 29.46875 31.953125 29.214844 32.074219 28.957031 C 32.019531 28.972656 31.960938 28.992188 31.902344 29.007812 C 31.914062 29.003906 31.925781 29 31.9375 28.996094 " fill-opacity="1" fill-rule="nonzero"/><path fill="#ffffff" d="M 22.027344 28.726562 C 21.996094 28.738281 21.964844 28.746094 21.933594 28.753906 C 22.015625 28.730469 22.09375 28.710938 22.175781 28.6875 L 22.203125 28.679688 C 21.824219 28.535156 21.453125 28.390625 21.082031 28.246094 C 21.027344 28.261719 20.972656 28.28125 20.914062 28.296875 C 21.289062 28.445312 21.660156 28.589844 22.027344 28.726562 " fill-opacity="1" fill-rule="nonzero"/><g clip-path="url(#2ac818bbee)"><path fill="#ffffff" d="M 10.730469 26.992188 C 10.734375 27 10.738281 27.007812 10.738281 27.015625 L 10.835938 26.960938 C 10.816406 26.890625 10.828125 26.828125 10.863281 26.773438 C 10.902344 26.714844 10.972656 26.671875 11.042969 26.660156 C 11.125 26.652344 11.132812 26.648438 11.148438 26.640625 C 11.15625 26.640625 11.1875 26.625 11.203125 26.601562 C 11.132812 26.59375 11.128906 26.550781 11.050781 26.550781 C 11.027344 26.550781 10.957031 26.5625 10.894531 26.601562 C 10.769531 26.671875 10.683594 26.816406 10.730469 26.992188 " fill-opacity="1" fill-rule="nonzero"/></g><path fill="#ffffff" d="M 12.394531 28.078125 C 12.207031 28.019531 12.019531 27.949219 11.839844 27.871094 C 11.816406 27.859375 11.792969 27.847656 11.765625 27.835938 C 11.957031 27.945312 12.15625 28.039062 12.355469 28.125 C 12.363281 28.109375 12.367188 28.097656 12.378906 28.089844 L 12.394531 28.078125 " fill-opacity="1" fill-rule="nonzero"/><path fill="#ffffff" d="M 15.261719 28.863281 C 15.761719 29.03125 16.222656 29.289062 16.683594 29.546875 C 17.070312 29.769531 17.453125 29.992188 17.839844 30.21875 C 19.097656 29.660156 20.742188 29.203125 22.371094 28.742188 C 22.335938 28.730469 22.300781 28.714844 22.265625 28.703125 C 20.804688 29.105469 18.558594 29.78125 18.082031 30.070312 C 18.019531 30.105469 17.953125 30.121094 17.886719 30.121094 C 17.816406 30.121094 17.746094 30.105469 17.683594 30.066406 C 17.667969 30.054688 15.976562 29 15.21875 28.753906 C 14.929688 28.660156 14.539062 28.582031 14.128906 28.5 C 13.582031 28.390625 12.976562 28.273438 12.394531 28.078125 L 12.378906 28.089844 C 12.367188 28.097656 12.363281 28.109375 12.355469 28.125 C 12.390625 28.136719 12.421875 28.152344 12.457031 28.167969 C 12.695312 28.261719 12.9375 28.34375 13.1875 28.40625 C 13.875 28.585938 14.589844 28.640625 15.261719 28.863281 " fill-opacity="1" fill-rule="nonzero"/><g clip-path="url(#f0268e7378)"><path fill="#ffffff" d="M 12.394531 28.078125 C 12.421875 28.058594 12.460938 28.050781 12.496094 28.066406 C 12.035156 27.878906 11.601562 27.640625 11.210938 27.351562 L 11.191406 27.339844 C 11.050781 27.234375 10.875 27.105469 10.835938 26.964844 L 10.835938 26.960938 L 10.738281 27.015625 C 10.800781 27.191406 10.992188 27.328125 11.144531 27.441406 C 11.34375 27.585938 11.550781 27.71875 11.765625 27.835938 C 11.792969 27.847656 11.816406 27.859375 11.839844 27.871094 C 12.019531 27.949219 12.207031 28.019531 12.394531 28.078125 " fill-opacity="1" fill-rule="nonzero"/></g><path fill="#ffffff" d="M 21.933594 28.753906 C 21.910156 28.761719 21.882812 28.769531 21.859375 28.777344 C 21.792969 28.792969 21.730469 28.8125 21.664062 28.832031 C 21.628906 28.839844 21.59375 28.851562 21.558594 28.863281 C 21.496094 28.878906 21.4375 28.894531 21.378906 28.914062 C 21.339844 28.921875 21.304688 28.933594 21.269531 28.945312 C 21.210938 28.960938 21.15625 28.976562 21.097656 28.992188 C 21.058594 29.003906 21.019531 29.015625 20.980469 29.027344 C 20.925781 29.042969 20.871094 29.058594 20.816406 29.074219 C 20.777344 29.085938 20.738281 29.097656 20.695312 29.109375 C 20.640625 29.125 20.589844 29.140625 20.535156 29.15625 C 20.496094 29.171875 20.457031 29.183594 20.414062 29.195312 C 20.363281 29.210938 20.308594 29.226562 20.257812 29.242188 C 20.21875 29.253906 20.175781 29.265625 20.136719 29.277344 C 20.085938 29.296875 20.035156 29.3125 19.980469 29.328125 C 19.941406 29.339844 19.902344 29.351562 19.859375 29.363281 C 19.8125 29.378906 19.761719 29.398438 19.710938 29.414062 C 19.671875 29.425781 19.628906 29.4375 19.589844 29.453125 C 19.539062 29.46875 19.492188 29.484375 19.441406 29.5 C 19.402344 29.511719 19.363281 29.527344 19.324219 29.539062 C 19.273438 29.554688 19.226562 29.570312 19.175781 29.589844 C 19.140625 29.601562 19.101562 29.613281 19.0625 29.628906 C 19.011719 29.644531 18.964844 29.664062 18.914062 29.679688 C 18.878906 29.691406 18.839844 29.707031 18.804688 29.71875 C 18.757812 29.738281 18.707031 29.753906 18.660156 29.773438 C 18.625 29.785156 18.589844 29.796875 18.554688 29.8125 C 18.503906 29.832031 18.453125 29.851562 18.40625 29.867188 C 18.375 29.882812 18.34375 29.894531 18.3125 29.90625 C 18.257812 29.925781 18.203125 29.949219 18.152344 29.96875 C 18.125 29.980469 18.101562 29.992188 18.074219 30 C 17.996094 30.03125 17.921875 30.066406 17.847656 30.097656 C 17.453125 29.867188 17.089844 29.65625 16.734375 29.453125 C 16.242188 29.171875 15.792969 28.929688 15.296875 28.761719 C 14.898438 28.628906 14.484375 28.554688 14.082031 28.480469 C 13.796875 28.429688 13.5 28.375 13.214844 28.300781 C 12.972656 28.238281 12.734375 28.160156 12.496094 28.066406 C 12.460938 28.050781 12.421875 28.058594 12.394531 28.078125 C 12.976562 28.273438 13.582031 28.390625 14.128906 28.5 C 14.539062 28.582031 14.929688 28.660156 15.21875 28.753906 C 15.976562 29 17.667969 30.054688 17.683594 30.066406 C 17.746094 30.105469 17.816406 30.121094 17.886719 30.121094 C 17.953125 30.121094 18.019531 30.105469 18.082031 30.070312 C 18.558594 29.78125 20.804688 29.105469 22.265625 28.703125 C 22.242188 28.695312 22.222656 28.6875 22.203125 28.679688 L 22.175781 28.6875 C 22.09375 28.710938 22.015625 28.730469 21.933594 28.753906 " fill-opacity="1" fill-rule="nonzero"/><g fill="#6a35aa" fill-opacity="1"><g transform="translate(46.04226, 32.772787)"><g><path d="M 14.125 -21.140625 C 15.4375 -21.140625 16.601562 -20.835938 17.625 -20.234375 C 18.65625 -19.628906 19.457031 -18.796875 20.03125 -17.734375 C 20.601562 -16.679688 20.890625 -15.5 20.890625 -14.1875 L 20.890625 -13.796875 C 20.890625 -12.484375 20.601562 -11.289062 20.03125 -10.21875 C 19.457031 -9.15625 18.65625 -8.320312 17.625 -7.71875 C 16.601562 -7.113281 15.4375 -6.8125 14.125 -6.8125 L 9.0625 -6.8125 L 9.0625 0 L 2.265625 0 L 2.265625 -21.140625 Z M 9.0625 -11.765625 L 11.859375 -11.765625 C 12.578125 -11.765625 13.113281 -11.945312 13.46875 -12.3125 C 13.820312 -12.6875 14 -13.191406 14 -13.828125 L 14 -14.0625 C 14 -14.71875 13.820312 -15.222656 13.46875 -15.578125 C 13.113281 -15.941406 12.578125 -16.125 11.859375 -16.125 L 9.0625 -16.125 Z M 9.0625 -11.765625 "/></g></g></g><g fill="#6a35aa" fill-opacity="1"><g transform="translate(68.202923, 32.772787)"><g><path d="M 22.328125 -14.65625 C 22.328125 -13.363281 21.976562 -12.191406 21.28125 -11.140625 C 20.59375 -10.097656 19.582031 -9.332031 18.25 -8.84375 L 22.953125 0 L 15.328125 0 L 11.578125 -7.703125 L 9.0625 -7.703125 L 9.0625 0 L 2.265625 0 L 2.265625 -21.140625 L 15.203125 -21.140625 C 16.722656 -21.140625 18.019531 -20.847656 19.09375 -20.265625 C 20.164062 -19.679688 20.972656 -18.890625 21.515625 -17.890625 C 22.054688 -16.898438 22.328125 -15.820312 22.328125 -14.65625 Z M 15.421875 -14.375 C 15.421875 -14.925781 15.234375 -15.382812 14.859375 -15.75 C 14.492188 -16.125 14.046875 -16.3125 13.515625 -16.3125 L 9.0625 -16.3125 L 9.0625 -12.40625 L 13.515625 -12.40625 C 14.046875 -12.40625 14.492188 -12.59375 14.859375 -12.96875 C 15.234375 -13.351562 15.421875 -13.820312 15.421875 -14.375 Z M 15.421875 -14.375 "/></g></g></g><g fill="#6a35aa" fill-opacity="1"><g transform="translate(92.082426, 32.772787)"><g><path d="M 2.265625 -21.140625 L 20.546875 -21.140625 L 20.546875 -16.0625 L 9.0625 -16.0625 L 9.0625 -13.140625 L 18.890625 -13.140625 L 18.890625 -8.296875 L 9.0625 -8.296875 L 9.0625 -5.0625 L 20.765625 -5.0625 L 20.765625 0 L 2.265625 0 Z M 2.265625 -21.140625 "/></g></g></g><g fill="#6a35aa" fill-opacity="1"><g transform="translate(114.243089, 32.772787)"><g><path d="M 2.265625 -21.140625 L 19.359375 -21.140625 L 19.359375 -16.0625 L 9.0625 -16.0625 L 9.0625 -12.4375 L 17.90625 -12.4375 L 17.90625 -7.59375 L 9.0625 -7.59375 L 9.0625 0 L 2.265625 0 Z M 2.265625 -21.140625 "/></g></g></g><g fill="#6a35aa" fill-opacity="1"><g transform="translate(134.715608, 32.772787)"><g><path d="M 2.265625 -21.140625 L 20.546875 -21.140625 L 20.546875 -16.0625 L 9.0625 -16.0625 L 9.0625 -13.140625 L 18.890625 -13.140625 L 18.890625 -8.296875 L 9.0625 -8.296875 L 9.0625 -5.0625 L 20.765625 -5.0625 L 20.765625 0 L 2.265625 0 Z M 2.265625 -21.140625 "/></g></g></g><g fill="#6a35aa" fill-opacity="1"><g transform="translate(156.876271, 32.772787)"><g><path d="M 20.421875 0 L 20.421875 -7.625 C 20.421875 -8.5625 20.457031 -9.523438 20.53125 -10.515625 C 20.601562 -11.515625 20.679688 -12.347656 20.765625 -13.015625 C 20.847656 -13.691406 20.898438 -14.125 20.921875 -14.3125 L 20.796875 -14.3125 L 16.890625 0 L 11.578125 0 L 7.65625 -14.28125 L 7.53125 -14.28125 C 7.550781 -14.09375 7.601562 -13.664062 7.6875 -13 C 7.78125 -12.34375 7.867188 -11.515625 7.953125 -10.515625 C 8.035156 -9.523438 8.078125 -8.5625 8.078125 -7.625 L 8.078125 0 L 1.84375 0 L 1.84375 -21.140625 L 11.421875 -21.140625 L 14.625 -8.9375 L 14.75 -8.9375 L 17.90625 -21.140625 L 27.15625 -21.140625 L 27.15625 0 Z M 20.421875 0 "/></g></g></g><g fill="#6a35aa" fill-opacity="1"><g transform="translate(46.04226, 49.806338)"><g><path d="M 3.703125 -3.65625 L 6.546875 -3.65625 L 5.109375 -6.796875 Z M 6.515625 -8.71875 L 6.515625 -8.546875 C 6.347656 -8.523438 6.265625 -8.460938 6.265625 -8.359375 C 6.265625 -8.296875 6.285156 -8.226562 6.328125 -8.15625 C 6.367188 -8.082031 6.410156 -8 6.453125 -7.90625 L 9.84375 -0.625 C 9.925781 -0.457031 9.988281 -0.335938 10.03125 -0.265625 C 10.082031 -0.203125 10.175781 -0.171875 10.3125 -0.171875 L 10.3125 0 L 7.9375 0 L 7.9375 -0.171875 C 8.082031 -0.171875 8.15625 -0.207031 8.15625 -0.28125 C 8.15625 -0.320312 8.140625 -0.382812 8.109375 -0.46875 C 8.078125 -0.550781 8.03125 -0.644531 7.96875 -0.75 L 7.234375 -2.296875 L 3.140625 -2.296875 C 2.960938 -1.910156 2.816406 -1.597656 2.703125 -1.359375 C 2.585938 -1.117188 2.5 -0.929688 2.4375 -0.796875 C 2.382812 -0.691406 2.34375 -0.597656 2.3125 -0.515625 C 2.28125 -0.441406 2.265625 -0.382812 2.265625 -0.34375 C 2.265625 -0.238281 2.320312 -0.179688 2.4375 -0.171875 L 2.4375 0 L 0.3125 0 L 0.3125 -0.171875 C 0.4375 -0.171875 0.523438 -0.207031 0.578125 -0.28125 C 0.628906 -0.351562 0.691406 -0.46875 0.765625 -0.625 L 4.03125 -7.96875 C 4.0625 -8.03125 4.09375 -8.09375 4.125 -8.15625 C 4.15625 -8.226562 4.171875 -8.285156 4.171875 -8.328125 C 4.171875 -8.453125 4.082031 -8.523438 3.90625 -8.546875 L 3.90625 -8.71875 Z M 6.515625 -8.71875 "/></g></g></g><g fill="#6a35aa" fill-opacity="1"><g transform="translate(57.307078, 49.806338)"><g><path d="M 3.078125 -7.296875 L 3.078125 -7.140625 C 2.992188 -7.140625 2.953125 -7.101562 2.953125 -7.03125 C 2.953125 -6.988281 2.972656 -6.945312 3.015625 -6.90625 C 3.054688 -6.875 3.09375 -6.835938 3.125 -6.796875 L 7.453125 -2.1875 L 7.453125 -6.859375 C 7.453125 -6.941406 7.441406 -7.007812 7.421875 -7.0625 C 7.398438 -7.113281 7.347656 -7.140625 7.265625 -7.140625 L 7.265625 -7.296875 L 8.921875 -7.296875 L 8.921875 -7.140625 C 8.835938 -7.140625 8.78125 -7.113281 8.75 -7.0625 C 8.726562 -7.007812 8.71875 -6.929688 8.71875 -6.828125 L 8.71875 -0.453125 C 8.71875 -0.367188 8.726562 -0.300781 8.75 -0.25 C 8.78125 -0.195312 8.835938 -0.171875 8.921875 -0.171875 L 8.921875 0 L 7.125 0 L 7.125 -0.171875 C 7.226562 -0.171875 7.28125 -0.207031 7.28125 -0.28125 C 7.28125 -0.3125 7.25 -0.359375 7.1875 -0.421875 C 7.125 -0.492188 7.015625 -0.617188 6.859375 -0.796875 L 2.5 -5.453125 L 2.5 -0.453125 C 2.5 -0.367188 2.507812 -0.300781 2.53125 -0.25 C 2.550781 -0.195312 2.597656 -0.171875 2.671875 -0.171875 L 2.671875 0 L 1.046875 0 L 1.046875 -0.171875 C 1.117188 -0.171875 1.164062 -0.191406 1.1875 -0.234375 C 1.21875 -0.285156 1.234375 -0.359375 1.234375 -0.453125 L 1.234375 -6.84375 C 1.234375 -6.9375 1.21875 -7.007812 1.1875 -7.0625 C 1.164062 -7.113281 1.117188 -7.140625 1.046875 -7.140625 L 1.046875 -7.296875 Z M 3.078125 -7.296875 "/></g></g></g><g fill="#6a35aa" fill-opacity="1"><g transform="translate(67.902271, 49.806338)"><g><path d="M 0.390625 -7.4375 L 0.546875 -7.4375 C 0.546875 -7.375 0.578125 -7.332031 0.640625 -7.3125 C 0.710938 -7.300781 0.800781 -7.296875 0.90625 -7.296875 L 7.078125 -7.296875 C 7.171875 -7.296875 7.25 -7.300781 7.3125 -7.3125 C 7.382812 -7.332031 7.421875 -7.375 7.421875 -7.4375 L 7.59375 -7.4375 L 7.59375 -5.984375 L 7.421875 -5.984375 C 7.421875 -6.046875 7.390625 -6.082031 7.328125 -6.09375 C 7.265625 -6.113281 7.179688 -6.125 7.078125 -6.125 L 4.71875 -6.125 L 4.71875 -0.4375 C 4.71875 -0.34375 4.734375 -0.273438 4.765625 -0.234375 C 4.796875 -0.191406 4.863281 -0.171875 4.96875 -0.171875 L 4.96875 0 L 3.015625 0 L 3.015625 -0.171875 C 3.117188 -0.171875 3.179688 -0.191406 3.203125 -0.234375 C 3.234375 -0.273438 3.25 -0.34375 3.25 -0.4375 L 3.25 -6.125 L 0.875 -6.125 C 0.78125 -6.125 0.703125 -6.113281 0.640625 -6.09375 C 0.578125 -6.082031 0.546875 -6.046875 0.546875 -5.984375 L 0.390625 -5.984375 Z M 0.390625 -7.4375 "/></g></g></g><g fill="#6a35aa" fill-opacity="1"><g transform="translate(76.512481, 49.806338)"><g><path d="M 3.046875 -7.296875 L 3.046875 -7.140625 C 2.910156 -7.140625 2.820312 -7.117188 2.78125 -7.078125 C 2.75 -7.035156 2.734375 -6.957031 2.734375 -6.84375 L 2.734375 -0.453125 C 2.734375 -0.335938 2.753906 -0.257812 2.796875 -0.21875 C 2.835938 -0.1875 2.921875 -0.171875 3.046875 -0.171875 L 3.046875 0 L 0.953125 0 L 0.953125 -0.171875 C 1.085938 -0.171875 1.175781 -0.1875 1.21875 -0.21875 C 1.257812 -0.257812 1.28125 -0.335938 1.28125 -0.453125 L 1.28125 -6.84375 C 1.28125 -6.957031 1.257812 -7.035156 1.21875 -7.078125 C 1.175781 -7.117188 1.085938 -7.140625 0.953125 -7.140625 L 0.953125 -7.296875 Z M 3.046875 -7.296875 "/></g></g></g><g fill="#6a35aa" fill-opacity="1"><g transform="translate(81.128822, 49.806338)"><g><path d="M 3.453125 -4.234375 L 3.453125 -3.0625 L 0.53125 -3.0625 L 0.53125 -4.234375 Z M 3.453125 -4.234375 "/></g></g></g><g fill="#6a35aa" fill-opacity="1"><g transform="translate(85.745163, 49.806338)"><g><path d="M 7.734375 -5.953125 L 7.5625 -5.953125 C 7.5625 -5.992188 7.53125 -6.03125 7.46875 -6.0625 C 7.414062 -6.101562 7.332031 -6.125 7.21875 -6.125 L 2.734375 -6.125 L 2.734375 -4.28125 L 5.65625 -4.28125 C 5.78125 -4.28125 5.867188 -4.296875 5.921875 -4.328125 C 5.984375 -4.359375 6.015625 -4.425781 6.015625 -4.53125 L 6.171875 -4.53125 L 6.171875 -2.9375 L 6.015625 -2.9375 C 6.015625 -2.976562 5.988281 -3.015625 5.9375 -3.046875 C 5.882812 -3.085938 5.796875 -3.109375 5.671875 -3.109375 L 2.734375 -3.109375 L 2.734375 -0.46875 C 2.734375 -0.351562 2.742188 -0.273438 2.765625 -0.234375 C 2.785156 -0.191406 2.84375 -0.171875 2.9375 -0.171875 L 2.9375 0 L 1 0 L 1 -0.171875 C 1.101562 -0.171875 1.171875 -0.1875 1.203125 -0.21875 C 1.242188 -0.257812 1.265625 -0.332031 1.265625 -0.4375 L 1.265625 -6.875 C 1.265625 -6.976562 1.242188 -7.046875 1.203125 -7.078125 C 1.171875 -7.117188 1.101562 -7.140625 1 -7.140625 L 1 -7.296875 L 7.203125 -7.296875 C 7.429688 -7.296875 7.550781 -7.335938 7.5625 -7.421875 L 7.734375 -7.421875 Z M 7.734375 -5.953125 "/></g></g></g><g fill="#6a35aa" fill-opacity="1"><g transform="translate(94.355372, 49.806338)"><g><path d="M 7.953125 -5.90625 L 7.796875 -5.90625 C 7.796875 -6.050781 7.675781 -6.125 7.4375 -6.125 L 2.640625 -6.125 L 2.640625 -4.28125 L 5.75 -4.28125 C 5.851562 -4.28125 5.9375 -4.289062 6 -4.3125 C 6.0625 -4.34375 6.09375 -4.390625 6.09375 -4.453125 L 6.265625 -4.453125 L 6.265625 -2.9375 L 6.09375 -2.9375 C 6.09375 -2.976562 6.0625 -3.015625 6 -3.046875 C 5.945312 -3.085938 5.863281 -3.109375 5.75 -3.109375 L 2.640625 -3.109375 L 2.640625 -1.171875 L 7.53125 -1.171875 C 7.613281 -1.171875 7.691406 -1.179688 7.765625 -1.203125 C 7.835938 -1.234375 7.875 -1.28125 7.875 -1.34375 L 8.046875 -1.34375 L 8.046875 0.140625 L 7.875 0.140625 C 7.875 0.078125 7.835938 0.0351562 7.765625 0.015625 C 7.691406 0.00390625 7.601562 0 7.5 0 L 0.953125 0 L 0.953125 -0.171875 C 1.046875 -0.171875 1.101562 -0.191406 1.125 -0.234375 C 1.15625 -0.273438 1.171875 -0.351562 1.171875 -0.46875 L 1.171875 -6.828125 C 1.171875 -6.941406 1.15625 -7.019531 1.125 -7.0625 C 1.101562 -7.113281 1.046875 -7.140625 0.953125 -7.140625 L 0.953125 -7.296875 L 7.4375 -7.296875 C 7.675781 -7.296875 7.796875 -7.34375 7.796875 -7.4375 L 7.953125 -7.4375 Z M 7.953125 -5.90625 "/></g></g></g><g fill="#6a35aa" fill-opacity="1"><g transform="translate(103.623262, 49.806338)"><g><path d="M 3.046875 -7.296875 L 3.046875 -7.140625 C 2.953125 -7.140625 2.90625 -7.082031 2.90625 -6.96875 C 2.90625 -6.90625 2.941406 -6.8125 3.015625 -6.6875 L 5.34375 -2.5625 L 7.515625 -6.625 C 7.609375 -6.820312 7.65625 -6.945312 7.65625 -7 C 7.65625 -7.039062 7.632812 -7.070312 7.59375 -7.09375 C 7.550781 -7.113281 7.5 -7.128906 7.4375 -7.140625 L 7.4375 -7.296875 L 9.65625 -7.296875 L 9.65625 -7.140625 C 9.5625 -7.140625 9.5 -7.117188 9.46875 -7.078125 C 9.4375 -7.046875 9.421875 -6.976562 9.421875 -6.875 L 9.421875 -0.453125 C 9.421875 -0.335938 9.429688 -0.257812 9.453125 -0.21875 C 9.484375 -0.1875 9.550781 -0.171875 9.65625 -0.171875 L 9.65625 0 L 7.921875 0 L 7.921875 -0.171875 C 8.015625 -0.171875 8.078125 -0.191406 8.109375 -0.234375 C 8.140625 -0.273438 8.15625 -0.347656 8.15625 -0.453125 L 8.15625 -5.03125 L 8.125 -5.03125 L 5.484375 0 L 5.25 0 L 2.5 -4.953125 L 2.5 -0.4375 C 2.5 -0.332031 2.519531 -0.257812 2.5625 -0.21875 C 2.601562 -0.1875 2.6875 -0.171875 2.8125 -0.171875 L 2.8125 0 L 0.984375 0 L 0.984375 -0.171875 C 1.085938 -0.171875 1.15625 -0.1875 1.1875 -0.21875 C 1.21875 -0.257812 1.234375 -0.332031 1.234375 -0.4375 L 1.234375 -6.859375 C 1.234375 -6.972656 1.21875 -7.046875 1.1875 -7.078125 C 1.15625 -7.117188 1.085938 -7.140625 0.984375 -7.140625 L 0.984375 -7.296875 Z M 3.046875 -7.296875 "/></g></g></g><g fill="#6a35aa" fill-opacity="1"><g transform="translate(114.888081, 49.806338)"><g><path d="M 3.046875 -7.296875 L 3.046875 -7.140625 C 2.910156 -7.140625 2.820312 -7.117188 2.78125 -7.078125 C 2.75 -7.035156 2.734375 -6.957031 2.734375 -6.84375 L 2.734375 -0.453125 C 2.734375 -0.335938 2.753906 -0.257812 2.796875 -0.21875 C 2.835938 -0.1875 2.921875 -0.171875 3.046875 -0.171875 L 3.046875 0 L 0.953125 0 L 0.953125 -0.171875 C 1.085938 -0.171875 1.175781 -0.1875 1.21875 -0.21875 C 1.257812 -0.257812 1.28125 -0.335938 1.28125 -0.453125 L 1.28125 -6.84375 C 1.28125 -6.957031 1.257812 -7.035156 1.21875 -7.078125 C 1.175781 -7.117188 1.085938 -7.140625 0.953125 -7.140625 L 0.953125 -7.296875 Z M 3.046875 -7.296875 "/></g></g></g><g fill="#6a35aa" fill-opacity="1"><g transform="translate(119.504422, 49.806338)"><g><path d="M 5.140625 -7.421875 C 5.773438 -7.421875 6.316406 -7.351562 6.765625 -7.21875 C 7.210938 -7.09375 7.546875 -6.976562 7.765625 -6.875 C 7.898438 -6.8125 8.015625 -6.753906 8.109375 -6.703125 C 8.203125 -6.660156 8.269531 -6.640625 8.3125 -6.640625 C 8.320312 -6.640625 8.359375 -6.65625 8.421875 -6.6875 L 8.625 -6.609375 L 7.75 -5 L 7.546875 -5.109375 C 7.546875 -5.128906 7.550781 -5.148438 7.5625 -5.171875 C 7.582031 -5.191406 7.59375 -5.222656 7.59375 -5.265625 C 7.59375 -5.316406 7.523438 -5.398438 7.390625 -5.515625 C 7.265625 -5.628906 7.085938 -5.738281 6.859375 -5.84375 C 6.628906 -5.957031 6.359375 -6.050781 6.046875 -6.125 C 5.734375 -6.207031 5.382812 -6.25 5 -6.25 C 4.550781 -6.25 4.140625 -6.179688 3.765625 -6.046875 C 3.390625 -5.921875 3.0625 -5.742188 2.78125 -5.515625 C 2.507812 -5.296875 2.300781 -5.023438 2.15625 -4.703125 C 2.007812 -4.390625 1.9375 -4.046875 1.9375 -3.671875 C 1.9375 -3.203125 2.015625 -2.800781 2.171875 -2.46875 C 2.335938 -2.132812 2.554688 -1.863281 2.828125 -1.65625 C 3.109375 -1.445312 3.425781 -1.289062 3.78125 -1.1875 C 4.144531 -1.09375 4.515625 -1.046875 4.890625 -1.046875 C 5.285156 -1.046875 5.65625 -1.09375 6 -1.1875 C 6.351562 -1.28125 6.660156 -1.390625 6.921875 -1.515625 C 7.191406 -1.640625 7.40625 -1.769531 7.5625 -1.90625 C 7.71875 -2.050781 7.796875 -2.171875 7.796875 -2.265625 C 7.796875 -2.285156 7.785156 -2.335938 7.765625 -2.421875 L 7.953125 -2.515625 L 8.921875 -1.125 L 8.71875 -1.03125 C 8.695312 -1.039062 8.675781 -1.046875 8.65625 -1.046875 C 8.632812 -1.054688 8.601562 -1.0625 8.5625 -1.0625 C 8.53125 -1.0625 8.488281 -1.039062 8.4375 -1 C 8.382812 -0.96875 8.320312 -0.921875 8.25 -0.859375 C 8.1875 -0.804688 8.097656 -0.738281 7.984375 -0.65625 C 7.867188 -0.570312 7.734375 -0.492188 7.578125 -0.421875 C 7.296875 -0.273438 6.921875 -0.144531 6.453125 -0.03125 C 5.984375 0.0703125 5.425781 0.125 4.78125 0.125 C 4.207031 0.125 3.660156 0.046875 3.140625 -0.109375 C 2.628906 -0.273438 2.175781 -0.515625 1.78125 -0.828125 C 1.382812 -1.140625 1.066406 -1.523438 0.828125 -1.984375 C 0.597656 -2.453125 0.484375 -2.988281 0.484375 -3.59375 C 0.484375 -4.132812 0.59375 -4.640625 0.8125 -5.109375 C 1.039062 -5.578125 1.359375 -5.976562 1.765625 -6.3125 C 2.171875 -6.65625 2.660156 -6.925781 3.234375 -7.125 C 3.804688 -7.320312 4.441406 -7.421875 5.140625 -7.421875 Z M 5.140625 -7.421875 "/></g></g></g><g fill="#6a35aa" fill-opacity="1"><g transform="translate(129.441937, 49.806338)"><g><path d="M 3.046875 -7.296875 L 3.046875 -7.140625 C 2.910156 -7.140625 2.820312 -7.117188 2.78125 -7.078125 C 2.75 -7.035156 2.734375 -6.957031 2.734375 -6.84375 L 2.734375 -0.453125 C 2.734375 -0.335938 2.753906 -0.257812 2.796875 -0.21875 C 2.835938 -0.1875 2.921875 -0.171875 3.046875 -0.171875 L 3.046875 0 L 0.953125 0 L 0.953125 -0.171875 C 1.085938 -0.171875 1.175781 -0.1875 1.21875 -0.21875 C 1.257812 -0.257812 1.28125 -0.335938 1.28125 -0.453125 L 1.28125 -6.84375 C 1.28125 -6.957031 1.257812 -7.035156 1.21875 -7.078125 C 1.175781 -7.117188 1.085938 -7.140625 0.953125 -7.140625 L 0.953125 -7.296875 Z M 3.046875 -7.296875 "/></g></g></g><g fill="#6a35aa" fill-opacity="1"><g transform="translate(134.058278, 49.806338)"><g><path d="M 4.859375 -1.171875 C 5.285156 -1.171875 5.648438 -1.210938 5.953125 -1.296875 C 6.265625 -1.378906 6.515625 -1.519531 6.703125 -1.71875 C 6.898438 -1.914062 7.046875 -2.171875 7.140625 -2.484375 C 7.234375 -2.796875 7.28125 -3.1875 7.28125 -3.65625 C 7.28125 -4.0625 7.238281 -4.414062 7.15625 -4.71875 C 7.082031 -5.03125 6.953125 -5.289062 6.765625 -5.5 C 6.578125 -5.707031 6.328125 -5.863281 6.015625 -5.96875 C 5.710938 -6.070312 5.332031 -6.125 4.875 -6.125 L 2.703125 -6.125 L 2.703125 -1.171875 Z M 5 -7.296875 C 5.570312 -7.296875 6.085938 -7.210938 6.546875 -7.046875 C 7.015625 -6.878906 7.410156 -6.640625 7.734375 -6.328125 C 8.054688 -6.015625 8.300781 -5.628906 8.46875 -5.171875 C 8.644531 -4.722656 8.734375 -4.21875 8.734375 -3.65625 C 8.734375 -2.46875 8.410156 -1.5625 7.765625 -0.9375 C 7.117188 -0.3125 6.207031 0 5.03125 0 L 1 0 L 1 -0.171875 C 1.101562 -0.171875 1.171875 -0.1875 1.203125 -0.21875 C 1.234375 -0.257812 1.25 -0.332031 1.25 -0.4375 L 1.25 -6.84375 C 1.25 -6.945312 1.234375 -7.019531 1.203125 -7.0625 C 1.171875 -7.113281 1.101562 -7.140625 1 -7.140625 L 1 -7.296875 Z M 5 -7.296875 "/></g></g></g><g fill="#6a35aa" fill-opacity="1"><g transform="translate(143.995788, 49.806338)"><g><path d="M 7.953125 -5.90625 L 7.796875 -5.90625 C 7.796875 -6.050781 7.675781 -6.125 7.4375 -6.125 L 2.640625 -6.125 L 2.640625 -4.28125 L 5.75 -4.28125 C 5.851562 -4.28125 5.9375 -4.289062 6 -4.3125 C 6.0625 -4.34375 6.09375 -4.390625 6.09375 -4.453125 L 6.265625 -4.453125 L 6.265625 -2.9375 L 6.09375 -2.9375 C 6.09375 -2.976562 6.0625 -3.015625 6 -3.046875 C 5.945312 -3.085938 5.863281 -3.109375 5.75 -3.109375 L 2.640625 -3.109375 L 2.640625 -1.171875 L 7.53125 -1.171875 C 7.613281 -1.171875 7.691406 -1.179688 7.765625 -1.203125 C 7.835938 -1.234375 7.875 -1.28125 7.875 -1.34375 L 8.046875 -1.34375 L 8.046875 0.140625 L 7.875 0.140625 C 7.875 0.078125 7.835938 0.0351562 7.765625 0.015625 C 7.691406 0.00390625 7.601562 0 7.5 0 L 0.953125 0 L 0.953125 -0.171875 C 1.046875 -0.171875 1.101562 -0.191406 1.125 -0.234375 C 1.15625 -0.273438 1.171875 -0.351562 1.171875 -0.46875 L 1.171875 -6.828125 C 1.171875 -6.941406 1.15625 -7.019531 1.125 -7.0625 C 1.101562 -7.113281 1.046875 -7.140625 0.953125 -7.140625 L 0.953125 -7.296875 L 7.4375 -7.296875 C 7.675781 -7.296875 7.796875 -7.34375 7.796875 -7.4375 L 7.953125 -7.4375 Z M 7.953125 -5.90625 "/></g></g></g><g fill="#6a35aa" fill-opacity="1"><g transform="translate(153.263672, 49.806338)"><g/></g></g><g fill="#6a35aa" fill-opacity="1"><g transform="translate(158.549633, 49.806338)"><g><path d="M 3.03125 -3.140625 L 5.421875 -3.140625 L 4.21875 -5.765625 Z M 5.34375 -7.296875 L 5.34375 -7.140625 C 5.300781 -7.140625 5.265625 -7.128906 5.234375 -7.109375 C 5.203125 -7.085938 5.1875 -7.054688 5.1875 -7.015625 C 5.1875 -6.984375 5.195312 -6.953125 5.21875 -6.921875 C 5.238281 -6.890625 5.273438 -6.816406 5.328125 -6.703125 L 8.03125 -0.84375 C 8.144531 -0.570312 8.226562 -0.390625 8.28125 -0.296875 C 8.34375 -0.210938 8.40625 -0.171875 8.46875 -0.171875 L 8.46875 0 L 6.515625 0 L 6.515625 -0.171875 C 6.617188 -0.171875 6.671875 -0.207031 6.671875 -0.28125 C 6.671875 -0.320312 6.660156 -0.363281 6.640625 -0.40625 C 6.628906 -0.445312 6.617188 -0.488281 6.609375 -0.53125 C 6.585938 -0.570312 6.523438 -0.707031 6.421875 -0.9375 C 6.316406 -1.164062 6.160156 -1.507812 5.953125 -1.96875 L 2.5 -1.96875 L 1.90625 -0.578125 C 1.84375 -0.453125 1.8125 -0.367188 1.8125 -0.328125 C 1.8125 -0.222656 1.878906 -0.171875 2.015625 -0.171875 L 2.015625 0 L 0.171875 0 L 0.171875 -0.171875 C 0.273438 -0.171875 0.347656 -0.21875 0.390625 -0.3125 C 0.441406 -0.40625 0.507812 -0.550781 0.59375 -0.75 L 3.234375 -6.625 C 3.273438 -6.726562 3.304688 -6.804688 3.328125 -6.859375 C 3.359375 -6.910156 3.375 -6.957031 3.375 -7 C 3.375 -7.039062 3.359375 -7.070312 3.328125 -7.09375 C 3.304688 -7.125 3.28125 -7.140625 3.25 -7.140625 L 3.25 -7.296875 Z M 5.34375 -7.296875 "/></g></g></g><g fill="#6a35aa" fill-opacity="1"><g transform="translate(167.817517, 49.806338)"><g><path d="M 5.515625 -4.234375 C 5.960938 -4.234375 6.273438 -4.296875 6.453125 -4.421875 C 6.628906 -4.554688 6.71875 -4.8125 6.71875 -5.1875 C 6.71875 -5.5625 6.625 -5.8125 6.4375 -5.9375 C 6.257812 -6.0625 5.945312 -6.125 5.5 -6.125 L 2.703125 -6.125 L 2.703125 -4.234375 Z M 5.71875 -7.296875 C 6.476562 -7.296875 7.078125 -7.128906 7.515625 -6.796875 C 7.953125 -6.460938 8.171875 -5.914062 8.171875 -5.15625 C 8.171875 -4.457031 7.960938 -3.929688 7.546875 -3.578125 C 7.140625 -3.234375 6.5625 -3.0625 5.8125 -3.0625 L 2.703125 -3.0625 L 2.703125 -0.453125 C 2.703125 -0.335938 2.710938 -0.257812 2.734375 -0.21875 C 2.765625 -0.1875 2.832031 -0.171875 2.9375 -0.171875 L 2.9375 0 L 1 0 L 1 -0.171875 C 1.101562 -0.171875 1.171875 -0.1875 1.203125 -0.21875 C 1.234375 -0.257812 1.25 -0.335938 1.25 -0.453125 L 1.25 -6.859375 C 1.25 -6.972656 1.234375 -7.046875 1.203125 -7.078125 C 1.171875 -7.117188 1.101562 -7.140625 1 -7.140625 L 1 -7.296875 Z M 5.71875 -7.296875 "/></g></g></g><g fill="#6a35aa" fill-opacity="1"><g transform="translate(177.085401, 49.806338)"><g><path d="M 5.515625 -4.234375 C 5.960938 -4.234375 6.273438 -4.296875 6.453125 -4.421875 C 6.628906 -4.554688 6.71875 -4.8125 6.71875 -5.1875 C 6.71875 -5.5625 6.625 -5.8125 6.4375 -5.9375 C 6.257812 -6.0625 5.945312 -6.125 5.5 -6.125 L 2.703125 -6.125 L 2.703125 -4.234375 Z M 5.71875 -7.296875 C 6.476562 -7.296875 7.078125 -7.128906 7.515625 -6.796875 C 7.953125 -6.460938 8.171875 -5.914062 8.171875 -5.15625 C 8.171875 -4.457031 7.960938 -3.929688 7.546875 -3.578125 C 7.140625 -3.234375 6.5625 -3.0625 5.8125 -3.0625 L 2.703125 -3.0625 L 2.703125 -0.453125 C 2.703125 -0.335938 2.710938 -0.257812 2.734375 -0.21875 C 2.765625 -0.1875 2.832031 -0.171875 2.9375 -0.171875 L 2.9375 0 L 1 0 L 1 -0.171875 C 1.101562 -0.171875 1.171875 -0.1875 1.203125 -0.21875 C 1.234375 -0.257812 1.25 -0.335938 1.25 -0.453125 L 1.25 -6.859375 C 1.25 -6.972656 1.234375 -7.046875 1.203125 -7.078125 C 1.171875 -7.117188 1.101562 -7.140625 1 -7.140625 L 1 -7.296875 Z M 5.71875 -7.296875 "/></g></g></g></svg>