<svg xmlns="http://www.w3.org/2000/svg" xmlns:xlink="http://www.w3.org/1999/xlink" width="256" zoomAndPan="magnify" viewBox="0 0 192 191.999996" height="256" preserveAspectRatio="xMidYMid meet" version="1.0"><defs><clipPath id="1c73bfcfc0"><path d="M 14.234375 19.199219 L 134 19.199219 L 134 173.699219 L 14.234375 173.699219 Z M 14.234375 19.199219 " clip-rule="nonzero"/></clipPath><clipPath id="c6d301fea0"><path d="M 104 49 L 156.734375 49 L 156.734375 87 L 104 87 Z M 104 49 " clip-rule="nonzero"/></clipPath></defs><g clip-path="url(#1c73bfcfc0)"><path fill="#e61f93" d="M 31.417969 22.011719 L 43.414062 22.011719 C 43.558594 20.382812 44.96875 19.199219 46.59375 19.199219 L 101.082031 19.199219 C 102.710938 19.199219 104.117188 20.457031 104.191406 22.011719 L 116.257812 22.011719 C 120.996094 22.011719 125.21875 24.011719 128.398438 27.046875 C 131.507812 30.15625 133.433594 34.449219 133.433594 39.1875 L 133.433594 53.476562 L 127.734375 56.808594 L 127.734375 39.261719 C 127.734375 36.152344 126.476562 33.191406 124.328125 31.191406 C 122.328125 29.121094 119.367188 27.789062 116.257812 27.789062 L 104.191406 27.789062 C 104.042969 29.417969 102.636719 30.675781 101.082031 30.675781 L 46.59375 30.675781 C 44.96875 30.675781 43.558594 29.417969 43.414062 27.789062 L 31.417969 27.789062 C 28.308594 27.789062 25.347656 29.046875 23.277344 31.191406 C 21.277344 33.191406 19.945312 36.152344 19.945312 39.261719 L 19.945312 156.304688 C 19.945312 159.414062 21.203125 162.375 23.277344 164.375 C 25.347656 166.449219 28.234375 167.78125 31.417969 167.78125 L 116.332031 167.78125 C 119.441406 167.78125 122.402344 166.523438 124.402344 164.375 C 126.476562 162.375 127.808594 159.414062 127.808594 156.304688 L 127.808594 84.050781 L 133.507812 80.71875 L 133.507812 156.230469 C 133.507812 160.96875 131.507812 165.261719 128.472656 168.371094 C 125.363281 171.480469 121.070312 173.40625 116.332031 173.40625 L 31.417969 173.40625 C 26.679688 173.40625 22.386719 171.40625 19.277344 168.371094 C 16.167969 165.261719 14.242188 160.96875 14.242188 156.230469 L 14.242188 39.1875 C 14.242188 34.449219 16.167969 30.230469 19.277344 27.046875 C 22.386719 23.9375 26.679688 22.011719 31.417969 22.011719 Z M 31.417969 22.011719 " fill-opacity="1" fill-rule="nonzero"/></g><path fill="#e61f93" d="M 38.527344 102.113281 C 37.636719 101.300781 37.636719 99.96875 38.527344 99.152344 C 39.339844 98.265625 40.671875 98.265625 41.488281 99.152344 L 45.335938 103.003906 L 52.8125 90.121094 C 53.332031 89.160156 54.664062 88.789062 55.703125 89.382812 C 56.664062 89.898438 57.035156 91.230469 56.441406 92.269531 L 47.78125 107.371094 C 47.632812 107.519531 47.558594 107.742188 47.335938 107.890625 C 46.523438 108.703125 45.1875 108.703125 44.375 107.890625 L 38.527344 102.039062 Z M 38.527344 102.113281 " fill-opacity="1" fill-rule="nonzero"/><path fill="#e61f93" d="M 64.214844 101.96875 C 63.03125 101.96875 62.140625 101.078125 62.140625 99.894531 C 62.140625 98.710938 63.03125 97.820312 64.214844 97.820312 L 107.820312 97.820312 C 109.003906 97.820312 109.890625 98.710938 109.890625 99.894531 C 109.890625 101.078125 109.003906 101.96875 107.820312 101.96875 Z M 64.214844 101.96875 " fill-opacity="1" fill-rule="nonzero"/><path fill="#e61f93" d="M 38.527344 124.101562 C 37.636719 123.289062 37.636719 121.957031 38.527344 121.140625 C 39.339844 120.253906 40.671875 120.253906 41.488281 121.140625 L 45.335938 124.992188 L 52.8125 112.109375 C 53.332031 111.148438 54.664062 110.777344 55.703125 111.367188 C 56.664062 111.886719 57.035156 113.21875 56.441406 114.257812 L 47.78125 129.359375 C 47.632812 129.507812 47.558594 129.730469 47.335938 129.875 C 46.523438 130.691406 45.1875 130.691406 44.375 129.875 L 38.527344 124.027344 Z M 38.527344 124.101562 " fill-opacity="1" fill-rule="nonzero"/><path fill="#e61f93" d="M 64.214844 123.953125 C 63.03125 123.953125 62.140625 123.066406 62.140625 121.882812 C 62.140625 120.695312 63.03125 119.808594 64.214844 119.808594 L 107.820312 119.808594 C 109.003906 119.808594 109.890625 120.695312 109.890625 121.882812 C 109.890625 123.066406 109.003906 123.953125 107.820312 123.953125 Z M 64.214844 123.953125 " fill-opacity="1" fill-rule="nonzero"/><path fill="#e61f93" d="M 38.527344 146.089844 C 37.636719 145.273438 37.636719 143.941406 38.527344 143.128906 C 39.339844 142.238281 40.671875 142.238281 41.488281 143.128906 L 45.335938 146.976562 L 52.8125 134.097656 C 53.332031 133.132812 54.664062 132.765625 55.703125 133.355469 C 56.664062 133.875 57.035156 135.207031 56.441406 136.167969 L 47.78125 151.34375 C 47.632812 151.492188 47.558594 151.714844 47.335938 151.863281 C 46.523438 152.679688 45.1875 152.679688 44.375 151.863281 L 38.527344 146.015625 Z M 38.527344 146.089844 " fill-opacity="1" fill-rule="nonzero"/><path fill="#e61f93" d="M 64.214844 145.941406 C 63.03125 145.941406 62.140625 145.054688 62.140625 143.867188 C 62.140625 142.683594 63.03125 141.722656 64.214844 141.722656 L 107.820312 141.722656 C 109.003906 141.722656 109.890625 142.683594 109.890625 143.867188 C 109.890625 145.054688 109.003906 145.941406 107.820312 145.941406 Z M 64.214844 145.941406 " fill-opacity="1" fill-rule="nonzero"/><path fill="#e61f93" d="M 73.914062 40.742188 C 84.722656 40.742188 93.457031 49.480469 93.457031 60.289062 C 93.457031 71.097656 84.722656 79.832031 73.914062 79.832031 C 63.105469 79.832031 54.367188 71.097656 54.367188 60.289062 C 54.367188 49.480469 63.105469 40.742188 73.914062 40.742188 Z M 73.914062 50.144531 C 77.023438 50.144531 79.613281 52.660156 79.613281 55.84375 C 79.613281 58.953125 77.097656 61.546875 73.914062 61.546875 C 70.804688 61.546875 68.210938 59.027344 68.210938 55.84375 C 68.210938 52.734375 70.730469 50.144531 73.914062 50.144531 Z M 69.988281 63.175781 L 77.835938 63.175781 C 81.539062 63.175781 84.5 66.136719 84.5 69.835938 L 84.5 70.355469 L 63.328125 70.355469 L 63.328125 69.835938 C 63.328125 66.136719 66.289062 63.175781 69.988281 63.175781 Z M 69.988281 63.175781 " fill-opacity="1" fill-rule="evenodd"/><g clip-path="url(#c6d301fea0)"><path fill="#e61f93" d="M 149.648438 50.292969 L 156.160156 61.546875 C 156.679688 62.433594 156.382812 63.542969 155.496094 64.0625 L 117.445312 86.050781 C 117.074219 86.273438 116.703125 86.347656 116.257812 86.273438 L 105.96875 84.71875 C 105.375 84.644531 104.933594 84.347656 104.636719 83.828125 C 104.339844 83.3125 104.339844 82.792969 104.488281 82.273438 L 108.261719 72.578125 C 108.410156 72.207031 108.707031 71.835938 109.078125 71.6875 L 147.128906 49.699219 C 148.019531 49.183594 149.128906 49.480469 149.648438 50.367188 Z M 147.425781 53.476562 C 147.648438 53.921875 147.5 54.4375 147.128906 54.660156 L 113.148438 74.277344 C 112.707031 74.5 112.1875 74.351562 111.964844 73.984375 C 111.742188 73.539062 111.890625 73.019531 112.261719 72.796875 L 146.242188 53.179688 C 146.6875 52.957031 147.203125 53.105469 147.425781 53.476562 Z M 147.425781 53.476562 " fill-opacity="1" fill-rule="evenodd"/></g></svg>