<svg xmlns="http://www.w3.org/2000/svg" xmlns:xlink="http://www.w3.org/1999/xlink" width="256" zoomAndPan="magnify" viewBox="0 0 192 191.999996" height="256" preserveAspectRatio="xMidYMid meet" version="1.0"><defs><clipPath id="86919994e7"><path d="M 12 19.199219 L 154 19.199219 L 154 173.699219 L 12 173.699219 Z M 12 19.199219 " clip-rule="nonzero"/></clipPath></defs><g clip-path="url(#86919994e7)"><path fill="#e61f93" d="M 60.667969 67.421875 L 60.667969 74.273438 C 60.667969 74.515625 60.621094 74.75 60.527344 74.972656 C 60.4375 75.195312 60.304688 75.390625 60.132812 75.5625 C 59.964844 75.734375 59.765625 75.867188 59.542969 75.957031 C 59.320312 76.050781 59.089844 76.097656 58.847656 76.097656 C 58.605469 76.097656 58.371094 76.050781 58.148438 75.957031 C 57.925781 75.867188 57.730469 75.734375 57.558594 75.5625 C 57.386719 75.390625 57.257812 75.195312 57.164062 74.972656 C 57.070312 74.75 57.023438 74.515625 57.023438 74.273438 L 57.023438 67.421875 C 57.023438 67.183594 57.070312 66.949219 57.164062 66.726562 C 57.257812 66.503906 57.386719 66.304688 57.558594 66.136719 C 57.730469 65.964844 57.925781 65.832031 58.148438 65.742188 C 58.371094 65.648438 58.605469 65.601562 58.847656 65.601562 C 59.089844 65.601562 59.320312 65.648438 59.542969 65.742188 C 59.765625 65.832031 59.964844 65.964844 60.132812 66.136719 C 60.304688 66.304688 60.4375 66.503906 60.527344 66.726562 C 60.621094 66.949219 60.667969 67.183594 60.667969 67.421875 Z M 67.835938 78.46875 C 68.078125 78.46875 68.3125 78.425781 68.535156 78.332031 C 68.757812 78.238281 68.953125 78.109375 69.125 77.9375 C 69.296875 77.765625 69.429688 77.570312 69.519531 77.347656 C 69.613281 77.121094 69.660156 76.890625 69.660156 76.648438 L 69.660156 63.523438 C 69.660156 63.28125 69.613281 63.046875 69.519531 62.824219 C 69.429688 62.601562 69.296875 62.40625 69.125 62.234375 C 68.953125 62.0625 68.757812 61.933594 68.535156 61.839844 C 68.3125 61.746094 68.078125 61.699219 67.839844 61.699219 C 67.597656 61.699219 67.363281 61.746094 67.140625 61.839844 C 66.917969 61.933594 66.722656 62.0625 66.550781 62.234375 C 66.378906 62.40625 66.246094 62.601562 66.15625 62.824219 C 66.0625 63.046875 66.015625 63.28125 66.015625 63.523438 L 66.015625 76.648438 C 66.015625 76.890625 66.0625 77.121094 66.15625 77.347656 C 66.246094 77.570312 66.378906 77.765625 66.550781 77.9375 C 66.722656 78.109375 66.917969 78.238281 67.140625 78.332031 C 67.363281 78.425781 67.597656 78.46875 67.835938 78.46875 Z M 85.820312 95.730469 C 86.0625 95.730469 86.292969 95.683594 86.519531 95.589844 C 86.742188 95.5 86.9375 95.367188 87.109375 95.195312 C 87.28125 95.027344 87.410156 94.828125 87.503906 94.605469 C 87.597656 94.382812 87.640625 94.148438 87.640625 93.910156 L 87.640625 59.164062 C 87.640625 58.921875 87.597656 58.6875 87.503906 58.464844 C 87.410156 58.242188 87.28125 58.046875 87.109375 57.875 C 86.9375 57.703125 86.742188 57.574219 86.519531 57.480469 C 86.292969 57.386719 86.0625 57.34375 85.820312 57.34375 C 85.578125 57.34375 85.347656 57.386719 85.125 57.480469 C 84.902344 57.574219 84.703125 57.703125 84.53125 57.875 C 84.363281 58.046875 84.230469 58.242188 84.136719 58.464844 C 84.046875 58.6875 84 58.921875 84 59.164062 L 84 93.910156 C 84 94.148438 84.046875 94.382812 84.136719 94.605469 C 84.230469 94.828125 84.363281 95.027344 84.53125 95.195312 C 84.703125 95.367188 84.902344 95.5 85.125 95.589844 C 85.347656 95.683594 85.578125 95.730469 85.820312 95.730469 Z M 76.828125 98.628906 C 77.070312 98.628906 77.304688 98.585938 77.527344 98.492188 C 77.75 98.398438 77.945312 98.265625 78.117188 98.097656 C 78.289062 97.925781 78.417969 97.730469 78.511719 97.507812 C 78.605469 97.28125 78.652344 97.050781 78.652344 96.808594 L 78.652344 62.453125 C 78.652344 62.210938 78.605469 61.980469 78.511719 61.757812 C 78.417969 61.535156 78.289062 61.335938 78.117188 61.167969 C 77.945312 60.996094 77.75 60.863281 77.527344 60.769531 C 77.304688 60.679688 77.070312 60.632812 76.828125 60.632812 C 76.585938 60.632812 76.355469 60.679688 76.132812 60.769531 C 75.910156 60.863281 75.710938 60.996094 75.542969 61.167969 C 75.371094 61.335938 75.238281 61.535156 75.148438 61.757812 C 75.054688 61.980469 75.007812 62.210938 75.007812 62.453125 L 75.007812 96.808594 C 75.007812 97.050781 75.054688 97.28125 75.148438 97.507812 C 75.238281 97.730469 75.371094 97.925781 75.542969 98.097656 C 75.710938 98.269531 75.910156 98.398438 76.132812 98.492188 C 76.355469 98.585938 76.585938 98.628906 76.828125 98.628906 Z M 153.6875 155.660156 L 153.6875 166.792969 C 153.6875 167.035156 153.640625 167.269531 153.546875 167.492188 C 153.453125 167.714844 153.324219 167.910156 153.152344 168.082031 C 152.980469 168.253906 152.785156 168.382812 152.5625 168.476562 C 152.339844 168.570312 152.105469 168.617188 151.863281 168.617188 L 119.855469 168.617188 L 119.855469 171.585938 C 119.855469 171.828125 119.808594 172.058594 119.714844 172.28125 C 119.621094 172.503906 119.492188 172.703125 119.320312 172.875 C 119.148438 173.042969 118.953125 173.175781 118.730469 173.269531 C 118.507812 173.359375 118.273438 173.40625 118.03125 173.40625 L 37.28125 173.40625 C 37.039062 173.40625 36.808594 173.359375 36.585938 173.269531 C 36.363281 173.175781 36.164062 173.042969 35.996094 172.875 C 35.824219 172.703125 35.691406 172.503906 35.597656 172.28125 C 35.507812 172.058594 35.460938 171.828125 35.460938 171.585938 L 35.460938 168.617188 L 14.050781 168.617188 C 13.808594 168.617188 13.574219 168.570312 13.351562 168.476562 C 13.128906 168.382812 12.933594 168.253906 12.761719 168.082031 C 12.589844 167.910156 12.460938 167.714844 12.367188 167.492188 C 12.273438 167.269531 12.226562 167.035156 12.226562 166.792969 L 12.226562 155.660156 C 12.226562 155.421875 12.273438 155.1875 12.367188 154.964844 C 12.460938 154.742188 12.589844 154.542969 12.761719 154.375 C 12.933594 154.203125 13.128906 154.070312 13.351562 153.980469 C 13.574219 153.886719 13.808594 153.839844 14.050781 153.839844 L 19.914062 153.839844 C 19.917969 142.640625 19.9375 98.085938 19.964844 71.523438 C 19.964844 71.238281 20.027344 70.96875 20.152344 70.714844 C 20.28125 70.460938 20.457031 70.246094 20.683594 70.074219 C 20.90625 69.902344 21.160156 69.789062 21.4375 69.738281 C 21.71875 69.683594 21.992188 69.695312 22.269531 69.769531 L 48.621094 77.015625 L 48.632812 61.914062 C 48.632812 61.527344 48.746094 61.171875 48.96875 60.859375 C 49.195312 60.542969 49.492188 60.320312 49.859375 60.195312 L 92.554688 45.433594 L 92.554688 31.152344 C 92.554688 30.910156 92.601562 30.679688 92.695312 30.453125 C 92.785156 30.230469 92.917969 30.035156 93.089844 29.863281 C 93.257812 29.691406 93.457031 29.5625 93.679688 29.46875 C 93.902344 29.375 94.132812 29.332031 94.375 29.332031 L 99.054688 29.332031 L 99.054688 21.019531 C 99.054688 20.78125 99.097656 20.546875 99.191406 20.324219 C 99.285156 20.101562 99.414062 19.902344 99.585938 19.734375 C 99.757812 19.5625 99.953125 19.429688 100.175781 19.339844 C 100.402344 19.246094 100.632812 19.199219 100.875 19.199219 L 137.074219 19.199219 C 137.316406 19.199219 137.546875 19.246094 137.769531 19.339844 C 137.996094 19.429688 138.191406 19.5625 138.363281 19.734375 C 138.53125 19.902344 138.664062 20.101562 138.757812 20.324219 C 138.847656 20.546875 138.894531 20.78125 138.894531 21.019531 L 138.894531 29.332031 L 143.574219 29.332031 C 143.8125 29.332031 144.046875 29.375 144.269531 29.46875 C 144.492188 29.5625 144.691406 29.691406 144.859375 29.863281 C 145.03125 30.035156 145.164062 30.230469 145.253906 30.453125 C 145.347656 30.679688 145.394531 30.910156 145.394531 31.152344 L 145.394531 153.839844 L 151.863281 153.839844 C 152.105469 153.839844 152.339844 153.886719 152.5625 153.980469 C 152.785156 154.070312 152.980469 154.203125 153.152344 154.375 C 153.324219 154.542969 153.453125 154.742188 153.546875 154.964844 C 153.640625 155.1875 153.6875 155.421875 153.6875 155.660156 Z M 102.695312 29.332031 L 135.253906 29.332031 L 135.253906 22.84375 L 102.695312 22.84375 Z M 96.199219 32.972656 L 96.199219 97.726562 L 105.792969 95.46875 C 106.066406 95.40625 106.335938 95.40625 106.605469 95.464844 C 106.878906 95.523438 107.121094 95.640625 107.339844 95.8125 C 107.558594 95.988281 107.726562 96.199219 107.851562 96.449219 C 107.972656 96.699219 108.03125 96.960938 108.03125 97.238281 C 108.050781 107.839844 108.070312 120.71875 108.082031 131.738281 C 108.457031 131.949219 108.820312 132.179688 109.167969 132.433594 C 109.519531 132.6875 109.851562 132.960938 110.167969 133.253906 C 110.484375 133.546875 110.78125 133.859375 111.058594 134.1875 C 111.339844 134.515625 111.597656 134.859375 111.832031 135.21875 C 112.070312 135.582031 112.285156 135.953125 112.480469 136.339844 C 112.671875 136.722656 112.839844 137.121094 112.984375 137.527344 C 113.128906 137.933594 113.25 138.347656 113.347656 138.765625 C 113.441406 139.1875 113.511719 139.613281 113.554688 140.039062 C 113.601562 140.46875 113.617188 140.898438 113.613281 141.332031 C 113.605469 141.761719 113.570312 142.191406 113.511719 142.617188 C 113.453125 143.042969 113.371094 143.46875 113.257812 143.882812 C 113.148438 144.300781 113.015625 144.710938 112.855469 145.109375 C 112.699219 145.511719 112.515625 145.902344 112.3125 146.28125 C 112.105469 146.660156 111.878906 147.023438 111.628906 147.375 C 111.378906 147.726562 111.109375 148.0625 110.820312 148.382812 C 110.53125 148.703125 110.222656 149.003906 109.894531 149.285156 C 112.425781 150.246094 114.554688 151.765625 116.285156 153.84375 L 141.753906 153.84375 L 141.753906 32.972656 Z M 102.835938 148.289062 C 103.148438 148.289062 103.460938 148.269531 103.769531 148.226562 C 104.078125 148.1875 104.382812 148.125 104.683594 148.046875 C 104.984375 147.964844 105.28125 147.863281 105.566406 147.746094 C 105.855469 147.625 106.132812 147.488281 106.40625 147.332031 C 106.675781 147.175781 106.933594 147.003906 107.179688 146.8125 C 107.425781 146.621094 107.660156 146.417969 107.882812 146.195312 C 108.101562 145.976562 108.308594 145.742188 108.496094 145.492188 C 108.6875 145.246094 108.859375 144.988281 109.015625 144.71875 C 109.171875 144.449219 109.308594 144.167969 109.425781 143.878906 C 109.546875 143.59375 109.644531 143.296875 109.726562 142.996094 C 109.808594 142.695312 109.867188 142.390625 109.910156 142.082031 C 109.949219 141.769531 109.96875 141.460938 109.96875 141.148438 C 109.96875 140.835938 109.949219 140.527344 109.90625 140.21875 C 109.867188 139.910156 109.804688 139.601562 109.726562 139.300781 C 109.644531 139 109.542969 138.707031 109.425781 138.417969 C 109.304688 138.128906 109.167969 137.851562 109.011719 137.582031 C 108.855469 137.3125 108.683594 137.050781 108.492188 136.804688 C 108.304688 136.558594 108.097656 136.324219 107.878906 136.105469 C 107.65625 135.882812 107.421875 135.679688 107.175781 135.488281 C 106.929688 135.296875 106.667969 135.125 106.398438 134.96875 C 106.128906 134.8125 105.851562 134.675781 105.5625 134.558594 C 105.273438 134.4375 104.980469 134.335938 104.679688 134.257812 C 104.378906 134.175781 104.070312 134.117188 103.761719 134.074219 C 103.453125 134.035156 103.144531 134.015625 102.832031 134.015625 C 102.519531 134.015625 102.210938 134.035156 101.898438 134.074219 C 101.589844 134.117188 101.285156 134.175781 100.984375 134.257812 C 100.683594 134.335938 100.386719 134.4375 100.101562 134.558594 C 99.8125 134.675781 99.535156 134.8125 99.261719 134.96875 C 98.992188 135.125 98.734375 135.296875 98.488281 135.488281 C 98.238281 135.679688 98.003906 135.882812 97.785156 136.105469 C 97.566406 136.324219 97.359375 136.558594 97.167969 136.804688 C 96.980469 137.050781 96.808594 137.3125 96.652344 137.582031 C 96.496094 137.851562 96.355469 138.128906 96.238281 138.417969 C 96.117188 138.707031 96.019531 139 95.9375 139.300781 C 95.855469 139.601562 95.796875 139.910156 95.753906 140.21875 C 95.714844 140.527344 95.695312 140.835938 95.695312 141.148438 C 95.695312 141.460938 95.714844 141.769531 95.753906 142.082031 C 95.792969 142.390625 95.855469 142.695312 95.9375 142.996094 C 96.015625 143.296875 96.117188 143.59375 96.234375 143.878906 C 96.355469 144.167969 96.492188 144.449219 96.648438 144.71875 C 96.804688 144.988281 96.976562 145.246094 97.167969 145.492188 C 97.355469 145.742188 97.5625 145.976562 97.78125 146.195312 C 98 146.417969 98.234375 146.621094 98.484375 146.8125 C 98.730469 147.003906 98.988281 147.175781 99.257812 147.332031 C 99.527344 147.488281 99.808594 147.625 100.09375 147.746094 C 100.382812 147.863281 100.675781 147.964844 100.980469 148.046875 C 101.28125 148.125 101.585938 148.1875 101.894531 148.226562 C 102.203125 148.269531 102.515625 148.289062 102.824219 148.289062 Z M 59.71875 169.765625 L 95.59375 169.765625 L 95.59375 161.316406 C 95.597656 158.28125 94.789062 155.484375 93.171875 152.917969 C 93.121094 152.851562 93.078125 152.78125 93.035156 152.710938 C 93.03125 152.699219 93.027344 152.691406 93.023438 152.683594 C 92.304688 151.578125 91.460938 150.582031 90.492188 149.6875 C 89.527344 148.796875 88.464844 148.035156 87.308594 147.40625 C 86.152344 146.78125 84.933594 146.304688 83.660156 145.980469 C 82.382812 145.65625 81.089844 145.492188 79.773438 145.492188 L 75.542969 145.492188 C 74.226562 145.492188 72.929688 145.65625 71.65625 145.980469 C 70.378906 146.304688 69.164062 146.78125 68.007812 147.40625 C 66.847656 148.035156 65.789062 148.796875 64.820312 149.6875 C 63.851562 150.582031 63.011719 151.578125 62.292969 152.683594 C 62.289062 152.691406 62.285156 152.699219 62.277344 152.710938 C 62.238281 152.78125 62.191406 152.851562 62.140625 152.917969 C 60.523438 155.484375 59.714844 158.28125 59.71875 161.316406 Z M 87.480469 132.027344 C 87.480469 131.378906 87.417969 130.742188 87.292969 130.109375 C 87.167969 129.476562 86.980469 128.863281 86.734375 128.265625 C 86.488281 127.667969 86.183594 127.101562 85.828125 126.566406 C 85.46875 126.03125 85.0625 125.535156 84.605469 125.078125 C 84.148438 124.621094 83.652344 124.214844 83.117188 123.855469 C 82.578125 123.496094 82.011719 123.195312 81.417969 122.949219 C 80.820312 122.703125 80.207031 122.515625 79.574219 122.390625 C 78.941406 122.261719 78.300781 122.199219 77.65625 122.199219 C 77.011719 122.199219 76.371094 122.261719 75.742188 122.390625 C 75.109375 122.515625 74.492188 122.703125 73.898438 122.949219 C 73.300781 123.195312 72.734375 123.496094 72.199219 123.855469 C 71.664062 124.214844 71.164062 124.621094 70.710938 125.078125 C 70.253906 125.535156 69.847656 126.03125 69.488281 126.566406 C 69.128906 127.101562 68.828125 127.667969 68.578125 128.265625 C 68.332031 128.859375 68.148438 129.476562 68.019531 130.109375 C 67.894531 130.742188 67.832031 131.378906 67.832031 132.023438 C 67.832031 132.671875 67.894531 133.308594 68.019531 133.941406 C 68.148438 134.574219 68.332031 135.1875 68.578125 135.785156 C 68.828125 136.382812 69.128906 136.949219 69.488281 137.484375 C 69.847656 138.019531 70.253906 138.515625 70.710938 138.972656 C 71.167969 139.429688 71.664062 139.835938 72.199219 140.195312 C 72.734375 140.554688 73.300781 140.855469 73.898438 141.101562 C 74.492188 141.347656 75.109375 141.535156 75.742188 141.660156 C 76.375 141.789062 77.011719 141.851562 77.65625 141.851562 C 78.300781 141.847656 78.941406 141.785156 79.574219 141.660156 C 80.207031 141.535156 80.820312 141.347656 81.414062 141.097656 C 82.011719 140.851562 82.578125 140.550781 83.113281 140.191406 C 83.648438 139.832031 84.144531 139.425781 84.601562 138.96875 C 85.058594 138.511719 85.464844 138.015625 85.824219 137.480469 C 86.179688 136.945312 86.484375 136.378906 86.730469 135.785156 C 86.976562 135.1875 87.164062 134.574219 87.292969 133.941406 C 87.417969 133.308594 87.480469 132.671875 87.480469 132.027344 Z M 95.234375 149.511719 C 95.414062 149.433594 95.59375 149.363281 95.773438 149.292969 C 95.335938 148.914062 94.929688 148.5 94.558594 148.054688 C 94.1875 147.609375 93.855469 147.140625 93.558594 146.640625 C 93.261719 146.140625 93.011719 145.621094 92.796875 145.082031 C 92.585938 144.542969 92.417969 143.988281 92.296875 143.421875 C 92.175781 142.855469 92.097656 142.28125 92.070312 141.703125 C 92.039062 141.125 92.054688 140.546875 92.121094 139.96875 C 92.183594 139.394531 92.292969 138.824219 92.445312 138.265625 C 92.601562 137.707031 92.800781 137.164062 93.042969 136.640625 C 93.285156 136.113281 93.570312 135.609375 93.894531 135.128906 C 94.21875 134.648438 94.578125 134.195312 94.976562 133.773438 C 95.371094 133.347656 95.800781 132.960938 96.257812 132.609375 C 96.71875 132.253906 97.203125 131.941406 97.714844 131.664062 C 98.226562 131.390625 98.753906 131.15625 99.300781 130.964844 C 99.847656 130.777344 100.410156 130.632812 100.980469 130.53125 C 101.550781 130.433594 102.128906 130.378906 102.707031 130.371094 C 103.285156 130.367188 103.863281 130.40625 104.4375 130.492188 C 104.425781 120.550781 104.410156 109.257812 104.394531 99.542969 L 47.121094 113.007812 L 47.121094 131.804688 C 47.699219 131.472656 48.300781 131.199219 48.925781 130.976562 C 49.550781 130.757812 50.195312 130.597656 50.851562 130.496094 C 51.507812 130.394531 52.164062 130.355469 52.828125 130.378906 C 53.492188 130.398438 54.148438 130.480469 54.796875 130.621094 C 55.445312 130.765625 56.078125 130.964844 56.6875 131.222656 C 57.300781 131.480469 57.882812 131.792969 58.4375 132.160156 C 58.988281 132.527344 59.503906 132.941406 59.980469 133.402344 C 60.460938 133.863281 60.890625 134.367188 61.273438 134.90625 C 61.660156 135.449219 61.988281 136.019531 62.269531 136.625 C 62.546875 137.226562 62.769531 137.851562 62.933594 138.492188 C 63.09375 139.136719 63.199219 139.789062 63.242188 140.453125 C 63.285156 141.113281 63.265625 141.777344 63.1875 142.433594 C 63.105469 143.09375 62.96875 143.742188 62.769531 144.375 C 62.570312 145.007812 62.3125 145.617188 62 146.203125 C 61.691406 146.789062 61.328125 147.34375 60.914062 147.863281 C 60.5 148.378906 60.042969 148.855469 59.539062 149.292969 C 59.722656 149.359375 59.902344 149.433594 60.082031 149.507812 C 61.285156 147.933594 62.695312 146.574219 64.316406 145.425781 C 65.933594 144.28125 67.6875 143.402344 69.574219 142.789062 C 69.199219 142.507812 68.839844 142.210938 68.5 141.890625 C 68.15625 141.574219 67.832031 141.238281 67.523438 140.886719 C 67.214844 140.535156 66.925781 140.167969 66.65625 139.785156 C 66.386719 139.402344 66.136719 139.007812 65.90625 138.601562 C 65.679688 138.191406 65.472656 137.773438 65.289062 137.34375 C 65.101562 136.914062 64.941406 136.476562 64.800781 136.03125 C 64.660156 135.585938 64.546875 135.132812 64.453125 134.671875 C 64.363281 134.214844 64.292969 133.753906 64.25 133.289062 C 64.207031 132.820312 64.1875 132.355469 64.191406 131.886719 C 64.195312 131.421875 64.222656 130.953125 64.277344 130.488281 C 64.328125 130.023438 64.40625 129.5625 64.507812 129.109375 C 64.609375 128.652344 64.734375 128.199219 64.882812 127.757812 C 65.027344 127.3125 65.199219 126.878906 65.394531 126.453125 C 65.585938 126.027344 65.800781 125.613281 66.039062 125.210938 C 66.273438 124.804688 66.53125 124.414062 66.808594 124.039062 C 67.085938 123.660156 67.378906 123.300781 67.695312 122.953125 C 68.011719 122.609375 68.339844 122.28125 68.691406 121.96875 C 69.039062 121.65625 69.402344 121.363281 69.78125 121.089844 C 70.164062 120.820312 70.554688 120.566406 70.960938 120.332031 C 71.367188 120.101562 71.785156 119.890625 72.210938 119.699219 C 72.636719 119.511719 73.074219 119.34375 73.519531 119.203125 C 73.964844 119.058594 74.417969 118.9375 74.875 118.839844 C 75.332031 118.746094 75.792969 118.671875 76.257812 118.621094 C 76.722656 118.574219 77.1875 118.550781 77.65625 118.550781 C 78.125 118.550781 78.589844 118.574219 79.054688 118.621094 C 79.519531 118.671875 79.984375 118.746094 80.441406 118.839844 C 80.898438 118.9375 81.347656 119.058594 81.792969 119.203125 C 82.238281 119.34375 82.675781 119.511719 83.101562 119.699219 C 83.53125 119.890625 83.949219 120.101562 84.351562 120.332031 C 84.757812 120.566406 85.152344 120.820312 85.53125 121.089844 C 85.910156 121.363281 86.273438 121.65625 86.625 121.96875 C 86.972656 122.28125 87.304688 122.609375 87.617188 122.953125 C 87.933594 123.300781 88.230469 123.660156 88.507812 124.039062 C 88.785156 124.414062 89.039062 124.804688 89.277344 125.210938 C 89.511719 125.613281 89.726562 126.027344 89.921875 126.453125 C 90.113281 126.878906 90.285156 127.3125 90.433594 127.757812 C 90.582031 128.199219 90.707031 128.652344 90.804688 129.109375 C 90.90625 129.5625 90.984375 130.023438 91.039062 130.488281 C 91.089844 130.953125 91.121094 131.421875 91.125 131.886719 C 91.128906 132.355469 91.109375 132.820312 91.066406 133.289062 C 91.019531 133.753906 90.953125 134.214844 90.859375 134.671875 C 90.769531 135.132812 90.652344 135.585938 90.511719 136.03125 C 90.375 136.476562 90.210938 136.914062 90.027344 137.34375 C 89.839844 137.773438 89.632812 138.191406 89.40625 138.601562 C 89.175781 139.007812 88.929688 139.402344 88.660156 139.785156 C 88.386719 140.167969 88.101562 140.535156 87.792969 140.886719 C 87.484375 141.238281 87.160156 141.574219 86.816406 141.890625 C 86.472656 142.210938 86.113281 142.507812 85.738281 142.789062 C 87.625 143.402344 89.378906 144.28125 91 145.425781 C 92.617188 146.574219 94.027344 147.933594 95.234375 149.507812 Z M 52.488281 148.292969 C 52.800781 148.292969 53.109375 148.269531 53.421875 148.230469 C 53.730469 148.1875 54.035156 148.128906 54.335938 148.046875 C 54.636719 147.964844 54.929688 147.867188 55.21875 147.746094 C 55.507812 147.625 55.785156 147.488281 56.054688 147.332031 C 56.328125 147.175781 56.585938 147.003906 56.832031 146.8125 C 57.078125 146.625 57.3125 146.417969 57.535156 146.199219 C 57.753906 145.976562 57.957031 145.742188 58.148438 145.496094 C 58.339844 145.246094 58.511719 144.988281 58.667969 144.71875 C 58.824219 144.449219 58.960938 144.167969 59.078125 143.882812 C 59.199219 143.59375 59.296875 143.296875 59.378906 142.996094 C 59.460938 142.695312 59.519531 142.390625 59.558594 142.082031 C 59.601562 141.773438 59.621094 141.460938 59.621094 141.148438 C 59.621094 140.839844 59.601562 140.527344 59.558594 140.21875 C 59.519531 139.910156 59.457031 139.605469 59.378906 139.304688 C 59.296875 139.003906 59.195312 138.707031 59.078125 138.417969 C 58.957031 138.132812 58.820312 137.851562 58.664062 137.582031 C 58.507812 137.3125 58.335938 137.054688 58.144531 136.804688 C 57.953125 136.558594 57.75 136.324219 57.527344 136.105469 C 57.308594 135.882812 57.074219 135.679688 56.828125 135.488281 C 56.578125 135.300781 56.320312 135.125 56.050781 134.972656 C 55.78125 134.816406 55.503906 134.675781 55.214844 134.558594 C 54.925781 134.4375 54.632812 134.339844 54.328125 134.257812 C 54.027344 134.175781 53.722656 134.117188 53.414062 134.074219 C 53.105469 134.035156 52.792969 134.015625 52.484375 134.015625 C 52.171875 134.015625 51.859375 134.035156 51.550781 134.074219 C 51.242188 134.117188 50.9375 134.175781 50.636719 134.257812 C 50.335938 134.339844 50.039062 134.4375 49.75 134.558594 C 49.464844 134.675781 49.183594 134.816406 48.914062 134.972656 C 48.644531 135.125 48.386719 135.300781 48.136719 135.488281 C 47.890625 135.679688 47.65625 135.882812 47.4375 136.105469 C 47.214844 136.324219 47.011719 136.558594 46.820312 136.804688 C 46.632812 137.054688 46.457031 137.3125 46.300781 137.582031 C 46.144531 137.851562 46.007812 138.132812 45.890625 138.417969 C 45.769531 138.707031 45.667969 139.003906 45.589844 139.304688 C 45.507812 139.605469 45.445312 139.910156 45.40625 140.21875 C 45.367188 140.527344 45.34375 140.839844 45.34375 141.148438 C 45.34375 141.460938 45.363281 141.773438 45.40625 142.082031 C 45.445312 142.390625 45.507812 142.695312 45.585938 142.996094 C 45.667969 143.296875 45.765625 143.59375 45.886719 143.882812 C 46.007812 144.167969 46.144531 144.449219 46.300781 144.71875 C 46.453125 144.988281 46.628906 145.246094 46.816406 145.496094 C 47.007812 145.742188 47.210938 145.976562 47.433594 146.199219 C 47.652344 146.417969 47.886719 146.625 48.132812 146.8125 C 48.382812 147.003906 48.640625 147.175781 48.910156 147.332031 C 49.179688 147.488281 49.457031 147.625 49.746094 147.746094 C 50.035156 147.867188 50.328125 147.964844 50.628906 148.046875 C 50.929688 148.128906 51.238281 148.1875 51.546875 148.230469 C 51.855469 148.269531 52.164062 148.292969 52.476562 148.292969 Z M 52.261719 78.019531 L 66.191406 81.847656 C 66.585938 81.957031 66.910156 82.175781 67.15625 82.5 C 67.40625 82.824219 67.53125 83.195312 67.53125 83.605469 L 67.53125 104.464844 L 92.554688 98.582031 L 92.554688 49.289062 L 52.273438 63.210938 Z M 23.558594 153.839844 L 39.03125 153.839844 C 40.28125 152.339844 41.765625 151.117188 43.480469 150.175781 L 43.480469 147.070312 C 42.898438 146.195312 42.457031 145.25 42.15625 144.242188 C 41.855469 143.234375 41.703125 142.203125 41.703125 141.152344 C 41.703125 140.097656 41.855469 139.070312 42.15625 138.0625 C 42.457031 137.054688 42.898438 136.109375 43.480469 135.230469 L 43.480469 111.5625 C 43.480469 111.140625 43.609375 110.761719 43.875 110.433594 C 44.136719 110.101562 44.472656 109.886719 44.882812 109.789062 L 63.886719 105.324219 L 63.886719 84.992188 L 23.605469 73.914062 C 23.578125 100.679688 23.558594 142.972656 23.558594 153.839844 Z M 35.460938 164.972656 L 35.460938 163.683594 C 35.460938 161.523438 35.894531 159.457031 36.769531 157.484375 L 15.871094 157.484375 L 15.871094 164.972656 Z M 39.101562 169.765625 L 42.867188 169.765625 L 42.867188 161.628906 C 42.867188 161.386719 42.914062 161.15625 43.007812 160.933594 C 43.097656 160.707031 43.230469 160.511719 43.402344 160.339844 C 43.570312 160.171875 43.769531 160.039062 43.992188 159.945312 C 44.214844 159.855469 44.449219 159.808594 44.6875 159.808594 C 44.929688 159.808594 45.164062 159.855469 45.386719 159.945312 C 45.609375 160.039062 45.804688 160.171875 45.976562 160.339844 C 46.148438 160.511719 46.277344 160.707031 46.371094 160.933594 C 46.464844 161.15625 46.511719 161.386719 46.511719 161.628906 L 46.511719 169.765625 L 56.074219 169.765625 L 56.074219 161.316406 C 56.074219 158.265625 56.753906 155.375 58.117188 152.648438 C 56.824219 152.175781 55.488281 151.933594 54.109375 151.933594 L 50.855469 151.933594 C 49.199219 151.929688 47.617188 152.265625 46.101562 152.941406 C 46.0625 152.960938 46.019531 152.980469 45.980469 152.996094 C 44.171875 153.824219 42.671875 155.03125 41.472656 156.617188 C 41.425781 156.695312 41.371094 156.773438 41.308594 156.84375 C 39.835938 158.886719 39.101562 161.167969 39.101562 163.683594 Z M 116.210938 163.683594 C 116.214844 161.167969 115.476562 158.886719 114.003906 156.84375 C 113.945312 156.773438 113.890625 156.695312 113.839844 156.617188 C 113.292969 155.890625 112.671875 155.234375 111.972656 154.652344 C 111.273438 154.070312 110.515625 153.574219 109.703125 153.167969 C 108.886719 152.761719 108.039062 152.453125 107.152344 152.246094 C 106.265625 152.035156 105.367188 151.933594 104.457031 151.933594 L 101.203125 151.933594 C 99.824219 151.933594 98.488281 152.175781 97.195312 152.648438 C 98.558594 155.378906 99.238281 158.265625 99.238281 161.316406 L 99.238281 169.765625 L 108.804688 169.765625 L 108.804688 161.628906 C 108.804688 161.386719 108.847656 161.15625 108.941406 160.933594 C 109.035156 160.707031 109.164062 160.511719 109.335938 160.339844 C 109.507812 160.171875 109.703125 160.039062 109.925781 159.945312 C 110.152344 159.855469 110.382812 159.808594 110.625 159.808594 C 110.867188 159.808594 111.097656 159.855469 111.320312 159.945312 C 111.542969 160.039062 111.742188 160.171875 111.914062 160.339844 C 112.082031 160.511719 112.214844 160.707031 112.308594 160.933594 C 112.398438 161.15625 112.445312 161.386719 112.445312 161.628906 L 112.445312 169.765625 L 116.210938 169.765625 Z M 150.042969 157.484375 L 118.542969 157.484375 C 119.417969 159.457031 119.855469 161.523438 119.855469 163.683594 L 119.855469 164.972656 L 150.042969 164.972656 Z M 104.667969 44.722656 L 133.28125 44.722656 C 133.523438 44.722656 133.757812 44.675781 133.980469 44.582031 C 134.203125 44.488281 134.398438 44.359375 134.570312 44.1875 C 134.742188 44.015625 134.871094 43.820312 134.964844 43.597656 C 135.058594 43.375 135.105469 43.140625 135.105469 42.898438 C 135.105469 42.65625 135.058594 42.425781 134.964844 42.203125 C 134.871094 41.980469 134.742188 41.78125 134.570312 41.613281 C 134.398438 41.441406 134.203125 41.308594 133.980469 41.21875 C 133.757812 41.125 133.523438 41.078125 133.28125 41.078125 L 104.667969 41.078125 C 104.425781 41.078125 104.191406 41.125 103.96875 41.21875 C 103.746094 41.308594 103.550781 41.441406 103.378906 41.613281 C 103.207031 41.78125 103.074219 41.980469 102.984375 42.203125 C 102.890625 42.425781 102.84375 42.65625 102.84375 42.898438 C 102.84375 43.140625 102.890625 43.375 102.984375 43.597656 C 103.074219 43.820312 103.207031 44.015625 103.378906 44.1875 C 103.550781 44.359375 103.746094 44.488281 103.96875 44.582031 C 104.191406 44.675781 104.425781 44.722656 104.667969 44.722656 Z M 104.667969 55.621094 L 133.28125 55.621094 C 133.523438 55.621094 133.757812 55.574219 133.980469 55.484375 C 134.203125 55.390625 134.398438 55.257812 134.570312 55.089844 C 134.742188 54.917969 134.871094 54.722656 134.964844 54.496094 C 135.058594 54.273438 135.105469 54.042969 135.105469 53.800781 C 135.105469 53.558594 135.058594 53.328125 134.964844 53.105469 C 134.871094 52.878906 134.742188 52.683594 134.570312 52.511719 C 134.398438 52.34375 134.203125 52.210938 133.980469 52.117188 C 133.757812 52.027344 133.523438 51.980469 133.28125 51.980469 L 104.667969 51.980469 C 104.425781 51.980469 104.191406 52.027344 103.96875 52.117188 C 103.746094 52.210938 103.550781 52.34375 103.378906 52.511719 C 103.207031 52.683594 103.074219 52.878906 102.984375 53.105469 C 102.890625 53.328125 102.84375 53.558594 102.84375 53.800781 C 102.84375 54.042969 102.890625 54.273438 102.984375 54.496094 C 103.074219 54.722656 103.207031 54.917969 103.378906 55.089844 C 103.550781 55.257812 103.746094 55.390625 103.96875 55.484375 C 104.191406 55.574219 104.425781 55.621094 104.667969 55.621094 Z M 104.667969 66.523438 L 133.28125 66.523438 C 133.523438 66.523438 133.757812 66.476562 133.980469 66.386719 C 134.203125 66.292969 134.398438 66.160156 134.570312 65.992188 C 134.742188 65.820312 134.871094 65.621094 134.964844 65.398438 C 135.058594 65.175781 135.105469 64.945312 135.105469 64.703125 C 135.105469 64.460938 135.058594 64.230469 134.964844 64.003906 C 134.871094 63.78125 134.742188 63.585938 134.570312 63.414062 C 134.398438 63.242188 134.203125 63.113281 133.980469 63.019531 C 133.757812 62.925781 133.523438 62.882812 133.28125 62.882812 L 104.667969 62.882812 C 104.425781 62.882812 104.191406 62.925781 103.96875 63.019531 C 103.746094 63.113281 103.550781 63.242188 103.378906 63.414062 C 103.207031 63.585938 103.074219 63.78125 102.984375 64.003906 C 102.890625 64.230469 102.84375 64.460938 102.84375 64.703125 C 102.84375 64.945312 102.890625 65.175781 102.984375 65.398438 C 103.074219 65.621094 103.207031 65.820312 103.378906 65.992188 C 103.550781 66.160156 103.746094 66.292969 103.96875 66.386719 C 104.191406 66.476562 104.425781 66.523438 104.667969 66.523438 Z M 104.667969 77.425781 L 133.28125 77.425781 C 133.523438 77.425781 133.757812 77.378906 133.980469 77.289062 C 134.203125 77.195312 134.398438 77.0625 134.570312 76.890625 C 134.742188 76.722656 134.871094 76.523438 134.964844 76.300781 C 135.058594 76.078125 135.105469 75.847656 135.105469 75.605469 C 135.105469 75.363281 135.058594 75.128906 134.964844 74.90625 C 134.871094 74.683594 134.742188 74.488281 134.570312 74.316406 C 134.398438 74.144531 134.203125 74.015625 133.980469 73.921875 C 133.757812 73.828125 133.523438 73.785156 133.28125 73.785156 L 104.667969 73.785156 C 104.425781 73.785156 104.191406 73.828125 103.96875 73.921875 C 103.746094 74.015625 103.550781 74.144531 103.378906 74.316406 C 103.207031 74.488281 103.074219 74.683594 102.984375 74.90625 C 102.890625 75.128906 102.84375 75.363281 102.84375 75.605469 C 102.84375 75.847656 102.890625 76.078125 102.984375 76.300781 C 103.074219 76.523438 103.207031 76.722656 103.378906 76.890625 C 103.550781 77.0625 103.746094 77.195312 103.96875 77.289062 C 104.191406 77.378906 104.425781 77.425781 104.667969 77.425781 Z M 104.667969 88.328125 L 133.28125 88.328125 C 133.523438 88.328125 133.757812 88.28125 133.980469 88.1875 C 134.203125 88.097656 134.398438 87.964844 134.570312 87.792969 C 134.742188 87.621094 134.871094 87.425781 134.964844 87.203125 C 135.058594 86.980469 135.105469 86.746094 135.105469 86.507812 C 135.105469 86.265625 135.058594 86.03125 134.964844 85.808594 C 134.871094 85.585938 134.742188 85.390625 134.570312 85.21875 C 134.398438 85.046875 134.203125 84.914062 133.980469 84.824219 C 133.757812 84.730469 133.523438 84.683594 133.28125 84.683594 L 104.667969 84.683594 C 104.425781 84.683594 104.191406 84.730469 103.96875 84.824219 C 103.746094 84.914062 103.550781 85.046875 103.378906 85.21875 C 103.207031 85.390625 103.074219 85.585938 102.984375 85.808594 C 102.890625 86.03125 102.84375 86.265625 102.84375 86.507812 C 102.84375 86.746094 102.890625 86.980469 102.984375 87.203125 C 103.074219 87.425781 103.207031 87.621094 103.378906 87.792969 C 103.550781 87.964844 103.746094 88.097656 103.96875 88.1875 C 104.191406 88.28125 104.425781 88.328125 104.667969 88.328125 Z M 133.28125 95.585938 L 115.957031 95.585938 C 115.71875 95.585938 115.484375 95.632812 115.261719 95.726562 C 115.039062 95.816406 114.84375 95.949219 114.671875 96.121094 C 114.5 96.289062 114.367188 96.488281 114.277344 96.710938 C 114.183594 96.933594 114.136719 97.167969 114.136719 97.40625 C 114.136719 97.648438 114.183594 97.882812 114.277344 98.105469 C 114.367188 98.328125 114.5 98.523438 114.671875 98.695312 C 114.84375 98.867188 115.039062 98.996094 115.261719 99.089844 C 115.484375 99.183594 115.71875 99.230469 115.957031 99.230469 L 133.28125 99.230469 C 133.523438 99.230469 133.757812 99.183594 133.980469 99.089844 C 134.203125 98.996094 134.398438 98.867188 134.570312 98.695312 C 134.742188 98.523438 134.871094 98.328125 134.964844 98.105469 C 135.058594 97.882812 135.105469 97.648438 135.105469 97.40625 C 135.105469 97.167969 135.058594 96.933594 134.964844 96.710938 C 134.871094 96.488281 134.742188 96.289062 134.570312 96.121094 C 134.398438 95.949219 134.203125 95.816406 133.980469 95.726562 C 133.757812 95.632812 133.523438 95.585938 133.28125 95.585938 Z M 133.28125 106.488281 L 115.957031 106.488281 C 115.71875 106.488281 115.484375 106.535156 115.261719 106.625 C 115.039062 106.71875 114.84375 106.851562 114.671875 107.019531 C 114.5 107.191406 114.367188 107.390625 114.277344 107.613281 C 114.183594 107.835938 114.136719 108.066406 114.136719 108.308594 C 114.136719 108.550781 114.183594 108.78125 114.277344 109.007812 C 114.367188 109.230469 114.5 109.425781 114.671875 109.597656 C 114.84375 109.769531 115.039062 109.898438 115.261719 109.992188 C 115.484375 110.085938 115.71875 110.128906 115.957031 110.128906 L 133.28125 110.128906 C 133.523438 110.128906 133.757812 110.085938 133.980469 109.992188 C 134.203125 109.898438 134.398438 109.769531 134.570312 109.597656 C 134.742188 109.425781 134.871094 109.230469 134.964844 109.007812 C 135.058594 108.78125 135.105469 108.550781 135.105469 108.308594 C 135.105469 108.066406 135.058594 107.835938 134.964844 107.613281 C 134.871094 107.390625 134.742188 107.191406 134.570312 107.019531 C 134.398438 106.851562 134.203125 106.71875 133.980469 106.625 C 133.757812 106.535156 133.523438 106.488281 133.28125 106.488281 Z M 133.28125 117.390625 L 115.957031 117.390625 C 115.71875 117.390625 115.484375 117.4375 115.261719 117.527344 C 115.039062 117.621094 114.84375 117.753906 114.671875 117.921875 C 114.5 118.09375 114.367188 118.289062 114.277344 118.515625 C 114.183594 118.738281 114.136719 118.96875 114.136719 119.210938 C 114.136719 119.453125 114.183594 119.683594 114.277344 119.90625 C 114.367188 120.132812 114.5 120.328125 114.671875 120.5 C 114.84375 120.667969 115.039062 120.800781 115.261719 120.894531 C 115.484375 120.984375 115.71875 121.03125 115.957031 121.03125 L 133.28125 121.03125 C 133.523438 121.03125 133.757812 120.984375 133.980469 120.894531 C 134.203125 120.800781 134.398438 120.667969 134.570312 120.5 C 134.742188 120.328125 134.871094 120.132812 134.964844 119.90625 C 135.058594 119.683594 135.105469 119.453125 135.105469 119.210938 C 135.105469 118.96875 135.058594 118.738281 134.964844 118.515625 C 134.871094 118.289062 134.742188 118.09375 134.570312 117.921875 C 134.398438 117.753906 134.203125 117.621094 133.980469 117.527344 C 133.757812 117.4375 133.523438 117.390625 133.28125 117.390625 Z M 133.28125 128.292969 L 115.957031 128.292969 C 115.71875 128.292969 115.484375 128.335938 115.261719 128.429688 C 115.039062 128.523438 114.84375 128.652344 114.671875 128.824219 C 114.5 128.996094 114.367188 129.191406 114.277344 129.414062 C 114.183594 129.636719 114.136719 129.871094 114.136719 130.113281 C 114.136719 130.355469 114.183594 130.585938 114.277344 130.808594 C 114.367188 131.03125 114.5 131.230469 114.671875 131.398438 C 114.84375 131.570312 115.039062 131.703125 115.261719 131.796875 C 115.484375 131.886719 115.71875 131.933594 115.957031 131.933594 L 133.28125 131.933594 C 133.523438 131.933594 133.757812 131.886719 133.980469 131.796875 C 134.203125 131.703125 134.398438 131.570312 134.570312 131.398438 C 134.742188 131.230469 134.871094 131.03125 134.964844 130.808594 C 135.058594 130.585938 135.105469 130.355469 135.105469 130.113281 C 135.105469 129.871094 135.058594 129.636719 134.964844 129.414062 C 134.871094 129.191406 134.742188 128.996094 134.570312 128.824219 C 134.398438 128.652344 134.203125 128.523438 133.980469 128.429688 C 133.757812 128.335938 133.523438 128.292969 133.28125 128.292969 Z M 133.28125 139.191406 L 119.925781 139.191406 C 119.683594 139.191406 119.453125 139.238281 119.230469 139.332031 C 119.007812 139.425781 118.808594 139.554688 118.636719 139.726562 C 118.46875 139.898438 118.335938 140.09375 118.242188 140.316406 C 118.152344 140.539062 118.105469 140.773438 118.105469 141.015625 C 118.105469 141.253906 118.152344 141.488281 118.242188 141.710938 C 118.335938 141.933594 118.46875 142.132812 118.636719 142.300781 C 118.808594 142.472656 119.007812 142.605469 119.230469 142.695312 C 119.453125 142.789062 119.683594 142.835938 119.925781 142.835938 L 133.28125 142.835938 C 133.523438 142.835938 133.757812 142.789062 133.980469 142.695312 C 134.203125 142.605469 134.398438 142.472656 134.570312 142.300781 C 134.742188 142.132812 134.871094 141.933594 134.964844 141.710938 C 135.058594 141.488281 135.105469 141.253906 135.105469 141.015625 C 135.105469 140.773438 135.058594 140.539062 134.964844 140.316406 C 134.871094 140.09375 134.742188 139.898438 134.570312 139.726562 C 134.398438 139.554688 134.203125 139.425781 133.980469 139.332031 C 133.757812 139.238281 133.523438 139.191406 133.28125 139.191406 Z M 30.71875 92.28125 L 56.722656 92.28125 C 56.964844 92.28125 57.199219 92.234375 57.421875 92.144531 C 57.644531 92.050781 57.839844 91.917969 58.011719 91.75 C 58.183594 91.578125 58.316406 91.378906 58.40625 91.15625 C 58.5 90.933594 58.546875 90.703125 58.546875 90.460938 C 58.546875 90.21875 58.5 89.988281 58.40625 89.761719 C 58.316406 89.539062 58.183594 89.34375 58.011719 89.171875 C 57.839844 89 57.644531 88.871094 57.421875 88.777344 C 57.199219 88.683594 56.964844 88.640625 56.722656 88.640625 L 30.71875 88.640625 C 30.476562 88.640625 30.246094 88.683594 30.023438 88.777344 C 29.800781 88.871094 29.601562 89 29.433594 89.171875 C 29.261719 89.34375 29.128906 89.539062 29.039062 89.761719 C 28.945312 89.988281 28.898438 90.21875 28.898438 90.460938 C 28.898438 90.703125 28.945312 90.933594 29.039062 91.15625 C 29.128906 91.378906 29.261719 91.578125 29.433594 91.75 C 29.601562 91.917969 29.800781 92.050781 30.023438 92.144531 C 30.246094 92.234375 30.476562 92.28125 30.71875 92.28125 Z M 30.71875 102.726562 L 56.722656 102.726562 C 56.964844 102.726562 57.199219 102.679688 57.421875 102.585938 C 57.644531 102.496094 57.839844 102.363281 58.011719 102.191406 C 58.183594 102.019531 58.316406 101.824219 58.40625 101.601562 C 58.5 101.378906 58.546875 101.144531 58.546875 100.902344 C 58.546875 100.664062 58.5 100.429688 58.40625 100.207031 C 58.316406 99.984375 58.183594 99.785156 58.011719 99.617188 C 57.839844 99.445312 57.644531 99.3125 57.421875 99.222656 C 57.199219 99.128906 56.964844 99.082031 56.722656 99.082031 L 30.71875 99.082031 C 30.476562 99.082031 30.246094 99.128906 30.023438 99.222656 C 29.800781 99.3125 29.601562 99.445312 29.433594 99.617188 C 29.261719 99.785156 29.128906 99.984375 29.039062 100.207031 C 28.945312 100.429688 28.898438 100.664062 28.898438 100.902344 C 28.898438 101.144531 28.945312 101.378906 29.039062 101.601562 C 29.128906 101.824219 29.261719 102.019531 29.433594 102.191406 C 29.601562 102.363281 29.800781 102.496094 30.023438 102.585938 C 30.246094 102.679688 30.476562 102.726562 30.71875 102.726562 Z M 30.71875 113.167969 L 37.289062 113.167969 C 37.53125 113.167969 37.761719 113.125 37.984375 113.03125 C 38.207031 112.9375 38.40625 112.808594 38.574219 112.636719 C 38.746094 112.464844 38.878906 112.269531 38.96875 112.046875 C 39.0625 111.820312 39.109375 111.589844 39.109375 111.347656 C 39.109375 111.105469 39.0625 110.875 38.96875 110.652344 C 38.878906 110.429688 38.746094 110.230469 38.574219 110.058594 C 38.40625 109.890625 38.207031 109.757812 37.984375 109.664062 C 37.761719 109.574219 37.53125 109.527344 37.289062 109.527344 L 30.71875 109.527344 C 30.476562 109.527344 30.246094 109.574219 30.023438 109.664062 C 29.800781 109.757812 29.601562 109.890625 29.433594 110.058594 C 29.261719 110.230469 29.128906 110.429688 29.039062 110.652344 C 28.945312 110.875 28.898438 111.105469 28.898438 111.347656 C 28.898438 111.589844 28.945312 111.820312 29.039062 112.046875 C 29.128906 112.269531 29.261719 112.464844 29.433594 112.636719 C 29.601562 112.808594 29.800781 112.9375 30.023438 113.03125 C 30.246094 113.125 30.476562 113.167969 30.71875 113.167969 Z M 30.71875 123.613281 L 37.289062 123.613281 C 37.53125 123.613281 37.761719 123.566406 37.984375 123.472656 C 38.207031 123.382812 38.40625 123.25 38.574219 123.078125 C 38.746094 122.90625 38.878906 122.710938 38.96875 122.488281 C 39.0625 122.265625 39.109375 122.03125 39.109375 121.789062 C 39.109375 121.550781 39.0625 121.316406 38.96875 121.09375 C 38.878906 120.871094 38.746094 120.671875 38.574219 120.503906 C 38.40625 120.332031 38.207031 120.199219 37.984375 120.109375 C 37.761719 120.015625 37.53125 119.96875 37.289062 119.96875 L 30.71875 119.96875 C 30.476562 119.96875 30.246094 120.015625 30.023438 120.109375 C 29.800781 120.199219 29.601562 120.332031 29.433594 120.503906 C 29.261719 120.671875 29.128906 120.871094 29.039062 121.09375 C 28.945312 121.316406 28.898438 121.550781 28.898438 121.789062 C 28.898438 122.03125 28.945312 122.265625 29.039062 122.488281 C 29.128906 122.710938 29.261719 122.90625 29.433594 123.078125 C 29.601562 123.25 29.800781 123.382812 30.023438 123.472656 C 30.246094 123.566406 30.476562 123.613281 30.71875 123.613281 Z M 30.71875 134.054688 L 37.289062 134.054688 C 37.53125 134.054688 37.761719 134.011719 37.984375 133.917969 C 38.207031 133.824219 38.40625 133.695312 38.574219 133.523438 C 38.746094 133.351562 38.878906 133.15625 38.96875 132.933594 C 39.0625 132.707031 39.109375 132.476562 39.109375 132.234375 C 39.109375 131.992188 39.0625 131.761719 38.96875 131.539062 C 38.878906 131.316406 38.746094 131.117188 38.574219 130.945312 C 38.40625 130.777344 38.207031 130.644531 37.984375 130.550781 C 37.761719 130.460938 37.53125 130.414062 37.289062 130.414062 L 30.71875 130.414062 C 30.476562 130.414062 30.246094 130.460938 30.023438 130.550781 C 29.800781 130.644531 29.601562 130.777344 29.433594 130.945312 C 29.261719 131.117188 29.128906 131.316406 29.039062 131.539062 C 28.945312 131.761719 28.898438 131.992188 28.898438 132.234375 C 28.898438 132.476562 28.945312 132.707031 29.039062 132.933594 C 29.128906 133.15625 29.261719 133.351562 29.433594 133.523438 C 29.601562 133.695312 29.800781 133.824219 30.023438 133.917969 C 30.246094 134.011719 30.476562 134.054688 30.71875 134.054688 Z M 39.109375 142.675781 C 39.109375 142.4375 39.0625 142.203125 38.96875 141.980469 C 38.878906 141.757812 38.746094 141.558594 38.574219 141.390625 C 38.40625 141.21875 38.207031 141.085938 37.984375 140.996094 C 37.761719 140.902344 37.53125 140.855469 37.289062 140.855469 L 30.71875 140.855469 C 30.476562 140.855469 30.246094 140.902344 30.023438 140.996094 C 29.800781 141.085938 29.601562 141.21875 29.433594 141.390625 C 29.261719 141.558594 29.128906 141.757812 29.039062 141.980469 C 28.945312 142.203125 28.898438 142.4375 28.898438 142.675781 C 28.898438 142.917969 28.945312 143.152344 29.039062 143.375 C 29.128906 143.597656 29.261719 143.792969 29.433594 143.964844 C 29.601562 144.136719 29.800781 144.269531 30.023438 144.359375 C 30.246094 144.453125 30.476562 144.5 30.71875 144.5 L 37.289062 144.5 C 37.527344 144.5 37.761719 144.453125 37.984375 144.359375 C 38.207031 144.269531 38.402344 144.136719 38.574219 143.964844 C 38.746094 143.796875 38.878906 143.597656 38.96875 143.375 C 39.0625 143.152344 39.109375 142.921875 39.109375 142.679688 Z M 39.109375 142.675781 " fill-opacity="1" fill-rule="nonzero"/></g></svg>