<svg xmlns="http://www.w3.org/2000/svg" xmlns:xlink="http://www.w3.org/1999/xlink" width="256" zoomAndPan="magnify" viewBox="0 0 192 191.999996" height="256" preserveAspectRatio="xMidYMid meet" version="1.0"><defs><clipPath id="b9c8903b3c"><path d="M 11.835938 51 L 41 51 L 41 63 L 11.835938 63 Z M 11.835938 51 " clip-rule="nonzero"/></clipPath><clipPath id="08a9206604"><path d="M 11.835938 90 L 41 90 L 41 102 L 11.835938 102 Z M 11.835938 90 " clip-rule="nonzero"/></clipPath><clipPath id="f870eeeaba"><path d="M 11.835938 129 L 41 129 L 41 141 L 11.835938 141 Z M 11.835938 129 " clip-rule="nonzero"/></clipPath><clipPath id="71292fabda"><path d="M 26 25.039062 L 140.835938 25.039062 L 140.835938 166.789062 L 26 166.789062 Z M 26 25.039062 " clip-rule="nonzero"/></clipPath></defs><g clip-path="url(#b9c8903b3c)"><path fill="#e61f93" d="M 17.496094 62.886719 L 34.941406 62.886719 C 38.0625 62.886719 40.585938 60.363281 40.585938 57.242188 C 40.585938 54.121094 38.0625 51.597656 34.941406 51.597656 L 17.496094 51.597656 C 14.375 51.597656 11.847656 54.121094 11.847656 57.242188 C 11.847656 60.347656 14.386719 62.886719 17.496094 62.886719 Z M 17.496094 62.886719 " fill-opacity="1" fill-rule="nonzero"/></g><g clip-path="url(#08a9206604)"><path fill="#e61f93" d="M 17.496094 101.632812 L 34.941406 101.632812 C 38.0625 101.632812 40.585938 99.109375 40.585938 95.988281 C 40.585938 92.867188 38.0625 90.34375 34.941406 90.34375 L 17.496094 90.34375 C 14.375 90.34375 11.847656 92.867188 11.847656 95.988281 C 11.847656 99.09375 14.386719 101.632812 17.496094 101.632812 Z M 17.496094 101.632812 " fill-opacity="1" fill-rule="nonzero"/></g><g clip-path="url(#f870eeeaba)"><path fill="#e61f93" d="M 40.601562 134.71875 C 40.601562 131.597656 38.078125 129.074219 34.957031 129.074219 L 17.496094 129.074219 C 14.375 129.074219 11.847656 131.597656 11.847656 134.71875 C 11.847656 137.839844 14.375 140.363281 17.496094 140.363281 L 34.941406 140.363281 C 38.0625 140.378906 40.601562 137.839844 40.601562 134.71875 Z M 40.601562 134.71875 " fill-opacity="1" fill-rule="nonzero"/></g><g clip-path="url(#71292fabda)"><path fill="#e61f93" d="M 124.578125 25.039062 L 35.074219 25.039062 C 30.160156 25.039062 26.234375 28.980469 26.234375 33.851562 L 26.234375 45.113281 L 34.957031 45.113281 C 41.632812 45.113281 47.070312 50.535156 47.070312 57.226562 C 47.070312 63.917969 41.648438 69.339844 34.957031 69.339844 L 26.234375 69.339844 L 26.234375 83.875 L 34.957031 83.875 C 41.632812 83.875 47.070312 89.296875 47.070312 95.988281 C 47.070312 102.679688 41.632812 108.085938 34.941406 108.085938 L 26.21875 108.085938 L 26.21875 122.621094 L 34.941406 122.621094 C 41.617188 122.621094 47.054688 128.042969 47.054688 134.734375 C 47.054688 141.410156 41.632812 146.847656 34.941406 146.847656 L 26.21875 146.847656 L 26.21875 158.109375 C 26.21875 162.980469 30.160156 166.953125 35.0625 166.953125 L 124.5625 166.953125 C 133.703125 166.953125 141.125 159.527344 141.125 150.359375 L 141.125 41.617188 C 141.140625 32.460938 133.71875 25.039062 124.578125 25.039062 Z M 91.132812 61.753906 C 100.425781 61.753906 107.9375 69.28125 107.9375 78.558594 C 107.9375 87.832031 100.410156 95.375 91.132812 95.375 C 81.84375 95.375 74.328125 87.847656 74.328125 78.570312 C 74.328125 69.296875 81.84375 61.753906 91.132812 61.753906 Z M 119.15625 125.742188 C 119.15625 128.191406 117.125 130.191406 114.671875 130.191406 L 67.59375 130.191406 C 65.113281 130.191406 63.113281 128.191406 63.113281 125.742188 L 63.113281 122.351562 C 63.113281 112.3125 68.5625 103.5 76.703125 98.78125 C 80.765625 101.722656 85.742188 103.425781 91.132812 103.425781 C 96.527344 103.425781 101.5 101.707031 105.5625 98.78125 C 113.703125 103.5 119.15625 112.3125 119.15625 122.351562 Z M 119.15625 125.742188 " fill-opacity="1" fill-rule="nonzero"/></g></svg>